<svg width="250" height="77" viewBox="0 0 250 77" fill="none" xmlns="http://www.w3.org/2000/svg">
<path d="M240.336 0.211426H9.66381C4.32663 0.211426 0 4.53806 0 9.87523V66.5752C0 71.9124 4.32663 76.239 9.66381 76.239H240.336C245.673 76.239 250 71.9124 250 66.5752V9.87523C250 4.53806 245.673 0.211426 240.336 0.211426Z" fill="#E5EFF3"/>
<path d="M15.5205 31.2764C11.4647 38.3134 14.0428 48.9958 18.5255 55.4691C20.7637 58.7073 23.03 61.6139 26.1345 61.6139C26.1925 61.6139 26.2516 61.6139 26.3117 61.6139C27.7696 61.5559 28.8245 61.1061 29.8431 60.673C30.983 60.1849 32.1705 59.6813 34.0274 59.6813C35.789 59.6813 36.9195 60.1694 38.0085 60.6398C39.0976 61.1103 40.1846 61.5859 41.8229 61.5548C45.3201 61.4895 47.4672 58.3539 49.3614 55.5872C50.782 53.5005 51.8965 51.2212 52.6711 48.8186L52.6846 48.7761C52.7152 48.6844 52.7111 48.5846 52.6729 48.4957C52.6346 48.4068 52.565 48.3351 52.4773 48.2943L52.4493 48.2819C51.8328 48.03 46.431 45.6333 46.375 39.103C46.3222 33.7965 50.4266 30.9873 51.2504 30.4775L51.2888 30.4526C51.3329 30.4242 51.3708 30.3873 51.4004 30.344C51.43 30.3007 51.4505 30.2519 51.4608 30.2004C51.4712 30.149 51.4711 30.0961 51.4606 30.0447C51.4501 29.9933 51.4294 29.9446 51.3996 29.9013C48.5666 25.7565 44.2248 25.1347 42.4757 25.0549C42.2229 25.0301 41.9576 25.0166 41.6975 25.0166C39.6447 25.0166 37.677 25.7917 36.1019 26.4155C35.0108 26.8466 34.0678 27.2175 33.4191 27.2175C32.6886 27.2175 31.7404 26.8414 30.6441 26.4062C29.1758 25.8238 27.5127 25.1627 25.7521 25.1627H25.6278C21.5212 25.2249 17.652 27.5678 15.5205 31.2764Z" fill="#5A475D"/>
<path d="M42.4727 13.6429C39.993 13.7465 37.019 15.2697 35.2419 17.3515C33.73 19.1017 32.2555 22.0145 32.6441 24.9605C32.6557 25.0498 32.6976 25.1324 32.7629 25.1945C32.8282 25.2566 32.9128 25.2943 33.0026 25.3014C33.1705 25.3138 33.3415 25.3211 33.5114 25.3211C35.9351 25.3211 38.5506 23.9792 40.337 21.8197C42.2167 19.54 43.1669 16.6137 42.8799 13.9921C42.8685 13.8933 42.8202 13.8024 42.7447 13.7377C42.6692 13.6729 42.572 13.6391 42.4727 13.6429Z" fill="#5A475D"/>
<path d="M70.999 13.4409H75.7004C76.9335 13.4409 78.0281 13.6955 78.9842 14.2046C79.9114 14.6859 80.6848 15.418 81.2162 16.3175C81.7394 17.2538 82.014 18.3085 82.014 19.3811C82.014 20.4536 81.7394 21.5083 81.2162 22.4447C80.6848 23.3441 79.9114 24.0762 78.9842 24.5575C78.0274 25.0666 76.9328 25.3212 75.7004 25.3212H70.999V13.4409ZM75.632 24.5409C76.7297 24.5409 77.6968 24.323 78.5334 23.8871C79.3415 23.4792 80.0137 22.8452 80.468 22.0623C80.9135 21.2386 81.1468 20.317 81.1468 19.3806C81.1468 18.4441 80.9135 17.5225 80.468 16.6988C80.0133 15.9164 79.3412 15.2828 78.5334 14.8751C77.6961 14.4385 76.729 14.2205 75.632 14.2212H71.8643V24.5409H75.632Z" fill="#5A475D"/>
<path d="M85.9419 24.8124C85.2753 24.4342 84.7262 23.8791 84.3554 23.2083C83.9765 22.4948 83.7783 21.6992 83.7783 20.8913C83.7783 20.0834 83.9765 19.2878 84.3554 18.5743C84.7268 17.904 85.2757 17.349 85.9419 16.9702C86.6372 16.5915 87.4163 16.3931 88.2081 16.3931C88.9999 16.3931 89.779 16.5915 90.4743 16.9702C91.1405 17.349 91.6895 17.904 92.0608 18.5743C92.4397 19.2878 92.6379 20.0834 92.6379 20.8913C92.6379 21.6992 92.4397 22.4948 92.0608 23.2083C91.69 23.8791 91.141 24.4342 90.4743 24.8124C89.779 25.1911 88.9999 25.3896 88.2081 25.3896C87.4163 25.3896 86.6372 25.1911 85.9419 24.8124ZM90.0329 24.1502C90.5699 23.8331 91.0099 23.3751 91.3054 22.8259C91.6125 22.2273 91.7727 21.5641 91.7727 20.8913C91.7727 20.2185 91.6125 19.5553 91.3054 18.9567C91.0099 18.4075 90.5699 17.9495 90.0329 17.6324C89.475 17.3212 88.8469 17.1579 88.2081 17.1579C87.5693 17.1579 86.9412 17.3212 86.3833 17.6324C85.846 17.9491 85.4059 18.4072 85.1108 18.9567C84.8037 19.5553 84.6435 20.2185 84.6435 20.8913C84.6435 21.5641 84.8037 22.2273 85.1108 22.8259C85.4059 23.3755 85.846 23.8335 86.3833 24.1502C86.9412 24.4614 87.5693 24.6247 88.2081 24.6247C88.8469 24.6247 89.475 24.4614 90.0329 24.1502Z" fill="#5A475D"/>
<path d="M107.676 16.4614L104.315 25.3211H103.517L100.53 17.6324L97.525 25.3211H96.7447L93.3843 16.4614H94.1987L97.152 24.3709L100.173 16.4614H100.898L103.903 24.3533L106.889 16.4614H107.676Z" fill="#5A475D"/>
<path d="M116.606 17.361C117.252 18.0069 117.575 18.9346 117.574 20.1443V25.3254H116.725V20.2168C116.725 19.2213 116.474 18.4614 115.97 17.9371C115.466 17.4128 114.762 17.1527 113.857 17.1568C112.816 17.1568 111.996 17.4677 111.396 18.0894C110.796 18.7112 110.497 19.5488 110.497 20.6023V25.3202H109.648V16.4605H110.462V18.3785C110.76 17.7647 111.236 17.2556 111.829 16.9185C112.434 16.5683 113.15 16.3928 113.976 16.3921C115.083 16.3955 115.96 16.7185 116.606 17.361Z" fill="#5A475D"/>
<path d="M121.067 12.728H121.916V25.3212H121.067V12.728Z" fill="#5A475D"/>
<path d="M126.693 24.8124C126.026 24.4342 125.477 23.8791 125.106 23.2083C124.727 22.4948 124.529 21.6992 124.529 20.8913C124.529 20.0834 124.727 19.2878 125.106 18.5743C125.478 17.904 126.027 17.349 126.693 16.9702C127.388 16.5915 128.167 16.3931 128.959 16.3931C129.751 16.3931 130.53 16.5915 131.225 16.9702C131.892 17.349 132.44 17.904 132.812 18.5743C133.191 19.2878 133.389 20.0834 133.389 20.8913C133.389 21.6992 133.191 22.4948 132.812 23.2083C132.441 23.8791 131.892 24.4342 131.225 24.8124C130.53 25.1911 129.751 25.3896 128.959 25.3896C128.167 25.3896 127.388 25.1911 126.693 24.8124ZM130.784 24.1502C131.321 23.832 131.761 23.3725 132.056 22.8218C132.363 22.2232 132.524 21.56 132.524 20.8872C132.524 20.2143 132.363 19.5512 132.056 18.9525C131.761 18.4033 131.321 17.9454 130.784 17.6282C130.226 17.3171 129.598 17.1537 128.959 17.1537C128.32 17.1537 127.692 17.3171 127.134 17.6282C126.597 17.9454 126.157 18.4033 125.862 18.9525C125.555 19.5512 125.395 20.2143 125.395 20.8872C125.395 21.56 125.555 22.2232 125.862 22.8218C126.157 23.371 126.597 23.829 127.134 24.1461C127.692 24.4573 128.32 24.6206 128.959 24.6206C129.598 24.6206 130.226 24.4573 130.784 24.1461V24.1502Z" fill="#5A475D"/>
<path d="M141.502 17.2332C142.09 17.7941 142.384 18.6176 142.384 19.7035V25.3209H141.57V23.7427C141.286 24.2627 140.853 24.6854 140.326 24.9561C139.783 25.2442 139.133 25.3886 138.375 25.3893C137.391 25.3893 136.613 25.1572 136.041 24.6929C135.777 24.4719 135.565 24.1971 135.416 23.8869C135.268 23.5768 135.188 23.2385 135.182 22.8949C135.176 22.5512 135.243 22.2102 135.379 21.8947C135.516 21.5793 135.718 21.2968 135.973 21.0661C136.5 20.6081 137.34 20.3791 138.493 20.3791H141.532V19.6662C141.532 18.8372 141.308 18.2093 140.861 17.7824C140.414 17.3554 139.761 17.1402 138.901 17.1368C138.324 17.135 137.752 17.2385 137.213 17.4425C136.71 17.6255 136.246 17.9018 135.846 18.2569L135.422 17.6466C135.887 17.2356 136.429 16.9211 137.017 16.7213C137.644 16.4997 138.304 16.3875 138.969 16.3897C140.069 16.3945 140.914 16.6757 141.502 17.2332ZM140.373 24.1841C140.904 23.8242 141.31 23.3082 141.536 22.7075V21.0433H138.515C137.643 21.0433 137.012 21.2019 136.622 21.519C136.232 21.8361 136.036 22.2716 136.036 22.8257C136.026 23.0886 136.079 23.3502 136.192 23.5882C136.304 23.8261 136.472 24.0334 136.682 24.1924C137.111 24.5261 137.716 24.6929 138.497 24.6929C139.233 24.6929 139.858 24.5233 140.373 24.1841Z" fill="#5A475D"/>
<path d="M153.773 12.728V25.3212H152.944V23.2364C152.617 23.9006 152.104 24.4552 151.467 24.8321C150.812 25.211 150.067 25.4048 149.311 25.3927C148.526 25.4031 147.752 25.2039 147.07 24.8156C146.41 24.4382 145.867 23.886 145.5 23.2198C145.113 22.507 144.917 21.7058 144.931 20.8945C144.917 20.0807 145.113 19.2769 145.5 18.5609C145.864 17.8923 146.408 17.3394 147.07 16.9651C147.754 16.5817 148.527 16.3855 149.311 16.3963C150.059 16.3848 150.795 16.5787 151.441 16.9569C152.07 17.3311 152.584 17.8714 152.926 18.5184V12.7311L153.773 12.728ZM151.182 24.1503C151.721 23.8328 152.163 23.3733 152.46 22.8219C152.766 22.223 152.926 21.5599 152.926 20.8872C152.926 20.2146 152.766 19.5515 152.46 18.9526C152.164 18.4033 151.723 17.9453 151.186 17.6283C150.628 17.3172 150 17.1538 149.362 17.1538C148.723 17.1538 148.095 17.3172 147.538 17.6283C147 17.9453 146.56 18.4033 146.264 18.9526C145.958 19.5515 145.798 20.2146 145.798 20.8872C145.798 21.5599 145.958 22.223 146.264 22.8219C146.56 23.3712 147 23.8292 147.538 24.1462C148.095 24.4573 148.723 24.6207 149.362 24.6207C150 24.6207 150.628 24.4573 151.186 24.1462L151.182 24.1503Z" fill="#5A475D"/>
<path d="M162.912 24.8124C162.245 24.4347 161.695 23.8794 161.325 23.2083C160.946 22.4948 160.748 21.6992 160.748 20.8913C160.748 20.0834 160.946 19.2878 161.325 18.5743C161.696 17.9038 162.245 17.3487 162.912 16.9702C163.607 16.5915 164.386 16.3931 165.177 16.3931C165.969 16.3931 166.748 16.5915 167.443 16.9702C168.109 17.3489 168.659 17.9039 169.031 18.5743C169.409 19.2878 169.608 20.0834 169.608 20.8913C169.608 21.6992 169.409 22.4948 169.031 23.2083C168.659 23.8791 168.11 24.4343 167.443 24.8124C166.748 25.1911 165.969 25.3896 165.177 25.3896C164.386 25.3896 163.607 25.1911 162.912 24.8124ZM167.002 24.1502C167.539 23.8332 167.979 23.3753 168.275 22.8259C168.581 22.2271 168.741 21.564 168.741 20.8913C168.741 20.2186 168.581 19.5556 168.275 18.9567C167.979 18.4073 167.539 17.9494 167.002 17.6324C166.444 17.3212 165.816 17.1579 165.177 17.1579C164.539 17.1579 163.911 17.3212 163.353 17.6324C162.816 17.9494 162.375 18.4073 162.08 18.9567C161.773 19.5556 161.613 20.2186 161.613 20.8913C161.613 21.564 161.773 22.2271 162.08 22.8259C162.375 23.3753 162.816 23.8332 163.353 24.1502C163.911 24.4614 164.539 24.6248 165.177 24.6248C165.816 24.6248 166.444 24.4614 167.002 24.1502Z" fill="#5A475D"/>
<path d="M179.194 17.361C179.839 18.0069 180.161 18.9346 180.162 20.1443V25.3254H179.312V20.2168C179.312 19.2213 179.061 18.4614 178.558 17.9371C178.055 17.4128 177.35 17.1527 176.444 17.1568C175.404 17.1568 174.583 17.4677 173.983 18.0894C173.383 18.7112 173.083 19.5488 173.084 20.6023V25.3202H172.235V16.4605H173.05V18.3785C173.347 17.7648 173.824 17.2557 174.416 16.9185C175.021 16.5683 175.737 16.3928 176.563 16.3921C177.674 16.3955 178.551 16.7185 179.194 17.361Z" fill="#5A475D"/>
<path d="M192.418 24.7603C192.187 24.9734 191.912 25.133 191.612 25.2276C191.286 25.3359 190.945 25.3906 190.602 25.3893C189.833 25.3893 189.239 25.1768 188.82 24.752C188.402 24.3271 188.192 23.7362 188.191 22.979V17.1907H186.562V16.4653H188.191V14.5317H189.038V16.4664H191.856V17.1917H189.038V22.8909C189.038 23.4678 189.176 23.9061 189.453 24.2059C189.729 24.5057 190.139 24.6556 190.683 24.6556C191.187 24.6739 191.679 24.4977 192.058 24.1634L192.418 24.7603Z" fill="#5A475D"/>
<path d="M201.736 17.361C202.38 18.0069 202.703 18.9347 202.703 20.1443V25.3254H201.855V20.2168C201.855 19.2213 201.603 18.4614 201.099 17.9371C200.596 17.4128 199.891 17.1527 198.986 17.1568C197.945 17.1568 197.124 17.4677 196.525 18.0894C195.927 18.7112 195.627 19.5488 195.626 20.6023V25.3202H194.777V12.728H195.626V18.3112C195.922 17.7103 196.396 17.2156 196.983 16.8947C197.582 16.561 198.289 16.3938 199.105 16.3931C200.213 16.3959 201.09 16.7185 201.736 17.361Z" fill="#5A475D"/>
<path d="M213.7 21.0955H206.08C206.091 21.7447 206.272 22.3796 206.605 22.9369C206.927 23.4656 207.388 23.8957 207.938 24.1803C208.478 24.447 209.07 24.5961 209.672 24.6179C210.275 24.6397 210.875 24.5337 211.434 24.3067C211.915 24.1064 212.338 23.7886 212.665 23.3824L213.157 23.942C212.767 24.4105 212.269 24.7774 211.706 25.0114C211.026 25.2881 210.293 25.4129 209.559 25.3772C208.825 25.3414 208.108 25.1458 207.458 24.8041C206.78 24.4323 206.219 23.8799 205.836 23.2084C205.438 22.4989 205.236 21.6964 205.251 20.8831C205.238 20.0768 205.428 19.2803 205.802 18.5661C206.151 17.9019 206.677 17.3469 207.321 16.962C207.981 16.5851 208.728 16.3862 209.488 16.3848C210.249 16.3833 210.996 16.5794 211.658 16.9537C212.298 17.3336 212.821 17.883 213.169 18.5412C213.544 19.2517 213.733 20.0455 213.72 20.8489L213.7 21.0955ZM207.81 17.5558C207.314 17.8323 206.901 18.237 206.614 18.7277C206.309 19.2473 206.132 19.8318 206.096 20.4334H212.886C212.862 19.8336 212.686 19.2497 212.376 18.736C212.082 18.2486 211.667 17.8453 211.172 17.5651C210.659 17.2783 210.079 17.1317 209.491 17.1402C208.905 17.1317 208.326 17.2748 207.811 17.5558H207.81Z" fill="#5A475D"/>
<path d="M83.5641 51.5864H73.4091L71.4082 56.2846H67.5244L76.6608 35.9819H80.3736L89.539 56.2846H85.594L83.5641 51.5864ZM82.3206 48.628L78.4928 39.7517L74.6888 48.6238L82.3206 48.628Z" fill="#5A475D"/>
<path d="M104.404 41.6084C105.581 42.2536 106.551 43.219 107.202 44.3928C107.879 45.592 108.217 46.9736 108.217 48.5376C108.217 50.1016 107.879 51.4888 107.202 52.6991C106.554 53.8788 105.583 54.8494 104.404 55.4969C103.214 56.1553 101.867 56.4841 100.363 56.4834C98.2742 56.4834 96.6211 55.7874 95.4031 54.3954V61.907H91.7764V40.796H95.228V42.826C95.8173 42.0966 96.5801 41.5265 97.4466 41.168C98.3718 40.7921 99.3628 40.6047 100.361 40.6168C101.865 40.6202 103.213 40.9508 104.404 41.6084ZM103.239 52.0494C104.099 51.1603 104.529 49.9908 104.53 48.5407C104.531 47.0907 104.101 45.9208 103.239 45.0311C102.379 44.142 101.282 43.6971 99.947 43.6964C99.1252 43.6845 98.3149 43.8897 97.5979 44.2912C96.899 44.6907 96.3263 45.2785 95.9451 45.9875C95.5389 46.7232 95.3358 47.5743 95.3358 48.5407C95.3358 49.5072 95.5389 50.3579 95.9451 51.093C96.326 51.8022 96.8987 52.3901 97.5979 52.7893C98.3148 53.1911 99.1252 53.3963 99.947 53.384C101.284 53.384 102.382 52.9392 103.239 52.0494Z" fill="#5A475D"/>
<path d="M124.3 41.6084C125.477 42.2536 126.447 43.219 127.098 44.3928C127.774 45.592 128.113 46.9736 128.114 48.5376C128.114 50.1016 127.776 51.4888 127.098 52.6991C126.451 53.8788 125.48 54.8494 124.3 55.4969C123.112 56.1553 121.765 56.4841 120.259 56.4834C118.171 56.4834 116.518 55.7874 115.3 54.3954V61.907H111.673V40.796H115.125V42.826C115.714 42.0966 116.477 41.5265 117.343 41.168C118.268 40.7921 119.259 40.6047 120.258 40.6168C121.761 40.6202 123.109 40.9508 124.3 41.6084ZM123.141 52.0494C124.001 51.1603 124.431 49.9908 124.431 48.5407C124.431 47.0907 124.001 45.9208 123.141 45.0311C122.28 44.142 121.183 43.6971 119.849 43.6964C119.027 43.6844 118.216 43.8896 117.498 44.2912C116.8 44.691 116.227 45.2787 115.846 45.9875C115.44 46.7232 115.236 47.5743 115.236 48.5407C115.236 49.5072 115.44 50.3579 115.846 51.093C116.227 51.802 116.8 52.3898 117.498 52.7893C118.216 53.1912 119.027 53.3964 119.849 53.384C121.183 53.384 122.28 52.9392 123.141 52.0494Z" fill="#5A475D"/>
<path d="M141.673 55.9072C140.213 55.4631 139.057 54.8734 138.207 54.1384L139.513 51.209C140.342 51.866 141.362 52.4024 142.573 52.8183C143.742 53.2272 144.973 53.4373 146.212 53.44C147.721 53.44 148.847 53.1982 149.591 52.7146C150.335 52.2311 150.707 51.5928 150.708 50.7997C150.715 50.5295 150.663 50.2609 150.556 50.0128C150.449 49.7647 150.288 49.5431 150.086 49.3635C149.627 48.9619 149.089 48.6608 148.506 48.4796C147.868 48.2661 146.997 48.0244 145.895 47.7542C144.348 47.3874 143.096 47.0199 142.14 46.6517C141.188 46.2887 140.341 45.696 139.673 44.9264C138.987 44.143 138.644 43.0843 138.644 41.7504C138.635 40.6617 138.953 39.5954 139.558 38.6904C140.166 37.7723 141.085 37.0425 142.314 36.5009C143.543 35.9593 145.046 35.6885 146.823 35.6885C148.056 35.6877 149.284 35.8437 150.478 36.1527C151.582 36.419 152.633 36.8699 153.587 37.4863L152.397 40.4157C151.524 39.9007 150.588 39.5012 149.613 39.2272C148.698 38.964 147.751 38.8273 146.799 38.821C145.311 38.821 144.205 39.0724 143.483 39.5753C142.762 40.0783 142.395 40.7456 142.384 41.5773C142.376 41.8454 142.427 42.112 142.535 42.3577C142.642 42.6035 142.803 42.8222 143.006 42.998C143.469 43.3921 144.007 43.6882 144.587 43.8684C145.225 44.0819 146.095 44.3237 147.197 44.5938C148.706 44.9392 149.944 45.3015 150.91 45.6808C151.863 46.049 152.714 46.6411 153.39 47.4071C154.076 48.1815 154.419 49.2257 154.42 50.5396C154.431 51.6239 154.112 52.6861 153.506 53.5851C152.897 54.4935 151.973 55.2188 150.736 55.7611C149.499 56.3034 147.99 56.5742 146.211 56.5735C144.674 56.5777 143.144 56.3532 141.673 55.9072Z" fill="#5A475D"/>
<path d="M167.124 55.4432C166.665 55.8086 166.136 56.0753 165.569 56.2266C164.942 56.4032 164.293 56.4911 163.641 56.4877C161.939 56.4877 160.624 56.0429 159.696 55.1531C158.768 54.2633 158.304 52.968 158.303 51.2673V43.8127H155.754V40.9112H158.307V37.3726H161.933V40.9112H166.078V43.8127H161.933V51.1802C161.933 51.9332 162.117 52.5083 162.485 52.9055C162.852 53.3027 163.384 53.501 164.079 53.5003C164.892 53.5003 165.569 53.2875 166.11 52.862L167.124 55.4432Z" fill="#5A475D"/>
<path d="M172.316 55.4722C171.089 54.8244 170.069 53.8445 169.372 52.6443C168.667 51.4361 168.314 50.0683 168.313 48.5409C168.313 47.0135 168.666 45.6502 169.372 44.4509C170.073 43.2573 171.092 42.2829 172.316 41.6376C173.573 40.9606 174.985 40.6221 176.551 40.6221C178.135 40.6221 179.556 40.9606 180.814 41.6376C182.039 42.2829 183.058 43.2573 183.758 44.4509C184.464 45.6502 184.817 47.0135 184.817 48.5409C184.817 50.0683 184.464 51.4361 183.758 52.6443C183.062 53.8445 182.042 54.8244 180.814 55.4722C179.557 56.1499 178.136 56.4884 176.551 56.4877C174.985 56.4877 173.573 56.1492 172.316 55.4722ZM179.858 52.0526C180.727 51.1636 181.162 49.994 181.163 48.544C181.163 47.094 180.728 45.9241 179.858 45.0343C178.988 44.1452 177.885 43.7003 176.551 43.6996C175.217 43.699 174.12 44.1438 173.259 45.0343C172.399 45.9234 171.968 47.0933 171.968 48.544C171.968 49.9947 172.399 51.1642 173.259 52.0526C174.119 52.9431 175.217 53.388 176.551 53.3873C177.886 53.3866 178.988 52.9407 179.858 52.0495V52.0526Z" fill="#5A475D"/>
<path d="M197.261 40.6221V44.0737C196.984 44.019 196.702 43.9899 196.419 43.9867C195.007 43.9867 193.904 44.3977 193.113 45.2198C192.321 46.0419 191.925 47.2263 191.923 48.773V56.2846H188.296V40.7961H191.748V43.0582C192.793 41.4348 194.631 40.6228 197.261 40.6221Z" fill="#5A475D"/>
<path d="M214.692 49.7004H202.539C202.719 50.7876 203.317 51.7611 204.206 52.4122C205.104 53.0795 206.221 53.4132 207.556 53.4132C209.258 53.4132 210.66 52.8526 211.762 51.7314L213.705 53.9645C212.998 54.8043 212.09 55.4526 211.066 55.8493C210.003 56.2749 208.804 56.4877 207.469 56.4877C205.768 56.4877 204.269 56.1492 202.974 55.4722C201.721 54.8381 200.678 53.8563 199.969 52.6443C199.262 51.4361 198.909 50.0683 198.91 48.5409C198.91 47.0321 199.253 45.6736 199.94 44.4654C200.609 43.274 201.599 42.2942 202.797 41.6376C204.015 40.9606 205.388 40.6221 206.916 40.6221C208.424 40.6221 209.771 40.9557 210.957 41.6231C212.134 42.2771 213.1 43.253 213.742 44.4364C214.409 45.6446 214.743 47.0418 214.743 48.6279C214.747 48.8787 214.731 49.2362 214.692 49.7004ZM203.974 44.5525C203.172 45.2384 202.684 46.152 202.51 47.2933H211.298C211.143 46.1721 210.67 45.2633 209.878 44.567C209.085 43.8706 208.099 43.5225 206.919 43.5225C205.759 43.5225 204.777 43.8658 203.974 44.5525Z" fill="#5A475D"/>
</svg>
