<svg width="250" height="77" viewBox="0 0 250 77" fill="none" xmlns="http://www.w3.org/2000/svg">
<path d="M240.336 0.819336H9.66381C4.32663 0.819336 0 5.14597 0 10.4831V67.1831C0 72.5203 4.32663 76.8469 9.66381 76.8469H240.336C245.673 76.8469 250 72.5203 250 67.1831V10.4831C250 5.14597 245.673 0.819336 240.336 0.819336Z" fill="#E5EFF3"/>
<path d="M83.5641 54.1943H73.4091L71.4082 58.8925H67.5244L76.6608 38.5898H80.3736L89.539 58.8925H85.594L83.5641 54.1943ZM82.3206 51.2359L78.4928 42.3596L74.6888 51.2318L82.3206 51.2359Z" fill="#5A475D"/>
<path d="M104.404 44.2163C105.581 44.8615 106.551 45.8269 107.202 47.0007C107.879 48.1999 108.217 49.5816 108.217 51.1456C108.217 52.7096 107.879 54.0967 107.202 55.307C106.554 56.4867 105.583 57.4573 104.404 58.1048C103.214 58.7632 101.867 59.092 100.363 59.0913C98.2742 59.0913 96.6211 58.3953 95.4031 57.0033V64.5149H91.7764V43.4039H95.228V45.4339C95.8173 44.7045 96.5801 44.1345 97.4466 43.7759C98.3718 43.4001 99.3628 43.2126 100.361 43.2247C101.865 43.2281 103.213 43.5587 104.404 44.2163ZM103.239 54.6573C104.099 53.7682 104.529 52.5987 104.53 51.1487C104.531 49.6986 104.101 48.5287 103.239 47.639C102.379 46.7499 101.282 46.305 99.947 46.3043C99.1252 46.2924 98.3149 46.4976 97.5979 46.8991C96.899 47.2986 96.3263 47.8864 95.9451 48.5954C95.5389 49.3311 95.3358 50.1822 95.3358 51.1487C95.3358 52.1151 95.5389 52.9658 95.9451 53.7009C96.326 54.4102 96.8987 54.998 97.5979 55.3972C98.3148 55.799 99.1252 56.0042 99.947 55.992C101.284 55.992 102.382 55.5471 103.239 54.6573Z" fill="#5A475D"/>
<path d="M124.3 44.2163C125.477 44.8615 126.447 45.8269 127.098 47.0007C127.774 48.1999 128.113 49.5816 128.114 51.1456C128.114 52.7096 127.776 54.0967 127.098 55.307C126.451 56.4867 125.48 57.4573 124.3 58.1048C123.112 58.7632 121.765 59.092 120.259 59.0913C118.171 59.0913 116.518 58.3953 115.3 57.0033V64.5149H111.673V43.4039H115.125V45.4339C115.714 44.7045 116.477 44.1345 117.343 43.7759C118.268 43.4001 119.259 43.2126 120.258 43.2247C121.761 43.2281 123.109 43.5587 124.3 44.2163ZM123.141 54.6573C124.001 53.7682 124.431 52.5987 124.431 51.1487C124.431 49.6986 124.001 48.5287 123.141 47.639C122.28 46.7499 121.183 46.305 119.849 46.3043C119.027 46.2923 118.216 46.4975 117.498 46.8991C116.8 47.2989 116.227 47.8866 115.846 48.5954C115.44 49.3311 115.236 50.1822 115.236 51.1487C115.236 52.1151 115.44 52.9658 115.846 53.7009C116.227 54.4099 116.8 54.9977 117.498 55.3972C118.216 55.7992 119.027 56.0044 119.849 55.992C121.183 55.992 122.28 55.5471 123.141 54.6573Z" fill="#5A475D"/>
<path d="M141.673 58.5152C140.213 58.071 139.057 57.4813 138.207 56.7463L139.513 53.8169C140.342 54.4739 141.362 55.0103 142.573 55.4262C143.742 55.8351 144.973 56.0452 146.212 56.0479C147.721 56.0479 148.847 55.8061 149.591 55.3225C150.335 54.839 150.707 54.2007 150.708 53.4076C150.715 53.1374 150.663 52.8688 150.556 52.6207C150.449 52.3726 150.288 52.151 150.086 51.9714C149.627 51.5698 149.089 51.2687 148.506 51.0875C147.868 50.874 146.997 50.6323 145.895 50.3622C144.348 49.9953 143.096 49.6278 142.14 49.2596C141.188 48.8967 140.341 48.304 139.673 47.5343C138.987 46.7509 138.644 45.6923 138.644 44.3583C138.635 43.2696 138.953 42.2033 139.558 41.2983C140.166 40.3802 141.085 39.6504 142.314 39.1088C143.543 38.5672 145.046 38.2964 146.823 38.2964C148.056 38.2957 149.284 38.4516 150.478 38.7606C151.582 39.027 152.633 39.4778 153.587 40.0942L152.397 43.0236C151.524 42.5086 150.588 42.1091 149.613 41.8351C148.698 41.5719 147.751 41.4352 146.799 41.4289C145.311 41.4289 144.205 41.6803 143.483 42.1833C142.762 42.6862 142.395 43.3535 142.384 44.1852C142.376 44.4533 142.427 44.7199 142.535 44.9656C142.642 45.2114 142.803 45.4301 143.006 45.6059C143.469 46 144.007 46.2961 144.587 46.4763C145.225 46.6898 146.095 46.9316 147.197 47.2017C148.706 47.5471 149.944 47.9094 150.91 48.2887C151.863 48.6569 152.714 49.249 153.39 50.015C154.076 50.7894 154.419 51.8336 154.42 53.1475C154.431 54.2319 154.112 55.294 153.506 56.193C152.897 57.1014 151.973 57.8268 150.736 58.369C149.499 58.9113 147.99 59.1821 146.211 59.1814C144.674 59.1856 143.144 58.9611 141.673 58.5152Z" fill="#5A475D"/>
<path d="M167.123 58.0511C166.665 58.4165 166.136 58.6832 165.569 58.8345C164.942 59.0111 164.292 59.099 163.641 59.0957C161.938 59.0957 160.623 58.6508 159.696 57.761C158.768 56.8712 158.304 55.576 158.303 53.8752V46.4206H155.754V43.5192H158.306V39.9805H161.933V43.5192H166.078V46.4206H161.933V53.7881C161.933 54.5411 162.117 55.1162 162.484 55.5134C162.852 55.9106 163.383 56.1089 164.079 56.1082C164.891 56.1082 165.568 55.8955 166.11 55.4699L167.123 58.0511Z" fill="#5A475D"/>
<path d="M172.316 58.0801C171.089 57.4324 170.069 56.4524 169.372 55.2522C168.667 54.044 168.314 52.6762 168.313 51.1488C168.313 49.6214 168.666 48.2581 169.372 47.0588C170.073 45.8652 171.092 44.8908 172.316 44.2455C173.573 43.5685 174.985 43.23 176.551 43.23C178.135 43.23 179.556 43.5685 180.814 44.2455C182.039 44.8908 183.058 45.8652 183.758 47.0588C184.464 48.2581 184.817 49.6214 184.817 51.1488C184.817 52.6762 184.464 54.044 183.758 55.2522C183.062 56.4524 182.042 57.4324 180.814 58.0801C179.557 58.7578 178.136 59.0963 176.551 59.0956C174.985 59.0956 173.573 58.7571 172.316 58.0801ZM179.858 54.6605C180.727 53.7715 181.162 52.6019 181.163 51.1519C181.163 49.7019 180.728 48.532 179.858 47.6422C178.988 46.7531 177.885 46.3082 176.551 46.3076C175.217 46.3069 174.12 46.7517 173.259 47.6422C172.399 48.5313 171.968 49.7012 171.968 51.1519C171.968 52.6026 172.399 53.7722 173.259 54.6605C174.119 55.551 175.217 55.9959 176.551 55.9952C177.886 55.9945 178.988 55.5486 179.858 54.6574V54.6605Z" fill="#5A475D"/>
<path d="M197.261 43.23V46.6816C196.984 46.6269 196.702 46.5978 196.42 46.5946C195.007 46.5946 193.905 47.0056 193.113 47.8277C192.322 48.6498 191.925 49.8342 191.924 51.3809V58.8925H188.297V43.4041H191.749V45.6661C192.794 44.0427 194.631 43.2307 197.261 43.23Z" fill="#5A475D"/>
<path d="M214.692 52.3083H202.539C202.719 53.3955 203.317 54.369 204.206 55.0201C205.104 55.6874 206.221 56.0211 207.556 56.0211C209.258 56.0211 210.66 55.4605 211.762 54.3393L213.705 56.5724C212.998 57.4123 212.09 58.0605 211.066 58.4573C210.003 58.8828 208.804 59.0956 207.469 59.0956C205.768 59.0956 204.269 58.7571 202.974 58.0801C201.721 57.4461 200.678 56.4642 199.969 55.2522C199.262 54.044 198.909 52.6762 198.91 51.1488C198.91 49.64 199.253 48.2816 199.94 47.0733C200.609 45.8819 201.599 44.9021 202.797 44.2455C204.015 43.5685 205.388 43.23 206.916 43.23C208.424 43.23 209.771 43.5636 210.957 44.231C212.134 44.885 213.1 45.8609 213.742 47.0443C214.409 48.2525 214.743 49.6497 214.743 51.2358C214.747 51.4866 214.731 51.8441 214.692 52.3083ZM203.974 47.1604C203.172 47.8463 202.684 48.76 202.51 49.9012H211.298C211.143 48.78 210.67 47.8712 209.878 47.1749C209.085 46.4785 208.099 46.1304 206.919 46.1304C205.759 46.1304 204.777 46.4737 203.974 47.1604Z" fill="#5A475D"/>
<path d="M15.5205 31.8843C11.4647 38.9213 14.0428 49.6037 18.5255 56.077C20.7637 59.3152 23.03 62.2218 26.1345 62.2218C26.1925 62.2218 26.2516 62.2218 26.3117 62.2218C27.7696 62.1638 28.8245 61.7141 29.8431 61.2809C30.983 60.7929 32.1705 60.2892 34.0274 60.2892C35.789 60.2892 36.9195 60.7773 38.0085 61.2477C39.0976 61.7182 40.1846 62.1938 41.8229 62.1627C45.3201 62.0975 47.4672 58.9618 49.3614 56.1951C50.782 54.1084 51.8965 51.8291 52.6711 49.4265L52.6846 49.384C52.7152 49.2923 52.7111 49.1925 52.6729 49.1036C52.6346 49.0147 52.565 48.943 52.4773 48.9022L52.4493 48.8898C51.8328 48.638 46.431 46.2412 46.375 39.7109C46.3222 34.4044 50.4266 31.5952 51.2504 31.0854L51.2888 31.0605C51.3329 31.0322 51.3708 30.9952 51.4004 30.9519C51.43 30.9086 51.4505 30.8598 51.4608 30.8084C51.4712 30.7569 51.4711 30.704 51.4606 30.6526C51.4501 30.6012 51.4294 30.5525 51.3996 30.5093C48.5666 26.3644 44.2248 25.7426 42.4757 25.6629C42.2229 25.638 41.9576 25.6245 41.6975 25.6245C39.6447 25.6245 37.677 26.3996 36.1019 27.0234C35.0108 27.4545 34.0678 27.8254 33.4191 27.8254C32.6886 27.8254 31.7404 27.4493 30.6441 27.0141C29.1758 26.4317 27.5127 25.7706 25.7521 25.7706H25.6278C21.5212 25.8328 17.652 28.1757 15.5205 31.8843Z" fill="#5A475D"/>
<path d="M42.4727 14.2508C39.993 14.3544 37.019 15.8776 35.2419 17.9594C33.73 19.7096 32.2555 22.6224 32.6441 25.5684C32.6557 25.6577 32.6976 25.7403 32.7629 25.8024C32.8282 25.8645 32.9128 25.9022 33.0026 25.9093C33.1705 25.9217 33.3415 25.929 33.5114 25.929C35.9351 25.929 38.5506 24.5871 40.337 22.4276C42.2167 20.1479 43.1669 17.2216 42.8799 14.6C42.8685 14.5012 42.8202 14.4103 42.7447 14.3456C42.6692 14.2808 42.572 14.247 42.4727 14.2508Z" fill="#5A475D"/>
<path d="M72.8941 17.1553H68.5381V16.0753H78.4381V17.1553H74.0821V28.8193H72.8941V17.1553ZM87.0581 27.2533C86.6381 27.8893 86.1161 28.3453 85.4921 28.6213C84.8801 28.8973 84.2021 29.0353 83.4581 29.0353C82.8221 29.0353 82.2461 28.9273 81.7301 28.7113C81.2141 28.4953 80.7701 28.1953 80.3981 27.8113C80.0261 27.4153 79.7381 26.9533 79.5341 26.4253C79.3421 25.8853 79.2461 25.2913 79.2461 24.6433C79.2461 24.0193 79.3481 23.4433 79.5521 22.9153C79.7561 22.3873 80.0441 21.9313 80.4161 21.5473C80.7881 21.1513 81.2261 20.8453 81.7301 20.6293C82.2341 20.4013 82.7921 20.2873 83.4041 20.2873C84.0401 20.2873 84.5981 20.4013 85.0781 20.6293C85.5701 20.8453 85.9781 21.1393 86.3021 21.5113C86.6381 21.8713 86.8901 22.2853 87.0581 22.7533C87.2261 23.2213 87.3101 23.6953 87.3101 24.1753V24.9313H80.3261C80.3261 25.1593 80.3681 25.4533 80.4521 25.8133C80.5481 26.1613 80.7161 26.5033 80.9561 26.8393C81.1961 27.1753 81.5141 27.4633 81.9101 27.7033C82.3181 27.9433 82.8401 28.0633 83.4761 28.0633C84.0281 28.0633 84.5621 27.9313 85.0781 27.6673C85.5941 27.4033 85.9901 27.0433 86.2661 26.5873L87.0581 27.2533ZM86.2301 23.9593C86.2301 23.5873 86.1521 23.2393 85.9961 22.9153C85.8521 22.5913 85.6481 22.3093 85.3841 22.0693C85.1321 21.8173 84.8261 21.6193 84.4661 21.4753C84.1181 21.3313 83.7461 21.2593 83.3501 21.2593C82.7621 21.2593 82.2701 21.3793 81.8741 21.6193C81.4901 21.8593 81.1841 22.1353 80.9561 22.4473C80.7281 22.7593 80.5661 23.0653 80.4701 23.3653C80.3741 23.6533 80.3261 23.8513 80.3261 23.9593H86.2301ZM84.1061 16.0753H85.5461L83.1341 18.6673H82.2341L84.1061 16.0753ZM91.5161 15.2113H92.5961V28.8193H91.5161V15.2113ZM104.624 27.2533C104.204 27.8893 103.682 28.3453 103.058 28.6213C102.446 28.8973 101.768 29.0353 101.024 29.0353C100.388 29.0353 99.8123 28.9273 99.2963 28.7113C98.7803 28.4953 98.3363 28.1953 97.9643 27.8113C97.5923 27.4153 97.3043 26.9533 97.1003 26.4253C96.9083 25.8853 96.8123 25.2913 96.8123 24.6433C96.8123 24.0193 96.9143 23.4433 97.1183 22.9153C97.3223 22.3873 97.6103 21.9313 97.9823 21.5473C98.3543 21.1513 98.7923 20.8453 99.2963 20.6293C99.8003 20.4013 100.358 20.2873 100.97 20.2873C101.606 20.2873 102.164 20.4013 102.644 20.6293C103.136 20.8453 103.544 21.1393 103.868 21.5113C104.204 21.8713 104.456 22.2853 104.624 22.7533C104.792 23.2213 104.876 23.6953 104.876 24.1753V24.9313H97.8923C97.8923 25.1593 97.9343 25.4533 98.0183 25.8133C98.1143 26.1613 98.2823 26.5033 98.5223 26.8393C98.7623 27.1753 99.0803 27.4633 99.4763 27.7033C99.8843 27.9433 100.406 28.0633 101.042 28.0633C101.594 28.0633 102.128 27.9313 102.644 27.6673C103.16 27.4033 103.556 27.0433 103.832 26.5873L104.624 27.2533ZM103.796 23.9593C103.796 23.5873 103.718 23.2393 103.562 22.9153C103.418 22.5913 103.214 22.3093 102.95 22.0693C102.698 21.8173 102.392 21.6193 102.032 21.4753C101.684 21.3313 101.312 21.2593 100.916 21.2593C100.328 21.2593 99.8363 21.3793 99.4403 21.6193C99.0563 21.8593 98.7503 22.1353 98.5223 22.4473C98.2943 22.7593 98.1323 23.0653 98.0363 23.3653C97.9403 23.6533 97.8923 23.8513 97.8923 23.9593H103.796ZM101.672 16.0753H103.112L100.7 18.6673H99.8003L101.672 16.0753ZM115.868 27.5953C115.46 28.0873 114.998 28.4533 114.482 28.6933C113.966 28.9213 113.408 29.0353 112.808 29.0353C112.172 29.0353 111.584 28.9273 111.044 28.7113C110.504 28.4953 110.042 28.1953 109.658 27.8113C109.274 27.4153 108.974 26.9533 108.758 26.4253C108.542 25.8853 108.434 25.2973 108.434 24.6613C108.434 24.0253 108.542 23.4433 108.758 22.9153C108.974 22.3753 109.274 21.9133 109.658 21.5293C110.042 21.1333 110.504 20.8273 111.044 20.6113C111.584 20.3953 112.172 20.2873 112.808 20.2873C113.42 20.2873 113.984 20.4133 114.5 20.6653C115.028 20.9173 115.496 21.2713 115.904 21.7273L115.04 22.3753C114.728 22.0273 114.386 21.7573 114.014 21.5653C113.642 21.3613 113.24 21.2593 112.808 21.2593C112.304 21.2593 111.848 21.3493 111.44 21.5293C111.032 21.7093 110.684 21.9553 110.396 22.2673C110.108 22.5673 109.886 22.9273 109.73 23.3473C109.586 23.7553 109.514 24.1933 109.514 24.6613C109.514 25.1293 109.586 25.5733 109.73 25.9933C109.886 26.4013 110.108 26.7613 110.396 27.0733C110.684 27.3733 111.032 27.6133 111.44 27.7933C111.848 27.9733 112.304 28.0633 112.808 28.0633C113.264 28.0633 113.678 27.9613 114.05 27.7573C114.434 27.5413 114.764 27.2593 115.04 26.9113L115.868 27.5953ZM119.188 15.2113H120.268V21.9613H120.304C120.52 21.5053 120.88 21.1153 121.384 20.7913C121.888 20.4553 122.476 20.2873 123.148 20.2873C123.796 20.2873 124.324 20.3893 124.732 20.5933C125.14 20.7973 125.458 21.0673 125.686 21.4033C125.926 21.7273 126.088 22.1053 126.172 22.5373C126.268 22.9693 126.316 23.4133 126.316 23.8693V28.8193H125.236V23.9233C125.236 23.5873 125.206 23.2633 125.146 22.9513C125.086 22.6273 124.978 22.3393 124.822 22.0873C124.678 21.8353 124.468 21.6373 124.192 21.4933C123.928 21.3373 123.58 21.2593 123.148 21.2593C122.752 21.2593 122.374 21.3313 122.014 21.4753C121.666 21.6073 121.36 21.8173 121.096 22.1053C120.844 22.3813 120.64 22.7353 120.484 23.1673C120.34 23.5873 120.268 24.0853 120.268 24.6613V28.8193H119.188V15.2113ZM137.272 25.3273C137.272 25.7353 137.272 26.1013 137.272 26.4253C137.284 26.7493 137.296 27.0493 137.308 27.3253C137.32 27.6013 137.332 27.8593 137.344 28.0993C137.368 28.3393 137.398 28.5793 137.434 28.8193H136.426C136.354 28.4113 136.318 27.9613 136.318 27.4693H136.282C135.97 28.0093 135.58 28.4053 135.112 28.6573C134.656 28.9093 134.074 29.0353 133.366 29.0353C133.006 29.0353 132.652 28.9873 132.304 28.8913C131.956 28.8073 131.644 28.6693 131.368 28.4773C131.092 28.2733 130.864 28.0153 130.684 27.7033C130.516 27.3913 130.432 27.0133 130.432 26.5693C130.432 25.9333 130.594 25.4293 130.918 25.0573C131.242 24.6853 131.638 24.4093 132.106 24.2293C132.586 24.0373 133.09 23.9173 133.618 23.8693C134.158 23.8093 134.632 23.7793 135.04 23.7793H136.3V23.2753C136.3 22.5553 136.078 22.0393 135.634 21.7273C135.19 21.4153 134.632 21.2593 133.96 21.2593C133 21.2593 132.154 21.5713 131.422 22.1953L130.792 21.4573C131.188 21.0733 131.68 20.7853 132.268 20.5933C132.856 20.3893 133.42 20.2873 133.96 20.2873C134.968 20.2873 135.772 20.5273 136.372 21.0073C136.972 21.4753 137.272 22.2373 137.272 23.2933V25.3273ZM135.112 24.6433C134.656 24.6433 134.212 24.6733 133.78 24.7333C133.36 24.7933 132.976 24.8953 132.628 25.0393C132.292 25.1833 132.022 25.3753 131.818 25.6153C131.614 25.8553 131.512 26.1553 131.512 26.5153C131.512 26.7673 131.566 26.9953 131.674 27.1993C131.794 27.3913 131.944 27.5533 132.124 27.6853C132.304 27.8053 132.502 27.9013 132.718 27.9733C132.946 28.0333 133.174 28.0633 133.402 28.0633C133.978 28.0633 134.452 27.9793 134.824 27.8113C135.196 27.6433 135.49 27.4273 135.706 27.1633C135.934 26.8873 136.09 26.5813 136.174 26.2453C136.258 25.8973 136.3 25.5493 136.3 25.2013V24.6433H135.112ZM141.764 22.8433C141.764 22.6873 141.758 22.5013 141.746 22.2853C141.734 22.0573 141.722 21.8293 141.71 21.6013C141.71 21.3733 141.704 21.1633 141.692 20.9713C141.68 20.7673 141.674 20.6113 141.674 20.5033H142.754C142.766 20.8153 142.772 21.1153 142.772 21.4033C142.784 21.6913 142.802 21.8773 142.826 21.9613C143.102 21.4693 143.456 21.0673 143.888 20.7553C144.32 20.4433 144.848 20.2873 145.472 20.2873C145.58 20.2873 145.682 20.2993 145.778 20.3233C145.886 20.3353 145.994 20.3533 146.102 20.3773L145.976 21.4393C145.832 21.3913 145.694 21.3673 145.562 21.3673C145.094 21.3673 144.686 21.4453 144.338 21.6013C144.002 21.7453 143.72 21.9493 143.492 22.2133C143.276 22.4773 143.114 22.7893 143.006 23.1493C142.898 23.4973 142.844 23.8753 142.844 24.2833V28.8193H141.764V22.8433ZM157.414 28.2793C157.414 29.3113 157.264 30.1453 156.964 30.7813C156.664 31.4173 156.286 31.9093 155.83 32.2573C155.386 32.6053 154.906 32.8393 154.39 32.9593C153.874 33.0793 153.406 33.1393 152.986 33.1393C152.566 33.1393 152.152 33.0973 151.744 33.0133C151.348 32.9413 150.97 32.8273 150.61 32.6713C150.25 32.5273 149.92 32.3473 149.62 32.1313C149.332 31.9153 149.08 31.6693 148.864 31.3933L149.71 30.6013C150.094 31.1413 150.574 31.5373 151.15 31.7893C151.726 32.0413 152.338 32.1673 152.986 32.1673C153.538 32.1673 154 32.0953 154.372 31.9513C154.756 31.8073 155.068 31.6153 155.308 31.3753C155.56 31.1473 155.752 30.8893 155.884 30.6013C156.028 30.3253 156.13 30.0433 156.19 29.7553C156.262 29.4793 156.304 29.2153 156.316 28.9633C156.328 28.7113 156.334 28.5073 156.334 28.3513V27.1993H156.298C155.986 27.7033 155.56 28.0993 155.02 28.3873C154.492 28.6753 153.868 28.8193 153.148 28.8193C152.536 28.8193 151.96 28.7113 151.42 28.4953C150.88 28.2673 150.406 27.9613 149.998 27.5773C149.602 27.1813 149.284 26.7253 149.044 26.2093C148.816 25.6933 148.702 25.1413 148.702 24.5533C148.702 23.9653 148.816 23.4133 149.044 22.8973C149.284 22.3813 149.602 21.9313 149.998 21.5473C150.406 21.1633 150.88 20.8573 151.42 20.6293C151.96 20.4013 152.536 20.2873 153.148 20.2873C153.868 20.2873 154.492 20.4313 155.02 20.7193C155.56 21.0073 155.986 21.4033 156.298 21.9073H156.334V20.5033H157.414V28.2793ZM156.37 24.5533C156.37 24.0973 156.28 23.6713 156.1 23.2753C155.932 22.8673 155.698 22.5193 155.398 22.2313C155.11 21.9313 154.762 21.6973 154.354 21.5293C153.958 21.3493 153.532 21.2593 153.076 21.2593C152.62 21.2593 152.188 21.3493 151.78 21.5293C151.384 21.6973 151.036 21.9313 150.736 22.2313C150.448 22.5193 150.214 22.8673 150.034 23.2753C149.866 23.6713 149.782 24.0973 149.782 24.5533C149.782 25.0093 149.866 25.4413 150.034 25.8493C150.214 26.2453 150.448 26.5933 150.736 26.8933C151.036 27.1813 151.384 27.4153 151.78 27.5953C152.188 27.7633 152.62 27.8473 153.076 27.8473C153.532 27.8473 153.958 27.7633 154.354 27.5953C154.762 27.4153 155.11 27.1813 155.398 26.8933C155.698 26.5933 155.932 26.2453 156.1 25.8493C156.28 25.4413 156.37 25.0093 156.37 24.5533ZM169.03 27.2533C168.61 27.8893 168.088 28.3453 167.464 28.6213C166.852 28.8973 166.174 29.0353 165.43 29.0353C164.794 29.0353 164.218 28.9273 163.702 28.7113C163.186 28.4953 162.742 28.1953 162.37 27.8113C161.998 27.4153 161.71 26.9533 161.506 26.4253C161.314 25.8853 161.218 25.2913 161.218 24.6433C161.218 24.0193 161.32 23.4433 161.524 22.9153C161.728 22.3873 162.016 21.9313 162.388 21.5473C162.76 21.1513 163.198 20.8453 163.702 20.6293C164.206 20.4013 164.764 20.2873 165.376 20.2873C166.012 20.2873 166.57 20.4013 167.05 20.6293C167.542 20.8453 167.95 21.1393 168.274 21.5113C168.61 21.8713 168.862 22.2853 169.03 22.7533C169.198 23.2213 169.282 23.6953 169.282 24.1753V24.9313H162.298C162.298 25.1593 162.34 25.4533 162.424 25.8133C162.52 26.1613 162.688 26.5033 162.928 26.8393C163.168 27.1753 163.486 27.4633 163.882 27.7033C164.29 27.9433 164.812 28.0633 165.448 28.0633C166 28.0633 166.534 27.9313 167.05 27.6673C167.566 27.4033 167.962 27.0433 168.238 26.5873L169.03 27.2533ZM168.202 23.9593C168.202 23.5873 168.124 23.2393 167.968 22.9153C167.824 22.5913 167.62 22.3093 167.356 22.0693C167.104 21.8173 166.798 21.6193 166.438 21.4753C166.09 21.3313 165.718 21.2593 165.322 21.2593C164.734 21.2593 164.242 21.3793 163.846 21.6193C163.462 21.8593 163.156 22.1353 162.928 22.4473C162.7 22.7593 162.538 23.0653 162.442 23.3653C162.346 23.6533 162.298 23.8513 162.298 23.9593H168.202ZM173.308 22.8433C173.308 22.6873 173.302 22.5013 173.29 22.2853C173.278 22.0573 173.266 21.8293 173.254 21.6013C173.254 21.3733 173.248 21.1633 173.236 20.9713C173.224 20.7673 173.218 20.6113 173.218 20.5033H174.298C174.31 20.8153 174.316 21.1153 174.316 21.4033C174.328 21.6913 174.346 21.8773 174.37 21.9613C174.646 21.4693 175 21.0673 175.432 20.7553C175.864 20.4433 176.392 20.2873 177.016 20.2873C177.124 20.2873 177.226 20.2993 177.322 20.3233C177.43 20.3353 177.538 20.3533 177.646 20.3773L177.52 21.4393C177.376 21.3913 177.238 21.3673 177.106 21.3673C176.638 21.3673 176.23 21.4453 175.882 21.6013C175.546 21.7453 175.264 21.9493 175.036 22.2133C174.82 22.4773 174.658 22.7893 174.55 23.1493C174.442 23.4973 174.388 23.8753 174.388 24.2833V28.8193H173.308V22.8433ZM187.236 26.6953C187.464 27.1393 187.8 27.4813 188.244 27.7213C188.688 27.9493 189.156 28.0633 189.648 28.0633C189.876 28.0633 190.104 28.0273 190.332 27.9553C190.56 27.8833 190.764 27.7813 190.944 27.6493C191.124 27.5173 191.268 27.3613 191.376 27.1813C191.496 26.9893 191.556 26.7733 191.556 26.5333C191.556 26.1493 191.43 25.8613 191.178 25.6693C190.938 25.4773 190.638 25.3273 190.278 25.2193C189.918 25.1113 189.522 25.0213 189.09 24.9493C188.658 24.8653 188.262 24.7453 187.902 24.5893C187.542 24.4213 187.236 24.1933 186.984 23.9053C186.744 23.6173 186.624 23.2093 186.624 22.6813C186.624 22.2733 186.708 21.9193 186.876 21.6193C187.044 21.3193 187.26 21.0733 187.524 20.8813C187.8 20.6773 188.106 20.5273 188.442 20.4313C188.778 20.3353 189.12 20.2873 189.468 20.2873C190.152 20.2873 190.74 20.4133 191.232 20.6653C191.736 20.9173 192.126 21.3133 192.402 21.8533L191.43 22.4293C191.226 22.0453 190.968 21.7573 190.656 21.5653C190.356 21.3613 189.96 21.2593 189.468 21.2593C189.276 21.2593 189.072 21.2893 188.856 21.3493C188.652 21.4093 188.466 21.4933 188.298 21.6013C188.13 21.7093 187.986 21.8473 187.866 22.0153C187.758 22.1833 187.704 22.3753 187.704 22.5913C187.704 22.9633 187.824 23.2393 188.064 23.4193C188.316 23.5993 188.622 23.7433 188.982 23.8513C189.342 23.9473 189.738 24.0313 190.17 24.1033C190.602 24.1753 190.998 24.2953 191.358 24.4633C191.718 24.6193 192.018 24.8533 192.258 25.1653C192.51 25.4653 192.636 25.8973 192.636 26.4613C192.636 26.8933 192.552 27.2713 192.384 27.5953C192.228 27.9073 192.006 28.1713 191.718 28.3873C191.442 28.6033 191.124 28.7653 190.764 28.8733C190.404 28.9813 190.026 29.0353 189.63 29.0353C188.91 29.0353 188.25 28.8973 187.65 28.6213C187.062 28.3453 186.606 27.9193 186.282 27.3433L187.236 26.6953ZM203.54 26.4793C203.54 26.6353 203.546 26.8273 203.558 27.0553C203.57 27.2713 203.576 27.4933 203.576 27.7213C203.588 27.9493 203.6 28.1653 203.612 28.3693C203.624 28.5613 203.63 28.7113 203.63 28.8193H202.55C202.538 28.5073 202.526 28.2073 202.514 27.9193C202.514 27.6313 202.502 27.4453 202.478 27.3613H202.424C202.208 27.8173 201.848 28.2133 201.344 28.5493C200.84 28.8733 200.252 29.0353 199.58 29.0353C198.932 29.0353 198.398 28.9333 197.978 28.7293C197.57 28.5253 197.246 28.2613 197.006 27.9373C196.778 27.6013 196.622 27.2173 196.538 26.7853C196.454 26.3533 196.412 25.9093 196.412 25.4533V20.5033H197.492V25.3993C197.492 25.7353 197.522 26.0653 197.582 26.3893C197.642 26.7013 197.744 26.9833 197.888 27.2353C198.044 27.4873 198.254 27.6913 198.518 27.8473C198.794 27.9913 199.148 28.0633 199.58 28.0633C199.976 28.0633 200.348 27.9973 200.696 27.8653C201.056 27.7213 201.362 27.5113 201.614 27.2353C201.878 26.9473 202.082 26.5933 202.226 26.1733C202.382 25.7413 202.46 25.2373 202.46 24.6613V20.5033H203.54V26.4793ZM208.124 22.8433C208.124 22.6873 208.118 22.5013 208.106 22.2853C208.094 22.0573 208.082 21.8293 208.07 21.6013C208.07 21.3733 208.064 21.1633 208.052 20.9713C208.04 20.7673 208.034 20.6113 208.034 20.5033H209.114C209.126 20.8153 209.132 21.1153 209.132 21.4033C209.144 21.6913 209.162 21.8773 209.186 21.9613C209.462 21.4693 209.816 21.0673 210.248 20.7553C210.68 20.4433 211.208 20.2873 211.832 20.2873C211.94 20.2873 212.042 20.2993 212.138 20.3233C212.246 20.3353 212.354 20.3533 212.462 20.3773L212.336 21.4393C212.192 21.3913 212.054 21.3673 211.922 21.3673C211.454 21.3673 211.046 21.4453 210.698 21.6013C210.362 21.7453 210.08 21.9493 209.852 22.2133C209.636 22.4773 209.474 22.7893 209.366 23.1493C209.258 23.4973 209.204 23.8753 209.204 24.2833V28.8193H208.124V22.8433Z" fill="#5A475D"/>
</svg>
