<svg width="63" height="51" viewBox="0 0 63 51" fill="none" xmlns="http://www.w3.org/2000/svg">
<path d="M18.6009 25.8516C15.2125 24.4596 8.02542 21.7933 6.3837 22.2638C4.33155 22.852 1.36741 25.3243 3.83974 28.2884C6.31208 31.2526 9.54046 34.7687 9.25272 41.5133C10.5299 47.6385 12.7335 50.0818 15.3375 48.7376C16.8257 47.9695 20.4499 44.4026 23.0417 36.2802M18.6009 25.8516C15.9608 30.2298 20.4614 34.6283 23.0417 36.2802M18.6009 25.8516C20.3609 21.9592 27.1428 14.4694 40.1904 15.6497M23.0417 36.2802C33.0993 36.6323 39.2437 33.9318 43.4911 24.7823M40.1904 15.6497C43.9732 18.597 43.967 22.9662 43.4911 24.7823M40.1904 15.6497C40.1783 14.7137 45.4824 4.90857 46.0344 4.15249C46.5864 3.3964 51.0266 -0.780091 51.6749 5.9524C51.4474 17.3774 54.9877 16.0211 57.4961 21.7935C59.5029 26.4114 55.2682 28.1261 52.9 28.4062L43.4911 24.7823" stroke="#005B85" stroke-width="2"/>
<path d="M10.9443 27.448L17.6889 27.7357" stroke="#005B85"/>
<path d="M43.7798 22.6384L50.5244 22.9262" stroke="#005B85"/>
<path d="M12.2988 33.7227L18.3338 30.6976" stroke="#005B85"/>
<path d="M43.2129 20.592L49.2479 17.567" stroke="#005B85"/>
<path d="M14.8569 40.5049L19.8845 33.4127" stroke="#005B85"/>
<path d="M42.4331 18.2051L47.4607 11.1129" stroke="#005B85"/>
<path d="M20.8821 33.0446L19.1177 26.8881L23.3424 35.0726L20.4017 24.8119L25.7786 35.2285L22.8018 22.1596L31.383 34.2202L25.7659 19.6872L34.7312 32.4919L27.626 18.7271L37.5154 30.5837L32.1023 17.3588L39.5555 29.0594L35.2826 17.1306L39.8793 25.1231L38.0908 17.0945L42.4835 23.7789" stroke="#D7D32D" stroke-linecap="round" stroke-linejoin="round"/>
</svg>
