<svg width="65" height="67" viewBox="0 0 65 67" fill="none" xmlns="http://www.w3.org/2000/svg">
<path d="M41.183 52.6428L36.5846 53.408L39.8284 50.3102L33.9635 52.0939C31.981 52.2217 30.0418 50.8481 29.5934 49.2533C29.1449 47.6585 32.7765 43.2711 34.6483 41.2767L27.6834 46.8785L32.8992 39.7502L27.2785 43.782L25.602 39.7527L26.2247 35.3408L28.3578 32.1586L29.235 33.8975L30.9841 35.424L33.2938 38.944" stroke="#D5595B" stroke-width="1.5" stroke-linecap="round" stroke-linejoin="round"/>
<path d="M44.9577 49.6069L47.5385 46.5473L43.5162 47.8146L47.2556 44.3151L42.0747 46.0224L48.5035 40.8519L41.5517 43.4915L46.6474 37.9173L47.3914 36.335L45.361 32.5568L42.478 28.9723L37.8009 28.7985L38.1496 30.4858L33.6043 29.2222L36.4872 32.8067L33.8212 31.9993L35.6773 34.9339L38.3626 40.1532L40.5907 42.2966L42.3616 41.3643" stroke="#D5595B" stroke-width="1.5" stroke-linecap="round" stroke-linejoin="round"/>
<path d="M25.1829 33.2524C22.0944 31.5178 17.398 26.8576 23.3208 22.0941C29.2435 17.3305 33.707 23.6383 34.8418 26.9443" stroke="#005B85" stroke-width="1.5"/>
<path d="M28.7738 29.4233L44.0014 52.943M28.7738 29.4233C25.7085 31.0722 20.7407 36.8642 25.3926 46.8415C30.0445 56.8189 39.7367 55.0664 44.0014 52.943M28.7738 29.4233C32.4004 26.5065 41.3284 22.7556 48.0283 31.0858C54.7281 39.4161 48.1353 49.1282 44.0014 52.943" stroke="#005B85" stroke-width="1.5"/>
<path d="M9.66613 27.8882C10.2869 30.1499 10.4107 34.3056 5.94004 32.8339C1.19656 28.8531 7.17995 21.6049 10.2409 21.5793C15.337 20.8912 18.7996 22.0039 20.7032 24.3708M26.6287 19.605C25.1548 15.4309 23.5823 6.36639 29.0841 3.50063C34.5858 0.634865 35.8951 4.51904 35.862 6.81935C35.3285 8.71034 32.0902 10.048 31.3158 7.55255M17.2064 37.9027L24.2801 39.0349M19.8149 49.4475L25.5924 45.7752M28.2911 58.7091L30.9914 53.1266M36.9565 62.459L37.6793 55.0562M56.8254 45.0171L50.6134 43.6791M50.9505 37.0739L55.4968 36.3409M47.4389 30.1535L50.6314 27.0986M40.1849 26.2429L41.2359 20.5253" stroke="#005B85" stroke-width="1.5"/>
<ellipse rx="3.57664" ry="3.06089" transform="matrix(0.504046 -0.863677 0.881506 0.472173 34.0576 47.1445)" fill="#005B85"/>
<ellipse rx="2.95714" ry="2.6559" transform="matrix(-0.0350598 0.999385 -0.999863 0.0165541 28.7281 37.4972)" fill="#005B85"/>
<ellipse rx="4.11753" ry="3.28606" transform="matrix(-0.795201 0.606346 -0.604058 -0.79694 40.815 35.9353)" fill="#005B85"/>
</svg>
