<svg width="62" height="61" viewBox="0 0 62 61" fill="none" xmlns="http://www.w3.org/2000/svg">
<path d="M56.6685 22.8041C54.483 -6.54867 35.7987 12.5607 31.1903 25.109C22.2888 12.47 -4.52251 18.2508 8.40955 37.5083C18.7552 52.9144 37.7517 58.5888 45.9567 59.5002C53.4117 59.0482 58.2332 43.8193 56.6685 22.8041Z" stroke="#005B85" stroke-width="2"/>
<path d="M14.6184 39.6879C14.9376 36.1029 15.2567 32.5179 15.5758 28.9328C15.5945 28.7232 15.9312 27.5257 16.0193 28.0843C16.3803 30.3725 16.3158 32.7477 16.5023 35.0581C16.6201 36.5179 16.5231 38.1301 16.797 39.5552C16.9688 40.4497 16.579 41.397 16.7757 42.3195C16.8353 42.599 17.2418 40.7596 17.3021 40.5392C18.1175 37.5595 19.1641 34.6543 20.1509 31.7286C20.4148 30.9464 20.6068 30.1437 20.8725 29.3635C21.2182 28.3487 21.0399 29.427 21.0273 29.806C20.9449 32.2845 21.3636 34.833 21.4524 37.3157C21.5283 39.4398 21.4323 45.8069 21.6208 43.6899C22.0385 38.9972 23.9295 34.3537 25.5013 29.9491C25.5289 29.8717 25.7205 28.7827 25.8465 28.8264C26.0918 28.9114 25.5044 33.1067 25.4814 33.3872C25.2686 35.9836 25.1398 38.6326 25.1505 41.2379C25.1541 42.1173 25.2228 43.0682 25.4636 43.9197C25.5692 44.2931 25.5567 44.9405 25.6191 44.2397C25.8385 41.7749 26.379 39.5864 27.1627 37.232C27.2759 36.892 28.4593 32.4285 29.0223 32.4163C29.0846 32.4149 28.9952 33.2831 28.9945 33.3019C28.9465 34.6304 28.9188 35.9898 29.0154 37.3152C29.2448 40.4606 29.9729 43.5085 30.4772 46.6116C30.6814 47.8681 30.8279 49.1303 31.1446 50.3661C31.2539 50.7925 31.3088 50.5877 31.3325 50.3216C31.8549 44.4532 33.058 38.7029 33.8877 32.8698C34.2371 30.4129 34.4465 27.7032 35.293 25.3496C35.5371 24.6708 35.9437 26.397 36.007 26.6278C36.6355 28.9179 36.1321 31.5368 35.9246 33.8677C35.703 36.3576 35.4453 38.8487 35.2593 41.3416C35.0838 43.6945 35.3936 46.0328 35.1839 48.3882C35.1018 49.3115 34.7336 51.8886 35.3148 51.166C35.4457 51.0034 35.51 50.9176 35.571 50.6989C36.0379 49.0258 36.252 47.2688 36.5396 45.5589C37.4951 39.8784 38.5465 34.212 39.4863 28.5299C39.7243 27.0911 39.7338 25.6242 39.9247 24.1797C39.9533 23.9635 40.5327 21.3676 40.4401 22.4087C40.2251 24.8231 40.4791 27.2512 40.3356 29.6671C40.1383 32.9876 39.859 36.3941 40.0948 39.7203C40.2107 41.3564 40.6192 43.1293 40.4744 44.7557C40.3532 46.117 40.7832 47.4862 40.6658 48.8047C40.6265 49.2465 40.6082 49.5647 40.7345 49.9847C40.8078 50.2281 40.7898 49.4792 40.8123 49.226C41.036 46.713 41.2961 44.2019 41.7061 41.7113C42.6549 35.9474 44.3415 30.2461 44.8597 24.4251C45.0749 22.0081 45.29 19.5911 45.5052 17.1741C45.5111 17.1074 45.5486 16.6858 45.5331 16.8601C45.4376 17.9333 45.3221 19.0068 45.287 20.0842C45.1425 24.5246 45.5379 28.9705 45.1642 33.4041C44.8699 36.8959 44.5427 40.3852 44.232 43.8756C44.0825 45.5552 43.8929 47.2296 44.008 48.9185C44.0135 48.9999 44.2885 50.6092 44.4039 50.097C45.1739 46.6773 44.9595 42.9521 45.4823 39.4752C45.9219 36.551 46.8441 33.6788 47.4917 30.7941C47.9922 28.5644 48.0198 26.2603 48.5723 24.0513C48.8297 23.0223 49.309 21.9752 49.4029 20.9201C49.4256 20.6653 49.5017 20.4756 49.6062 20.2441C49.7095 20.0153 49.6016 21.0832 49.6026 21.2033C49.6448 26.4101 50.0005 31.597 50.0539 36.7995C50.0739 38.7572 49.9207 40.7149 49.9503 42.6698C49.9667 43.7488 50.1152 41.8512 50.1218 41.7766C50.4805 37.7476 50.8179 33.7419 51.65 29.776C52.0593 27.8254 52.6456 25.8247 52.8225 23.8376C52.8517 23.5103 53.0097 23.0449 52.7247 22.8694" stroke="#CA4040" stroke-width="3" stroke-linecap="round"/>
</svg>
