<svg width="58" height="57" viewBox="0 0 58 57" fill="none" xmlns="http://www.w3.org/2000/svg">
<path d="M2.32652 38.5717C9.11364 37.3854 25.0326 32.0884 34.4116 20.3908M18.6317 31.2648C16.9264 25.3952 13.1084 14.6971 36.5932 12.3602C49.1503 9.10936 45.1759 10.6758 46.9956 9.70699L46.9059 25.2793C45.6386 31.5867 36.7124 44.582 25.0329 37.6112C22.324 35.2067 20.9768 33.8632 20.6418 33.492" stroke="#005B85" stroke-width="1.5"/>
<path d="M20.6324 26.7653L24.2625 18.1009L23.9007 25.1627L28.5358 17.6118L28.726 20.8077L32.8814 15.7104L33.1079 18.2001L40.0518 13.9537L36.2314 19.4222L44.2889 14.1708L38.6126 21.3143L44.597 21.975L34.9007 24.6643L41.1478 27.1085L32.3025 27.0093L38.776 31.9432L27.9206 29.6169L35.4353 34.9582L25.3224 31.9619" stroke="#84B856" stroke-width="1.5" stroke-linecap="round" stroke-linejoin="round"/>
</svg>
