<svg width="56" height="51" viewBox="0 0 56 51" fill="none" xmlns="http://www.w3.org/2000/svg">
<path d="M21.8673 10.8245C23.5351 8.69208 25.203 6.55967 26.8708 4.42726C26.9683 4.30259 27.6585 3.67486 27.4784 4.05784C26.7406 5.62659 25.7206 7.09344 24.8725 8.61191C24.3367 9.57136 23.6136 10.5474 23.1824 11.5424C22.9118 12.167 22.2943 12.6182 22.0265 13.2694C21.9453 13.4667 22.9415 12.4619 23.0675 12.3458C24.772 10.7757 26.5794 9.33747 28.3607 7.8644C28.837 7.47053 29.2801 7.03739 29.7566 6.64554C30.3764 6.13583 29.8272 6.74694 29.6631 6.98015C28.59 8.50525 27.7778 10.2586 26.802 11.8492C25.9671 13.2101 23.2774 17.1705 24.2623 15.9113C26.4455 13.12 29.4605 10.9014 32.192 8.71538C32.24 8.67699 32.8014 8.06404 32.8562 8.1378C32.963 8.28135 30.8874 10.6981 30.7581 10.8657C29.5608 12.4168 28.3903 14.0318 27.3186 15.6707C26.9568 16.2239 26.6032 16.8459 26.3902 17.4688C26.2968 17.742 26.0217 18.1436 26.3477 17.7268C27.4944 16.2607 28.7125 15.0861 30.14 13.8968C30.3461 13.7251 32.8774 11.3593 33.2081 11.5586C33.2447 11.5807 32.8338 12.0927 32.8257 12.1042C32.2482 12.9202 31.6698 13.7631 31.1773 14.6305C30.0086 16.6887 29.1689 18.8692 28.1768 21.002C27.775 21.8656 27.3375 22.7116 27.0095 23.6036C26.8963 23.9114 27.0128 23.8031 27.1366 23.6448" stroke="#D66289" stroke-width="2" stroke-linecap="round"/>
<path d="M20.1348 30.368C15.8316 29.5413 11.5285 28.7146 7.22531 27.888C6.97372 27.8396 5.54145 27.4047 6.21511 27.4383C8.9745 27.5761 11.8289 28.0223 14.611 28.2844C16.3689 28.45 18.305 28.7896 20.0247 28.8416C21.1041 28.8742 22.2343 29.3035 23.3479 29.3238C23.6853 29.3299 21.483 28.7382 21.2193 28.6593C17.6552 27.5924 14.1859 26.3785 10.6907 25.2024C9.7561 24.8879 8.79533 24.6196 7.86335 24.3042C6.65106 23.894 7.94347 24.1994 8.39889 24.2722C11.377 24.7483 14.4507 24.8903 17.4377 25.2489C19.9934 25.5558 27.6467 26.6989 25.1055 26.2107C19.4728 25.1286 13.9326 23.0378 8.67247 21.2078C8.58008 21.1756 7.27507 20.8592 7.33043 20.7796C7.43817 20.6246 12.4691 21.7397 12.8058 21.803C15.9227 22.3891 19.1048 22.926 22.2375 23.3593C23.295 23.5056 24.4398 23.6189 25.469 23.5967C25.9204 23.5869 26.6985 23.7051 25.8574 23.5435C22.8988 22.9751 20.2798 22.2319 17.4667 21.2926C17.0606 21.1569 11.7207 19.585 11.7188 19.1943C11.7186 19.1511 12.7604 19.3596 12.7829 19.3632C14.3792 19.6211 16.013 19.8702 17.6089 20.0276C21.3959 20.4013 25.077 20.4141 28.8195 20.5908C30.3349 20.6623 31.8558 20.7747 33.3488 20.7651C33.8639 20.7618 33.619 20.6892 33.2995 20.6278" stroke="#D66289" stroke-width="2" stroke-linecap="round"/>
<path d="M40.7136 26.4009C38.0609 25.8608 35.4081 25.3206 32.7554 24.7805C32.6003 24.7489 31.7304 24.4116 32.1535 24.4018C33.8866 24.3615 35.6546 24.6192 37.3919 24.6999C38.4897 24.7509 39.6859 24.9621 40.7687 24.9036C41.4484 24.8668 42.1278 25.2179 42.8301 25.1667C43.0429 25.1513 41.6991 24.7086 41.5388 24.6477C39.3729 23.8236 37.279 22.8487 35.1655 21.9126C34.6004 21.6623 34.015 21.4592 33.4516 21.2078C32.7187 20.8808 33.5108 21.0994 33.7927 21.1421C35.6365 21.4212 37.568 21.365 39.4269 21.5279C41.0175 21.6672 45.7622 22.3055 44.1957 21.9865C40.7233 21.2795 37.3919 19.5724 34.2161 18.1045C34.1603 18.0787 33.3612 17.8501 33.4027 17.7681C33.4835 17.6085 36.5728 18.3864 36.7804 18.4273C38.7029 18.806 40.6707 19.1322 42.6156 19.3593C43.2722 19.436 43.9866 19.4746 44.6391 19.387C44.9252 19.3486 45.4074 19.4154 44.8889 19.3098C43.0651 18.9385 41.4702 18.3731 39.7686 17.6268C39.5229 17.5191 36.2757 16.3107 36.3065 15.9257C36.3099 15.8831 36.9514 16.0221 36.9654 16.0243C37.9534 16.1766 38.9659 16.3178 39.9618 16.3711C42.3253 16.4977 44.6513 16.2755 47.0027 16.2108C47.9549 16.1846 48.9072 16.1983 49.8518 16.0935C50.1777 16.0574 50.0288 16.0015 49.8319 15.9614" stroke="#D66289" stroke-width="2" stroke-linecap="round"/>
<path d="M30.33 40.3845C28.8049 42.6212 27.2797 44.8579 25.7546 47.0946C25.6654 47.2253 24.9998 47.8846 25.1439 47.4834C25.7342 45.8401 26.6449 44.3021 27.3617 42.7108C27.8147 41.7054 28.4689 40.6818 28.8033 39.6397C29.0132 38.9855 29.6235 38.5111 29.8267 37.8291C29.8883 37.6225 28.9411 38.6773 28.8197 38.7993C27.1787 40.4482 25.4081 41.9597 23.6705 43.5076C23.2059 43.9214 22.7827 44.3762 22.3176 44.788C21.7126 45.3236 22.2272 44.6823 22.3741 44.4377C23.3346 42.8386 23.9808 41.002 24.8268 39.3347C25.5506 37.9083 27.9398 33.7559 27.0392 35.0768C25.0428 38.0046 22.0647 40.3372 19.3903 42.6346C19.3434 42.6749 18.8159 43.3182 18.7463 43.2413C18.6108 43.0917 20.5408 40.556 20.6588 40.3802C21.7509 38.7534 22.8053 37.0598 23.749 35.3417C24.0676 34.7617 24.368 34.1098 24.5154 33.4577C24.58 33.1717 24.8248 32.7505 24.5267 33.1877C23.4781 34.7255 22.3126 35.9589 20.9213 37.2085C20.7204 37.3889 18.2881 39.8734 17.9016 39.6664C17.8589 39.6435 18.2364 39.1065 18.2437 39.0944C18.7612 38.2387 19.2762 37.355 19.6945 36.446C20.687 34.2891 21.3054 32.0057 22.0959 29.7715C22.4159 28.8669 22.7773 27.9805 23.0135 27.0465C23.0949 26.7242 22.9829 26.838 22.8697 27.004" stroke="#D66289" stroke-width="2" stroke-linecap="round"/>
<path d="M30.5281 28.0856C31.7206 27.693 32.0187 26.6133 32.0187 26.1225C32.0187 25.7953 31.82 25.141 31.025 25.141C30.2299 25.141 29.3687 25.4682 29.0374 25.6317C28.8718 25.7953 28.5405 26.3188 28.5405 27.1041C28.5405 27.8893 29.2031 28.74 29.5343 29.0672C29.6999 29.2308 30.2299 29.5579 31.025 29.5579C32.0187 29.5579 33.0125 28.5764 33.5094 28.0856C34.0062 27.5948 34.0062 27.1041 34.0062 26.1225C34.0062 25.3373 33.675 24.1594 33.5094 23.6687C33.3437 23.5051 32.7143 23.1779 31.5218 23.1779C30.0312 23.1779 28.5405 23.6687 28.0437 24.1594C27.5468 24.6502 27.0499 25.6317 27.0499 27.1041C27.0499 28.5764 27.5468 30.0487 28.5405 30.0487C29.5343 30.0487 31.025 30.5395 31.5218 30.5395C32.0187 30.5395 33.0125 30.5395 33.5094 30.0487C34.0062 29.5579 34.5031 29.0672 34.5031 28.5764C34.5031 28.0856 33.5094 27.1041 34.0062 26.6133C34.5031 26.1225 35 27.1041 35 25.141C34.5031 22.6871 34.5031 19.7425 31.5218 21.2148C28.5405 22.6871 26.0561 21.2148 25.0624 23.6687C24.0686 26.1225 23.0749 27.5948 25.5593 28.0856C28.0437 28.5764 26.0561 32.9933 28.5405 31.521" stroke="#D66289" stroke-width="2"/>
<path d="M42.8299 34.9722L35.7753 28.103L44.5045 39.1831L36.621 29.9238L44.8676 41.0956L33.1038 29.1763L46.2151 46.2178" stroke="#D66289" stroke-width="2"/>
<path d="M28.4763 1.82007C14.8763 3.82007 19.4763 14.9867 23.4763 20.3201C21.6431 18.6534 15.7766 15.5201 6.97667 16.3201C-5.68692 20.3201 5.47667 28.3201 6.97667 29.3201C8.47667 30.3201 9.47667 29.3201 21.4765 32.3201C13.8765 34.7201 12.3099 38.9867 12.4765 40.8201C12.4765 43.1534 14.6765 48.1201 23.4763 49.3201C32.2761 50.5201 32.1431 39.8201 30.9765 34.3201C31.9765 35.9867 35.2765 40.8201 40.4765 46.8201C50.8765 50.0201 50.8099 43.4867 49.4765 39.8201C46.8099 36.3201 40.7765 28.6201 37.9765 25.8201C40.7765 28.6201 46.1432 29.3201 48.4765 29.3201C51.6432 28.3201 56.8765 24.1201 52.4765 15.3201C45.2765 6.52007 35.8099 13.3201 31.9765 17.8201C36.4765 11.6534 40.4765 2.82007 28.4763 1.82007Z" stroke="#005B85" stroke-width="2" stroke-linejoin="round"/>
</svg>
