<svg width="53" height="69" viewBox="0 0 53 69" fill="none" xmlns="http://www.w3.org/2000/svg">
<path d="M28.9715 18.8449L26.5622 16.7422L26.781 13.9816L24.0652 13.7955L25.3353 11.4212L23.4518 11.135L24.2401 8.98953L22.1375 8.21703M31.6433 16.9856L31.1613 13.9675L32.8257 13.7674L33.7017 12.4658L30.8982 11.4358L33.6577 10.4204L31.9492 8.57513L33.4384 6.68714M34.6221 19.7034L35.4541 16.3564L37.9071 17.2577L39.4839 16.2136L37.5564 13.882L41.2358 13.6104L39.6587 11.4076L42.3745 11.5937L43.6885 11.2648L41.7173 10.1347M34.1406 23.1792L36.681 21.6774L37.6886 23.2652L38.9587 20.8908L40.0539 23.3225L42.2876 20.4905L43.3829 22.9222L45.0911 21.5205M32.8268 26.755L35.9807 27.9137L35.5428 30.188L37.5578 30.1165L36.7695 32.262L39.4853 32.4481L39.0911 33.5209M29.8483 27.284L30.9873 28.5142L29.4105 29.5583L31.7321 30.8171L28.1404 31.9326L30.8124 33.3202L28.4034 34.4644L30.4623 36.4383L27.8342 37.0962L29.4113 39.299M27.8771 26.154L25.7308 26.583L25.5557 28.142L23.4971 29.4149L24.3733 31.3603L21.5262 31.5318L22.271 33.8347L19.9934 34.6213M26.4314 23.5936L23.5843 23.7651L22.4456 25.7818L20.4744 24.6517L19.9051 27.2835L17.014 25.4096L17.2333 29.1429L14.5613 27.7553M16.5754 17.9432L18.7654 16.3127L18.2838 19.7884L20.8679 17.0852L21.2186 20.4608L22.9268 19.0592L24.9857 21.0332L26.2997 20.7042" stroke="white" stroke-width="1.5" stroke-linecap="round" stroke-linejoin="round"/>
<path d="M16.7626 43.5298L18.4573 44.1525L18.8798 45.0969L19.8967 45.4705L20.3634 45.2474M22.7361 46.1191L23.3747 44.3809L24.8583 44.5314L25.5804 43.613L26.0471 43.3898M15.5638 50.981L17.2586 51.6036L17.0032 52.2989L18.359 52.7971L18.4425 53.6169M21.5373 53.5702L22.176 51.832L23.1928 52.2056L24.5094 50.7164M13.7707 59.0028L14.7433 60.5439L16.0157 60.2222L16.7771 61.2911L17.7939 61.6647M20.0831 61.7166L20.8495 59.6308L21.5274 59.8798L23.1829 58.5152L24.4553 58.1935L25.4329 56.5798L25.8996 56.3567" stroke="#87BE46" stroke-width="1.5" stroke-linecap="round" stroke-linejoin="round"/>
<path d="M18.7729 64.1551C18.7302 57.0624 22.0363 38.6186 24.9127 33.3848" stroke="#005B85" stroke-width="1.5"/>
<path d="M21.9011 44.1065C23.2045 42.7414 26.2839 41.0542 28.1597 42.0595C30.0356 43.0648 24.3923 46.0559 21.3348 47.8303M20.6343 51.9194C22.023 50.3222 25.5492 48.2918 27.1425 49.1932C28.7357 50.0947 22.8512 53.5241 19.9338 56.0084M19.286 60.3391C21.4969 57.5952 27.302 53.1241 28.3056 54.7573C29.3093 56.3905 22.5729 61.1928 19.623 63.4018M19.176 63.2375C16.9814 62.2995 13.234 60.2046 13.0001 58.2221C12.7079 55.7439 19.008 59.6196 19.4587 60.5755M20.3148 55.7728C17.7446 54.0382 12.7066 50.2906 14.5289 49.6957C16.8068 48.9521 19.6024 51.1646 20.3089 51.4241M21.0093 47.335C18.7823 46.1217 14.4561 43.3468 16.3807 42.4734C18.7865 41.3816 20.9756 43.3518 21.9074 44.0893" stroke="#005B85" stroke-width="1.5"/>
<path d="M29.0402 25.0823C27.9122 29.2305 24.1998 37.3944 18.3738 36.8642C17.5572 34.5153 18.7006 31.8727 20.5312 29.6052M28.6028 24.1165C26.7698 24.1386 23.017 26.5261 20.5312 29.6052M20.5312 29.6052C17.9355 30.6644 12.6818 31.8743 12.4326 28.2401C12.2492 25.5652 15.9215 23.6091 19.9964 22.7467M27.9473 22.6679C25.8846 22.0756 22.8423 22.1444 19.9964 22.7467M19.9964 22.7467C17.5003 21.6348 13.0478 18.804 15.207 16.3767C17.9061 13.3425 22.5018 16.2388 23.6668 17.0694C24.5988 17.7338 27.4891 20.2182 28.8177 21.3773M22.7062 16.4496C21.3367 14.0677 19.2076 8.50668 20.9499 7.21441C22.6922 5.92214 24.5827 6.67038 25.3101 7.20603C26.9553 9.55496 30.2558 15.3033 30.297 19.5053M28.9859 14.0081C29.1121 10.4312 30.5552 3.49701 33.0674 4.42001C36.2077 5.57376 35.9102 10.698 35.3889 12.1169C34.9719 13.2519 32.7516 17.8575 31.6936 20.0185M34.6355 13.853C35.5772 11.6493 38.9844 7.72117 43.2766 8.97606C47.5687 10.231 42.4865 15.7981 39.4089 18.4248C37.5646 19.4918 33.5445 21.665 32.2192 21.8221M38.1111 19.1558C40.4937 18.4209 46.1842 18.0962 47.6544 21.8569C49.4922 26.5577 33.6202 25.5577 31.656 24.4332M36.3818 25.2652C39.1906 28.0418 44.4017 34.5912 40.2173 35.6304C34.9869 36.9294 31.7908 27.3005 30.6974 24.886M33.3271 30.6658C33.012 34.039 31.5394 41.1379 28.7138 41.066C25.8883 40.9941 25.5346 35.0669 25.7489 32.3275" stroke="#005B85" stroke-width="1.5"/>
<ellipse cx="30.5902" cy="22.1113" rx="2.76156" ry="3.74233" transform="rotate(36.2996 30.5902 22.1113)" fill="#EADD2E"/>
</svg>
