<svg width="75" height="132" viewBox="0 0 75 132" fill="none" xmlns="http://www.w3.org/2000/svg">
<path d="M10.9242 45.2657L11.3677 41.5907L12.3055 46.1781L12.8535 40.0922L15.9932 49.6059L14.2222 38.0202L17.9606 53.3854L17.6627 37.3169L20.099 43.3901L19.9564 36.848L21.702 42.465L22.8235 36.2619L24.9208 43.5992L25.6906 35.6758L27.449 44.2771" stroke="#44B1D0" stroke-width="1.5" stroke-linecap="round" stroke-linejoin="round"/>
<path d="M36.2712 40.6815L32.1147 34.9599L37.5226 38.0361L32.6754 31.8584L38.5522 37.2283L35.1909 29.552L39.5819 36.4204L37.8235 27.819L44.8853 41.9075L40.4562 26.0861L45.9149 41.0996L43.3233 25.5L47.0364 34.8965L45.278 26.2952L50.2552 36.0307L47.8062 26.9731L51.8582 35.1056L50.5688 28.7979L53.5658 31.7696" stroke="#E05457" stroke-width="1.5" stroke-linecap="round" stroke-linejoin="round"/>
<path d="M36.524 11.3879L37.0496 13.3599L33.9464 10.8077L34.5374 15.2968L30.343 10.9234L30.5133 13.835L26.0688 10.7955L26.2392 13.7071L22.9257 10.3661L22.7663 18.857L18.967 11.4214L16.7303 16.6643L15.3635 11.5371L14.1129 18.2068L11.5099 12.9868L12.7317 19.8423L9.41818 16.5013L8.45751 19.7144" stroke="#EDDC10" stroke-width="1.5" stroke-linecap="round" stroke-linejoin="round"/>
<path d="M17.7514 62.4512C18.1003 64.1579 19.0291 65.7662 20.1478 67.1063C20.7291 67.8027 21.0906 68.825 21.7635 69.3854C22.4027 69.9177 22.6757 71.1433 23.2468 71.8094C24.1326 72.8426 24.6519 74.6069 25.3203 75.8229C26.9041 78.7044 28.2376 81.7367 29.7709 84.6134C31.0823 87.0738 32.4923 89.4544 33.6205 91.9787C34.9993 95.0637 36.542 98.4294 37.6867 101.629C38.3245 103.412 39.3816 105.171 39.8652 107.022C40.6116 109.877 42.5488 112.229 43.6009 114.911C44.1831 116.396 44.9668 117.728 45.5934 119.177C46.1788 120.532 46.4466 122.184 47.325 123.393C47.773 124.01 48.3192 125.221 48.5114 125.952C48.928 127.536 49.2025 125.438 49.0673 124.777C48.1675 120.375 47.8185 116.48 48.2538 112C48.5484 108.968 48.2262 106.076 48.278 103.032C48.3321 99.8579 49.3451 96.2803 48.7034 93.1411C48.3762 91.5406 48.6606 89.2268 48.7108 87.5524C48.7627 85.8219 48.7014 83.9203 48.9883 82.2033C49.3072 80.2943 49.5958 77.8026 49.4203 75.8791C49.2292 73.7849 50.2888 71.3906 50.5904 69.2713C50.7944 67.8376 50.9344 66.4035 51.1698 64.9661C51.4366 63.3365 51.387 61.396 51.8589 59.8277C52.2644 58.4802 52.1082 56.5759 51.8308 55.2192C51.5585 53.8871 51.9381 52.8506 52.4275 51.6476" stroke="#005B85" stroke-width="1.5" stroke-linecap="round"/>
<path d="M17.4448 62.2486C19.5362 61.821 21.4826 61.2699 23.5058 60.7442C25.2577 60.289 26.8045 59.0084 28.6465 58.6319C30.2802 58.2979 31.9849 57.3859 33.5446 56.7755C35.5342 55.9969 37.5485 55.2115 39.4514 54.3002C42.1087 53.0276 44.9689 52.3763 47.8847 51.7802C49.2545 51.5002 50.4929 50.9817 51.8372 50.7068C52.8646 50.4968 52.9658 52.8921 51.6114 51.5491" stroke="#005B85" stroke-width="1.5" stroke-linecap="round"/>
<path d="M39.6045 105.748C40.4429 103.544 42.2236 101.116 43.5532 99.1029" stroke="#005B85" stroke-width="1.5" stroke-linecap="round"/>
<path d="M41.3585 110.431C42.3456 108.983 44.6928 106.975 45.1102 105.418" stroke="#005B85" stroke-width="1.5" stroke-linecap="round"/>
<path d="M44.0838 115.977C44.5719 114.919 45.0882 113.12 46.0061 112.4" stroke="#005B85" stroke-width="1.5" stroke-linecap="round"/>
<path d="M18.0059 62.3992C11.0468 61.0506 9.14388 54.0959 7.87433 47.8855C7.20842 44.628 8.02937 42.9627 9.82186 40.2491C10.4537 39.2926 11.9076 37.8568 12.9192 37.2277C14.2213 36.4179 15.6997 35.3599 17.1755 34.9719C19.9943 34.2306 22.9958 34.0474 25.7604 33.4822C27.3742 33.1523 28.8812 34.8516 30.1539 35.503C31.6197 36.2533 31.9334 38.6489 33.3315 39.3645C34.5466 39.9865 35.3968 43.6264 35.6232 44.7339C35.9274 46.2221 36.1205 47.6562 36.2537 49.1161C36.4743 51.5337 35.1642 54.7678 33.8389 56.7743" stroke="#005B85" stroke-width="1.5" stroke-linecap="round"/>
<path d="M30.5359 35.4248C29.5296 30.5021 34.9641 27.0923 38.5418 24.9725C39.8759 24.182 40.7309 23.5225 42.3638 23.1887C43.4812 22.9603 44.4675 22.7874 45.6027 22.8067C47.5063 22.8391 50.5033 23.7982 51.7485 25.2506C53.2369 26.9867 55.4421 28.7519 55.9347 31.1615C56.581 34.3231 57.3525 37.4486 57.8757 40.6566C57.9834 41.3166 57.4411 42.6876 57.0824 43.2659C56.754 43.7954 56.6313 44.4062 56.2197 44.887C55.7523 45.4329 55.9033 46.0515 55.5161 46.6377C55.2265 47.0762 55.2459 47.6658 54.8705 48.0228C54.6641 48.2191 54.1525 48.8116 54.0223 49.0659C53.6845 49.7259 52.9527 50.137 52.7804 50.7793" stroke="#005B85" stroke-width="1.5" stroke-linecap="round"/>
<path d="M13.3087 36.8237C6.50774 35.5058 5.38847 26.0585 6.23091 20.3738C6.59536 17.9146 7.92769 16.3031 9.70805 14.7391C11.5411 13.1289 13.0149 11.3178 15.2973 10.2059C18.5036 8.64387 21.715 7.45196 25.0127 6.09697C26.483 5.49281 28.2825 5.36957 29.8406 5.05105C31.4861 4.71467 33.3481 6.22886 34.7911 6.84004C37.5634 8.01423 38.9921 11.8857 39.5431 14.5812C40.0752 17.1841 39.5076 19.5227 39.4644 22.0567C39.4527 22.7427 39.2892 24.567 38.7517 24.9886" stroke="#005B85" stroke-width="1.5" stroke-linecap="round"/>
<path d="M7.81133 43.8756C8.15428 45.5532 8.99379 47.8751 10.951 48.3057C12.4449 48.6344 14.0406 49.0383 14.6325 50.6929C14.9584 51.6041 15.4949 52.4314 15.7872 53.3551C15.9273 53.7978 16.3714 54.3092 16.854 54.4386C17.5344 54.621 17.8961 54.8562 18.6264 54.7069C19.6972 54.488 20.3325 53.7205 20.4324 52.58C20.5356 51.4009 20.5136 50.1949 20.4559 49.0194C20.4028 47.937 20.0625 46.4349 20.7826 45.4976C21.0447 45.1564 21.6768 44.393 22.1963 44.5041C22.9018 44.655 23.7159 45.135 24.275 45.582C24.8419 46.0352 25.6191 46.8771 26.3927 46.719C27.5156 46.4894 28.4268 46.3634 29.0671 45.394C29.6609 44.495 29.6901 43.3877 29.4769 42.3449C29.2625 41.296 28.9191 40.0339 29.0011 38.9669C29.0569 38.2396 28.9221 37.4084 28.8032 36.6861C28.7583 36.4134 28.4904 35.3174 28.727 35.1318" stroke="#005B85" stroke-width="1.5" stroke-linecap="round"/>
<path d="M35.77 43.5943C37.3801 42.331 38.0003 40.4242 39.1373 38.8001C39.384 38.4477 39.804 38.176 40.2564 38.2359C41.1557 38.3549 41.4087 39.3237 41.8775 39.9306C42.5419 40.7907 43.1221 41.708 43.7272 42.6117C44.1437 43.2338 44.8453 43.4182 45.4698 43.7851C45.8731 44.022 46.5146 44.0546 46.9556 43.9644C47.5335 43.8463 47.6369 42.954 47.9086 42.5218C48.6514 41.3396 48.5761 39.6503 48.8858 38.31C48.9718 37.9382 48.9633 37.5642 49.2009 37.2259C49.3271 37.0463 49.9734 37.4947 50.2725 37.6106C52.0554 38.3015 53.813 37.0585 54.5068 35.4166C54.7959 34.7326 55.0893 34.0279 55.3126 33.3197C55.4497 32.885 55.8085 32.4379 55.8613 32" stroke="#005B85" stroke-width="1.5" stroke-linecap="round"/>
<path d="M6.3828 19.1699C6.66434 20.5471 6.71058 22.373 7.46123 23.592C8.02074 24.5006 8.88113 24.9588 9.8607 25.2215C10.7262 25.4536 11.9013 25.4082 12.7805 25.2284C13.3037 25.1215 13.5978 24.8149 13.993 24.4975C15.0264 23.6676 15.77 22.7862 16.3655 21.5973C16.8376 20.6547 18.0318 19.5081 18.982 19.1034C19.181 19.0187 19.7814 18.7068 20.02 18.8644C20.2665 19.0272 20.244 19.7677 20.3524 20.0309C20.7192 20.9212 20.981 21.9181 21.4288 22.7695C21.7471 23.3746 21.9064 23.7308 22.4838 24.0902C22.9047 24.3522 23.3539 24.6183 23.7928 24.8491C24.3297 25.1313 25.0432 25.1806 25.5212 24.7708C25.9616 24.3932 26.7439 23.6635 26.6094 23.0053C26.3946 21.9547 26.9093 20.6317 26.9634 19.5516C27.0026 18.7695 27.0255 17.7275 27.9345 17.5417C28.6337 17.3987 29.5244 18.0506 30.1295 18.3677C30.4082 18.5137 31.0423 19.0801 31.4071 19.0055C31.8259 18.9199 32.4616 19.1851 32.897 19.2376C33.4083 19.2993 33.8628 19.4066 34.3841 19.4234C35.4803 19.4586 36.7827 19.3349 37.6718 18.6373C38.7079 17.8243 38.9706 16.1315 39.4531 14.9455" stroke="#005B85" stroke-width="1.5" stroke-linecap="round"/>
<path d="M30.3447 75.9834C32.5725 77.4549 33.916 79.933 35.9606 81.598C37.7647 83.0671 39.1645 84.993 40.9867 86.4274C41.8421 87.1008 42.5874 88.0059 43.4389 88.6433C43.9391 89.0176 44.3759 89.9246 45.0458 90.0055" stroke="#005B85" stroke-width="1.5" stroke-linecap="round"/>
<path d="M34.5938 60.1404C35.7679 61.2372 36.8422 62.478 37.9294 63.6583C39.3723 65.2248 40.8941 66.7068 42.346 68.2635C43.4868 69.4866 45.3185 70.5891 46.1007 72.0916C46.4048 72.6759 47.3635 72.9853 47.5061 73.6828" stroke="#005B85" stroke-width="1.5" stroke-linecap="round"/>
<path d="M32.5615 67.9224C33.5312 69.616 34.9548 70.8602 36.3028 72.2429C37.6082 73.5821 38.8376 75.0462 40.2747 76.248C41.634 77.3847 42.6707 78.8975 44.0277 80.0026C44.4611 80.3555 45.1618 80.6717 45.4197 81.1672C45.5201 81.3599 46.4681 81.9239 45.9164 81.8573" stroke="#005B85" stroke-width="1.5" stroke-linecap="round"/>
<path d="M38.3626 85.8135C39.1951 81.972 40.7388 78.3404 41.8779 74.5886C42.8961 71.2351 44.4167 67.8119 44.8378 64.3227" stroke="#005B85" stroke-width="1.5" stroke-linecap="round"/>
<path d="M33.7943 81.1925C33.7288 79.6052 34.6435 78.3573 35.189 76.9222C35.4311 76.2853 35.536 75.6057 35.7117 74.9503C35.9746 73.9701 36.3189 73.0172 36.7231 72.0868C37.2591 70.8531 37.6293 69.6231 37.9291 68.3047C38.2763 66.7776 38.7196 65.3001 39.1217 63.8007C39.3024 63.1268 39.6593 60.8746 40.2036 60.5605" stroke="#005B85" stroke-width="1.5" stroke-linecap="round"/>
</svg>
