<svg width="250" height="77" viewBox="0 0 250 77" fill="none" xmlns="http://www.w3.org/2000/svg">
<path d="M240.336 0.211426H9.66381C4.32663 0.211426 0 4.53806 0 9.87523V66.5752C0 71.9124 4.32663 76.239 9.66381 76.239H240.336C245.673 76.239 250 71.9124 250 66.5752V9.87523C250 4.53806 245.673 0.211426 240.336 0.211426Z" fill="#F5F8FF"/>
<path d="M77.7485 21.9774H70.8576L69.3447 25.3213H68.4121L73.8771 13.4399H74.7434L80.2085 25.3213H79.2759L77.7485 21.9774ZM77.4262 21.252L74.303 14.3943L71.1944 21.252H77.4262Z" fill="#5A475D"/>
<path d="M88.7616 16.4614L84.7555 25.3211H83.8903L79.9019 16.4614H80.8013L84.3317 24.3875L87.8963 16.4614H88.7616Z" fill="#5A475D"/>
<path d="M95.8565 17.2335C96.4444 17.793 96.7383 18.6161 96.7383 19.7028V25.3212H95.9238V23.742C95.6412 24.2626 95.2078 24.6856 94.6804 24.9554C94.1374 25.2442 93.487 25.3885 92.7292 25.3885C91.7448 25.3885 90.9669 25.1564 90.3956 24.6922C90.1192 24.4754 89.8976 24.1966 89.7487 23.8783C89.5999 23.5601 89.5279 23.2113 89.5386 22.8602C89.5386 22.1244 89.8015 21.5276 90.3272 21.0696C90.8529 20.6116 91.6933 20.3822 92.8483 20.3815H95.8855V19.6686C95.8855 18.8396 95.662 18.2117 95.2151 17.7847C94.7681 17.3578 94.1149 17.143 93.2556 17.1402C92.6786 17.1379 92.1061 17.2415 91.5665 17.4459C91.0635 17.6284 90.5997 17.9048 90.1998 18.2604L89.7759 17.649C90.2418 17.2386 90.7841 16.9241 91.3717 16.7237C91.9985 16.5028 92.6584 16.391 93.3229 16.3931C94.4234 16.3931 95.2679 16.6732 95.8565 17.2335ZM94.727 24.1834C95.2585 23.8239 95.6649 23.3078 95.8896 22.7068V21.0488H92.8691C91.9973 21.0488 91.3665 21.2074 90.9769 21.5245C90.5873 21.8415 90.3918 22.2754 90.3904 22.826C90.3801 23.0887 90.4332 23.35 90.5454 23.5878C90.6577 23.8255 90.8256 24.0327 91.0349 24.1917C91.4653 24.5261 92.0708 24.6929 92.8514 24.6922C93.5872 24.6922 94.2123 24.5226 94.727 24.1834Z" fill="#5A475D"/>
<path d="M100.167 14.1105C100.101 14.049 100.048 13.9741 100.012 13.8907C99.9761 13.8073 99.9585 13.7173 99.9601 13.6266C99.9601 13.5352 99.9781 13.4447 100.013 13.3602C100.048 13.2758 100.099 13.1991 100.164 13.1345C100.229 13.07 100.306 13.0188 100.39 12.9839C100.474 12.949 100.565 12.9311 100.656 12.9313C100.747 12.9297 100.837 12.9461 100.922 12.9795C101.006 13.0129 101.083 13.0628 101.149 13.1261C101.215 13.1876 101.268 13.2625 101.304 13.3459C101.34 13.4293 101.357 13.5193 101.356 13.61C101.356 13.7014 101.338 13.7919 101.303 13.8764C101.269 13.9609 101.217 14.0376 101.153 14.1022C101.088 14.1669 101.011 14.2181 100.927 14.2529C100.842 14.2878 100.752 14.3056 100.661 14.3053C100.569 14.3073 100.479 14.2912 100.394 14.2577C100.31 14.2243 100.232 14.1742 100.167 14.1105ZM100.235 16.4617H101.083V25.3214H100.235V16.4617Z" fill="#5A475D"/>
<path d="M104.665 12.7271H105.513V25.3213H104.665V12.7271Z" fill="#5A475D"/>
<path d="M114.61 17.2332C115.199 17.7928 115.493 18.6159 115.493 19.7025V25.3209H114.679V23.7417C114.396 24.2622 113.963 24.6851 113.435 24.9552C112.892 25.2439 112.242 25.3883 111.483 25.3883C110.499 25.3883 109.721 25.1562 109.15 24.692C108.886 24.471 108.673 24.1963 108.525 23.8861C108.377 23.5759 108.297 23.2376 108.29 22.8939C108.284 22.5502 108.351 22.2091 108.488 21.8937C108.625 21.5782 108.827 21.2957 109.082 21.0652C109.608 20.6058 110.448 20.3764 111.602 20.3771H114.64V19.6642C114.64 18.8352 114.417 18.2073 113.97 17.7803C113.523 17.3534 112.87 17.1386 112.01 17.1358C111.433 17.1336 110.86 17.2372 110.32 17.4415C109.818 17.624 109.354 17.9004 108.955 18.256L108.53 17.6446C108.996 17.2342 109.538 16.9197 110.126 16.7193C110.753 16.4983 111.413 16.3865 112.078 16.3887C113.178 16.3915 114.023 16.673 114.61 17.2332ZM113.482 24.1832C114.013 23.8237 114.42 23.3076 114.645 22.7065V21.0486H111.623C110.751 21.0486 110.12 21.2071 109.731 21.5242C109.341 21.8413 109.146 22.2751 109.146 22.8257C109.136 23.0884 109.189 23.3497 109.301 23.5875C109.414 23.8253 109.582 24.0324 109.791 24.1915C110.221 24.5258 110.826 24.6926 111.607 24.692C112.342 24.692 112.967 24.5224 113.482 24.1832Z" fill="#5A475D"/>
<path d="M125.676 16.9621C126.338 17.3362 126.882 17.8888 127.246 18.5568C127.633 19.2732 127.829 20.0773 127.815 20.8914C127.83 21.7027 127.633 22.5039 127.246 23.2167C126.879 23.8826 126.336 24.4344 125.676 24.8115C124.994 25.2004 124.221 25.3996 123.436 25.3886C122.681 25.3987 121.939 25.2019 121.289 24.8198C120.652 24.4441 120.136 23.8935 119.804 23.2333V25.3213H118.99V12.7271H119.839V18.4812C120.175 17.8402 120.687 17.308 121.314 16.9465C121.959 16.5763 122.692 16.386 123.436 16.3953C124.219 16.3839 124.992 16.5794 125.676 16.9621ZM125.218 24.1493C125.759 23.8349 126.203 23.3769 126.5 22.8261C126.806 22.2271 126.966 21.5638 126.966 20.8909C126.966 20.2181 126.806 19.5548 126.5 18.9558C126.202 18.4052 125.759 17.9473 125.218 17.6325C124.661 17.3117 124.028 17.1474 123.385 17.1569C122.745 17.1467 122.114 17.3111 121.56 17.6325C121.023 17.9494 120.583 18.407 120.288 18.9558C119.98 19.5546 119.82 20.2179 119.82 20.8909C119.82 21.5639 119.98 22.2272 120.288 22.8261C120.583 23.3753 121.023 23.833 121.56 24.1493C122.114 24.4707 122.745 24.6352 123.385 24.625C124.028 24.6344 124.661 24.4701 125.218 24.1493Z" fill="#5A475D"/>
<path d="M130.446 12.7271H131.294V25.3213H130.446V12.7271Z" fill="#5A475D"/>
<path d="M142.36 21.0913H134.741C134.751 21.7407 134.933 22.3757 135.267 22.9327C135.588 23.4619 136.05 23.8921 136.6 24.1761C137.185 24.4764 137.834 24.628 138.492 24.6176C139.042 24.6238 139.588 24.5181 140.096 24.3067C140.577 24.1056 141 23.7875 141.327 23.3814L141.819 23.942C141.429 24.4099 140.931 24.7768 140.368 25.0113C139.688 25.2876 138.955 25.4121 138.221 25.3764C137.488 25.3406 136.771 25.1453 136.12 24.8041C135.443 24.4323 134.882 23.8804 134.499 23.2093C134.101 22.5 133.899 21.6974 133.914 20.8841C133.901 20.0778 134.09 19.2811 134.465 18.5671C134.814 17.9025 135.34 17.3473 135.984 16.963C136.644 16.5861 137.391 16.3872 138.151 16.3858C138.912 16.3843 139.659 16.5804 140.321 16.9547C140.961 17.3343 141.484 17.8833 141.832 18.5412C142.207 19.2521 142.396 20.0462 142.383 20.8499L142.36 21.0913ZM136.47 17.5526C135.974 17.8287 135.56 18.2331 135.273 18.7235C134.968 19.2431 134.791 19.8277 134.755 20.4292H141.544C141.52 19.8294 141.345 19.2454 141.035 18.7318C140.736 18.2361 140.313 17.8278 139.806 17.5478C139.3 17.2679 138.728 17.1262 138.15 17.1371C137.563 17.1294 136.985 17.2736 136.47 17.5557V17.5526Z" fill="#5A475D"/>
<path d="M150.566 24.8113C149.899 24.4335 149.35 23.8783 148.979 23.2073C148.6 22.4939 148.402 21.6985 148.402 20.8908C148.402 20.0831 148.6 19.2876 148.979 18.5743C149.35 17.9033 149.899 17.3481 150.566 16.9702C151.262 16.5915 152.041 16.3931 152.832 16.3931C153.624 16.3931 154.403 16.5915 155.098 16.9702C155.764 17.3484 156.314 17.9036 156.684 18.5743C157.063 19.2876 157.261 20.0831 157.261 20.8908C157.261 21.6985 157.063 22.4939 156.684 23.2073C156.314 23.878 155.764 24.4332 155.098 24.8113C154.403 25.1901 153.624 25.3885 152.832 25.3885C152.041 25.3885 151.262 25.1901 150.566 24.8113ZM154.656 24.1492C155.194 23.8331 155.634 23.3754 155.929 22.8259C156.236 22.2271 156.396 21.5638 156.396 20.8908C156.396 20.2178 156.236 19.5545 155.929 18.9557C155.634 18.4064 155.194 17.9487 154.656 17.6324C154.099 17.3206 153.471 17.1568 152.832 17.1568C152.193 17.1568 151.564 17.3206 151.007 17.6324C150.47 17.9492 150.03 18.4068 149.734 18.9557C149.428 19.5547 149.268 20.2179 149.268 20.8908C149.268 21.5637 149.428 22.2269 149.734 22.8259C150.03 23.3755 150.472 23.8333 151.01 24.1492C151.568 24.461 152.196 24.6248 152.835 24.6248C153.474 24.6248 154.102 24.461 154.66 24.1492H154.656Z" fill="#5A475D"/>
<path d="M166.85 17.3606C167.496 18.0052 167.819 18.9329 167.818 20.1439V25.3251H166.967V20.2113C166.967 19.2165 166.716 18.4587 166.212 17.9378C165.708 17.417 165.005 17.1555 164.101 17.1534C163.059 17.1534 162.239 17.4643 161.64 18.086C161.041 18.7077 160.741 19.545 160.741 20.5978V25.3168H159.892V16.4571H160.707V18.3741C161.004 17.7605 161.48 17.2517 162.073 16.9151C162.678 16.5641 163.394 16.3887 164.22 16.3887C165.329 16.3914 166.206 16.7154 166.85 17.3606Z" fill="#5A475D"/>
<path d="M180.071 24.7606C179.841 24.9743 179.565 25.1336 179.265 25.2269C178.94 25.3352 178.599 25.3898 178.256 25.3886C177.486 25.3886 176.892 25.1765 176.473 24.7524C176.055 24.3282 175.846 23.7369 175.846 22.9783V17.191H174.221V16.4657H175.85V14.5259H176.698V16.4615H179.516V17.1869H176.698V22.8861C176.698 23.4636 176.836 23.9023 177.113 24.2021C177.389 24.5019 177.799 24.6518 178.344 24.6518C178.848 24.6701 179.341 24.4939 179.719 24.1596L180.071 24.7606Z" fill="#5A475D"/>
<path d="M189.39 17.361C190.034 18.0056 190.357 18.9333 190.357 20.1443V25.3254H189.508V20.2117C189.508 19.2169 189.256 18.4591 188.753 17.9382C188.249 17.4173 187.545 17.1559 186.64 17.1538C185.599 17.1538 184.778 17.4647 184.179 18.0864C183.579 18.7081 183.279 19.5454 183.279 20.5982V25.3172H182.431V12.7271H183.279V18.3113C183.575 17.7103 184.049 17.2153 184.637 16.8937C185.236 16.56 185.944 16.3932 186.759 16.3932C187.864 16.3932 188.741 16.7158 189.39 17.361Z" fill="#5A475D"/>
<path d="M201.355 21.0913H193.734C193.745 21.7407 193.926 22.3757 194.26 22.9327C194.582 23.4619 195.043 23.8921 195.593 24.1761C196.178 24.4764 196.828 24.628 197.485 24.6176C198.035 24.6238 198.581 24.5181 199.089 24.3067C199.57 24.1056 199.993 23.7875 200.32 23.3814L200.812 23.942C200.422 24.4099 199.924 24.7768 199.362 25.0113C198.681 25.2876 197.948 25.4121 197.215 25.3764C196.481 25.3406 195.764 25.1453 195.113 24.8041C194.436 24.4323 193.875 23.8804 193.492 23.2093C193.094 22.5 192.892 21.6974 192.907 20.8841C192.894 20.0778 193.083 19.2811 193.458 18.5671C193.807 17.9025 194.333 17.3473 194.977 16.963C195.638 16.5861 196.384 16.3872 197.145 16.3858C197.905 16.3843 198.652 16.5804 199.314 16.9547C199.954 17.3343 200.477 17.8833 200.825 18.5412C201.2 19.2521 201.389 20.0462 201.376 20.8499L201.355 21.0913ZM195.463 17.5557C194.967 17.8318 194.553 18.2362 194.267 18.7266C193.961 19.2462 193.784 19.8308 193.748 20.4323H200.541C200.518 19.8325 200.343 19.2485 200.032 18.7349C199.734 18.2392 199.31 17.8309 198.803 17.5509C198.297 17.271 197.726 17.1293 197.147 17.1402C196.559 17.1308 195.979 17.274 195.463 17.5557Z" fill="#5A475D"/>
<path d="M81.9321 46.1366H85.4169V54.043C84.3512 54.8798 83.1408 55.5137 81.8461 55.9133C80.4898 56.347 79.0743 56.5669 77.6504 56.5651C75.6277 56.5651 73.8043 56.1258 72.1802 55.2471C70.5946 54.407 69.2707 53.1469 68.3534 51.6047C67.4271 50.0552 66.9639 48.3071 66.9639 46.3604C66.9639 44.4137 67.4271 42.6659 68.3534 41.1171C69.2739 39.5727 70.6028 38.3123 72.1937 37.4748C73.8275 36.5961 75.6654 36.1567 77.7074 36.1567C79.3695 36.1567 80.8814 36.4306 82.243 36.9785C83.5615 37.4974 84.7374 38.3233 85.6729 39.3877L83.3445 41.658C81.833 40.1465 80.0096 39.3904 77.8742 39.3898C76.4753 39.3898 75.2319 39.6827 74.1439 40.2685C73.0782 40.834 72.1939 41.6888 71.5927 42.7347C70.9785 43.7937 70.6715 45.0026 70.6715 46.3615C70.6527 47.6131 70.9709 48.8468 71.5927 49.9333C72.1975 50.9835 73.0802 51.8466 74.1439 52.4275C75.2298 53.0326 76.4629 53.3352 77.8432 53.3352C79.3927 53.3352 80.7532 52.995 81.9249 52.3145L81.9321 46.1366Z" fill="#5A475D"/>
<path d="M92.5896 55.4938C91.3904 54.8604 90.3933 53.9028 89.712 52.7302C89.0212 51.5489 88.6758 50.2118 88.6758 48.719C88.6758 47.2261 89.0212 45.8939 89.712 44.7223C90.3966 43.5556 91.3931 42.6032 92.5896 41.9721C93.8172 41.311 95.1967 40.9805 96.7283 40.9805C98.2771 40.9805 99.666 41.311 100.895 41.9721C102.09 42.6021 103.086 43.5526 103.771 44.7171C104.462 45.8915 104.808 47.2237 104.808 48.7138C104.808 50.2039 104.462 51.541 103.771 52.725C103.091 53.8993 102.094 54.8587 100.895 55.4938C99.666 56.1549 98.2771 56.4855 96.7283 56.4855C95.1974 56.4834 93.8179 56.1528 92.5896 55.4938ZM99.9592 52.1489C100.81 51.2791 101.235 50.1358 101.235 48.719C101.234 47.3021 100.809 46.1588 99.9592 45.2891C99.1088 44.4193 98.0318 43.9848 96.7283 43.9855C95.4247 43.9862 94.3522 44.4207 93.5108 45.2891C92.6694 46.1588 92.249 47.3021 92.2497 48.719C92.2504 50.1358 92.6708 51.2791 93.5108 52.1489C94.3515 53.0186 95.424 53.4531 96.7283 53.4524C98.0325 53.4517 99.1095 53.0162 99.9592 52.1458V52.1489Z" fill="#5A475D"/>
<path d="M110.872 55.4938C109.673 54.8604 108.676 53.9028 107.995 52.7302C107.304 51.5489 106.959 50.2118 106.959 48.719C106.959 47.2261 107.304 45.8939 107.995 44.7223C108.679 43.5556 109.676 42.6032 110.872 41.9721C112.101 41.311 113.48 40.9805 115.01 40.9805C116.559 40.9805 117.948 41.311 119.177 41.9721C120.373 42.6018 121.369 43.5523 122.055 44.7171C122.745 45.8915 123.091 47.2237 123.091 48.7138C123.091 50.2039 122.745 51.541 122.055 52.725C121.374 53.8996 120.377 54.859 119.177 55.4938C117.95 56.1549 116.561 56.4855 115.01 56.4855C113.48 56.4834 112.101 56.1528 110.872 55.4938ZM118.242 52.1489C119.092 51.2791 119.517 50.1358 119.518 48.719C119.519 47.3021 119.093 46.1588 118.242 45.2891C117.391 44.4193 116.314 43.9848 115.01 43.9855C113.707 43.9862 112.636 44.4207 111.798 45.2891C110.958 46.1588 110.538 47.3021 110.537 48.719C110.536 50.1358 110.957 51.2791 111.798 52.1489C112.64 53.0186 113.71 53.4531 115.01 53.4524C116.311 53.4517 117.388 53.0162 118.242 52.1458V52.1489Z" fill="#5A475D"/>
<path d="M141.514 41.1475V53.9883C141.514 59.3173 138.792 61.9817 133.35 61.9817C131.951 61.9894 130.559 61.8032 129.212 61.4284C127.907 61.0609 126.83 60.5272 125.98 59.8274L127.567 57.1633C128.229 57.7104 129.065 58.1498 130.076 58.4814C131.069 58.8083 132.107 58.9755 133.152 58.9767C134.815 58.9767 136.034 58.5988 136.808 57.8431C137.583 57.0873 137.97 55.9347 137.97 54.3852V53.5915C137.359 54.2563 136.603 54.7705 135.76 55.094C134.846 55.4418 133.875 55.6148 132.897 55.6038C131.46 55.6038 130.161 55.2967 128.998 54.6826C127.859 54.0909 126.908 53.1939 126.249 52.092C125.579 50.9771 125.243 49.7015 125.243 48.2653C125.243 46.8291 125.579 45.5583 126.249 44.453C126.909 43.3582 127.861 42.4696 128.998 41.8873C130.161 41.2836 131.46 40.9813 132.897 40.9806C133.919 40.9676 134.934 41.1505 135.887 41.5195C136.767 41.8653 137.542 42.4312 138.14 43.1629V41.1475H141.514ZM136.737 51.3947C137.597 50.5919 138.027 49.5478 138.027 48.2622C138.027 46.9966 137.597 45.9669 136.737 45.1732C135.877 44.3794 134.776 43.9826 133.435 43.9826C132.075 43.9826 130.965 44.3794 130.104 45.1732C129.243 45.9669 128.814 46.9966 128.815 48.2622C128.815 49.5485 129.245 50.5926 130.104 51.3947C130.963 52.1967 132.074 52.5981 133.435 52.5988C134.776 52.5988 135.877 52.1974 136.737 51.3947Z" fill="#5A475D"/>
<path d="M146.161 35.251H149.705V56.2863H146.161V35.251Z" fill="#5A475D"/>
<path d="M168.522 49.8498H156.649C156.825 50.9125 157.41 51.864 158.279 52.5004C159.158 53.1519 160.249 53.4776 161.553 53.4776C163.215 53.4776 164.585 52.9298 165.663 51.8342L167.562 54.0164C166.871 54.8372 165.984 55.4707 164.983 55.8588C163.947 56.2733 162.775 56.4806 161.468 56.4806C159.805 56.4806 158.34 56.15 157.075 55.4889C155.852 54.8682 154.833 53.9089 154.14 52.7253C153.449 51.544 153.104 50.2069 153.104 48.7141C153.104 47.2392 153.439 45.9115 154.11 44.7309C154.766 43.5662 155.735 42.6088 156.908 41.9673C158.098 41.3061 159.439 40.9756 160.933 40.9756C162.406 40.9756 163.724 41.3017 164.887 41.9538C166.036 42.5934 166.98 43.5469 167.608 44.7029C168.259 45.8842 168.586 47.2496 168.586 48.7991C168.583 49.0467 168.563 49.3959 168.522 49.8498ZM158.056 44.821C157.271 45.4918 156.794 46.3847 156.625 47.4996H165.206C165.054 46.4033 164.591 45.5149 163.816 44.8345C163.042 44.154 162.078 43.8138 160.925 43.8138C159.795 43.8124 158.838 44.1482 158.056 44.821Z" fill="#5A475D"/>
<path d="M192.804 37.2926C194.08 37.8598 195.058 38.6722 195.737 39.7298C196.417 40.7875 196.757 42.0444 196.758 43.5006C196.758 44.9368 196.418 46.1886 195.737 47.2559C195.057 48.3232 194.079 49.1404 192.804 49.7076C191.528 50.2748 190.03 50.5583 188.311 50.5583H183.832V56.2845H180.147V36.4419H188.314C190.031 36.4419 191.528 36.7255 192.804 37.2926ZM191.798 46.4197C192.627 45.7399 193.041 44.7669 193.041 43.5006C193.041 42.2344 192.627 41.261 191.798 40.5806C190.969 39.8994 189.75 39.5592 188.141 39.5599H183.832V47.4352H188.141C189.747 47.4386 190.966 47.1001 191.798 46.4197Z" fill="#5A475D"/>
<path d="M200.386 35.251H203.93V56.2863H200.386V35.251Z" fill="#5A475D"/>
<path d="M219.476 42.5793C220.657 43.6466 221.248 45.2576 221.248 47.4122V56.2843H217.903V54.4419C217.448 55.1202 216.801 55.6479 216.046 55.9579C215.243 56.3075 214.276 56.4823 213.144 56.4823C212.013 56.4823 211.021 56.2885 210.167 55.9009C209.372 55.5588 208.689 54.9988 208.199 54.2855C207.735 53.5945 207.493 52.7787 207.504 51.9467C207.504 50.5865 208.01 49.4954 209.02 48.6733C210.031 47.8512 211.623 47.4402 213.797 47.4402H217.709V47.2133C217.709 46.1549 217.392 45.3425 216.759 44.7761C216.125 44.2096 215.185 43.926 213.939 43.9253C213.087 43.9257 212.241 44.0596 211.431 44.3222C210.671 44.5528 209.963 44.9283 209.347 45.4278L207.958 42.8476C208.818 42.2107 209.789 41.7398 210.821 41.4591C211.974 41.1326 213.166 40.9704 214.364 40.9773C216.591 40.9773 218.295 41.5113 219.476 42.5793ZM216.245 53.2938C216.922 52.9028 217.439 52.2851 217.705 51.5498V49.7945H214.048C212.007 49.7945 210.986 50.4656 210.987 51.8079C210.978 52.1063 211.043 52.4023 211.177 52.6693C211.31 52.9364 211.508 53.1663 211.752 53.3384C212.262 53.7169 212.971 53.9059 213.878 53.9052C214.708 53.9197 215.526 53.7084 216.245 53.2938Z" fill="#5A475D"/>
<path d="M239.673 41.1472L232.586 57.5029C231.925 59.1464 231.122 60.3039 230.177 60.9753C229.232 61.6468 228.089 61.9822 226.747 61.9815C225.986 61.9805 225.229 61.8559 224.508 61.6126C223.838 61.4049 223.219 61.0574 222.693 60.593L224.111 57.9806C224.461 58.3087 224.87 58.5681 225.316 58.7454C225.761 58.9312 226.237 59.0277 226.719 59.0293C227.341 59.0293 227.855 58.8687 228.263 58.5474C228.671 58.2262 229.044 57.6877 229.383 56.932L229.638 56.3362L223.033 41.1431H226.719L231.481 52.3394L236.271 41.1431L239.673 41.1472Z" fill="#5A475D"/>
<path d="M60.1557 37.2561L50.6307 31.7642L42.7969 39.3286L49.9561 46.2495L60.1557 40.3648C60.4283 40.2071 60.6546 39.9804 60.8119 39.7076C60.9693 39.4348 61.0521 39.1254 61.0521 38.8105C61.0521 38.4955 60.9693 38.1861 60.8119 37.9133C60.6546 37.6405 60.4283 37.4139 60.1557 37.2561Z" fill="#5A475D"/>
<path d="M49.0144 30.8244L38.5319 24.7739L15.562 13.0024L41.5069 38.0821L49.0144 30.8244Z" fill="#5A475D"/>
<path d="M15.9419 65.2893L38.5709 52.8246L48.3394 47.1855L41.5065 40.5796L15.9419 65.2893Z" fill="#5A475D"/>
<path d="M14.0283 14.0171L14.0034 64.6676L40.2147 39.3299L14.0283 14.0171Z" fill="#5A475D"/>
</svg>
