<svg width="250" height="77" viewBox="0 0 250 77" fill="none" xmlns="http://www.w3.org/2000/svg">
<path d="M240.336 0.819336H9.66381C4.32663 0.819336 0 5.14597 0 10.4831V67.1831C0 72.5203 4.32663 76.847 9.66381 76.847H240.336C245.673 76.847 250 72.5203 250 67.1831V10.4831C250 5.14597 245.673 0.819336 240.336 0.819336Z" fill="#F2FFE7"/>
<path d="M81.9321 48.7447H85.4169V56.6511C84.3512 57.4879 83.1408 58.1219 81.8461 58.5215C80.4898 58.9552 79.0743 59.1751 77.6504 59.1733C75.6277 59.1733 73.8043 58.7339 72.1802 57.8552C70.5946 57.0152 69.2707 55.7551 68.3534 54.2129C67.4271 52.6634 66.9639 50.9153 66.9639 48.9686C66.9639 47.0219 67.4271 45.2741 68.3534 43.7253C69.2739 42.1809 70.6028 40.9205 72.1937 40.083C73.8275 39.2042 75.6654 38.7649 77.7074 38.7649C79.3695 38.7649 80.8814 39.0388 82.243 39.5866C83.5615 40.1056 84.7374 40.9315 85.6729 41.9958L83.3445 44.2662C81.833 42.7547 80.0096 41.9986 77.8742 41.9979C76.4753 41.9979 75.2319 42.2908 74.1439 42.8766C73.0782 43.4421 72.1939 44.297 71.5927 45.3428C70.9785 46.4018 70.6715 47.6108 70.6715 48.9696C70.6527 50.2213 70.9709 51.455 71.5927 52.5415C72.1975 53.5917 73.0802 54.4547 74.1439 55.0356C75.2298 55.6408 76.4629 55.9434 77.8432 55.9434C79.3927 55.9434 80.7532 55.6032 81.9249 54.9227L81.9321 48.7447Z" fill="#5A475D"/>
<path d="M92.5896 58.1017C91.3904 57.4683 90.3933 56.5107 89.712 55.3381C89.0212 54.1568 88.6758 52.8197 88.6758 51.3269C88.6758 49.834 89.0212 48.5018 89.712 47.3302C90.3966 46.1635 91.3931 45.2111 92.5896 44.58C93.8172 43.9189 95.1967 43.5884 96.7283 43.5884C98.2771 43.5884 99.666 43.9189 100.895 44.58C102.09 45.21 103.086 46.1605 103.771 47.325C104.462 48.4994 104.808 49.8316 104.808 51.3217C104.808 52.8118 104.462 54.1489 103.771 55.3329C103.091 56.5072 102.094 57.4666 100.895 58.1017C99.666 58.7628 98.2771 59.0934 96.7283 59.0934C95.1974 59.0913 93.8179 58.7607 92.5896 58.1017ZM99.9592 54.7568C100.81 53.887 101.235 52.7437 101.235 51.3269C101.234 49.91 100.809 48.7667 99.9592 47.897C99.1088 47.0273 98.0318 46.5927 96.7283 46.5934C95.4247 46.5941 94.3522 47.0286 93.5108 47.897C92.6694 48.7667 92.249 49.91 92.2497 51.3269C92.2504 52.7437 92.6708 53.887 93.5108 54.7568C94.3515 55.6265 95.424 56.061 96.7283 56.0603C98.0325 56.0597 99.1095 55.6241 99.9592 54.7537V54.7568Z" fill="#5A475D"/>
<path d="M110.872 58.1017C109.673 57.4683 108.676 56.5107 107.995 55.3381C107.304 54.1568 106.959 52.8197 106.959 51.3269C106.959 49.834 107.304 48.5018 107.995 47.3302C108.679 46.1636 109.676 45.2111 110.872 44.58C112.101 43.9189 113.48 43.5884 115.01 43.5884C116.559 43.5884 117.948 43.9189 119.177 44.58C120.373 45.2097 121.369 46.1602 122.055 47.325C122.745 48.4994 123.091 49.8316 123.091 51.3217C123.091 52.8118 122.745 54.1489 122.055 55.3329C121.374 56.5075 120.377 57.4669 119.177 58.1017C117.95 58.7628 116.561 59.0934 115.01 59.0934C113.48 59.0913 112.101 58.7607 110.872 58.1017ZM118.242 54.7568C119.092 53.887 119.517 52.7437 119.518 51.3269C119.519 49.91 119.093 48.7667 118.242 47.897C117.391 47.0273 116.314 46.5927 115.01 46.5934C113.707 46.5941 112.636 47.0286 111.798 47.897C110.958 48.7667 110.538 49.91 110.537 51.3269C110.536 52.7437 110.957 53.887 111.798 54.7568C112.64 55.6265 113.71 56.061 115.01 56.0603C116.311 56.0597 117.388 55.6241 118.242 54.7537V54.7568Z" fill="#5A475D"/>
<path d="M141.514 43.7554V56.5962C141.514 61.9252 138.792 64.5897 133.35 64.5897C131.951 64.5973 130.559 64.4111 129.212 64.0363C127.907 63.6688 126.83 63.1351 125.98 62.4354L127.567 59.7712C128.229 60.3183 129.065 60.7577 130.076 61.0893C131.069 61.4162 132.107 61.5834 133.152 61.5846C134.815 61.5846 136.034 61.2067 136.808 60.451C137.583 59.6952 137.97 58.5426 137.97 56.9931V56.1994C137.359 56.8642 136.603 57.3785 135.76 57.7019C134.846 58.0497 133.875 58.2227 132.897 58.2117C131.46 58.2117 130.161 57.9046 128.998 57.2905C127.859 56.6988 126.908 55.8018 126.249 54.7C125.579 53.585 125.243 52.3094 125.243 50.8732C125.243 49.437 125.579 48.1662 126.249 47.0609C126.909 45.9661 127.861 45.0775 128.998 44.4952C130.161 43.8915 131.46 43.5892 132.897 43.5885C133.919 43.5755 134.934 43.7584 135.887 44.1274C136.767 44.4732 137.542 45.0391 138.14 45.7708V43.7554H141.514ZM136.737 54.0026C137.597 53.1998 138.027 52.1557 138.027 50.8701C138.027 49.6045 137.597 48.5748 136.737 47.7811C135.877 46.9874 134.776 46.5905 133.435 46.5905C132.075 46.5905 130.965 46.9874 130.104 47.7811C129.243 48.5748 128.814 49.6045 128.815 50.8701C128.815 52.1564 129.245 53.2005 130.104 54.0026C130.963 54.8046 132.074 55.206 133.435 55.2067C134.776 55.2067 135.877 54.8053 136.737 54.0026Z" fill="#5A475D"/>
<path d="M146.161 37.8591H149.705V58.8944H146.161V37.8591Z" fill="#5A475D"/>
<path d="M168.521 52.4575H156.648C156.824 53.5201 157.409 54.4717 158.278 55.1081C159.157 55.7596 160.249 56.0853 161.553 56.0853C163.215 56.0853 164.585 55.5375 165.663 54.4418L167.562 56.6241C166.87 57.4448 165.983 58.0784 164.983 58.4665C163.947 58.881 162.775 59.0882 161.468 59.0882C159.804 59.0882 158.34 58.7577 157.074 58.0966C155.851 57.4759 154.833 56.5166 154.14 55.333C153.449 54.1517 153.104 52.8146 153.104 51.3218C153.104 49.8469 153.439 48.5191 154.11 47.3385C154.766 46.1739 155.735 45.2165 156.907 44.5749C158.097 43.9138 159.439 43.5833 160.932 43.5833C162.406 43.5833 163.724 43.9093 164.886 44.5614C166.036 45.201 166.98 46.1545 167.608 47.3105C168.259 48.4918 168.585 49.8572 168.586 51.4067C168.583 51.6544 168.563 52.0036 168.521 52.4575ZM158.056 47.4287C157.271 48.0995 156.794 48.9923 156.625 50.1073H165.206C165.054 49.011 164.59 48.1226 163.816 47.4421C163.042 46.7617 162.078 46.4215 160.925 46.4215C159.794 46.4201 158.838 46.7558 158.056 47.4287Z" fill="#5A475D"/>
<path d="M192.804 39.9005C194.08 40.4677 195.058 41.2801 195.737 42.3377C196.417 43.3954 196.757 44.6523 196.758 46.1085C196.758 47.5448 196.418 48.7965 195.737 49.8638C195.057 50.9311 194.079 51.7484 192.804 52.3155C191.528 52.8827 190.03 53.1663 188.311 53.1663H183.832V58.8924H180.147V39.0498H188.314C190.031 39.0498 191.528 39.3334 192.804 39.9005ZM191.798 49.0276C192.627 48.3478 193.041 47.3748 193.041 46.1085C193.041 44.8423 192.627 43.8689 191.798 43.1885C190.969 42.5073 189.75 42.1671 188.141 42.1678H183.832V50.0431H188.141C189.747 50.0465 190.966 49.708 191.798 49.0276Z" fill="#5A475D"/>
<path d="M200.386 37.8591H203.93V58.8944H200.386V37.8591Z" fill="#5A475D"/>
<path d="M219.476 45.1874C220.657 46.2547 221.248 47.8657 221.248 50.0204V58.8925H217.903V57.0501C217.448 57.7283 216.801 58.256 216.046 58.5661C215.243 58.9156 214.276 59.0904 213.144 59.0904C212.013 59.0904 211.021 58.8966 210.167 58.5091C209.372 58.1669 208.689 57.6069 208.199 56.8936C207.735 56.2026 207.493 55.3869 207.504 54.5549C207.504 53.1947 208.01 52.1035 209.02 51.2814C210.031 50.4594 211.623 50.0483 213.797 50.0483H217.709V49.8214C217.709 48.7631 217.392 47.9507 216.759 47.3842C216.125 46.8177 215.185 46.5342 213.939 46.5335C213.087 46.5338 212.241 46.6677 211.431 46.9303C210.671 47.161 209.963 47.5364 209.347 48.036L207.958 45.4558C208.818 44.8189 209.789 44.348 210.821 44.0673C211.974 43.7408 213.166 43.5785 214.364 43.5854C216.591 43.5854 218.295 44.1194 219.476 45.1874ZM216.245 55.902C216.922 55.5109 217.439 54.8933 217.705 54.158V52.4026H214.048C212.007 52.4026 210.986 53.0738 210.987 54.416C210.978 54.7144 211.043 55.0104 211.177 55.2775C211.31 55.5446 211.508 55.7744 211.752 55.9465C212.262 56.3251 212.971 56.514 213.878 56.5133C214.708 56.5279 215.526 56.3165 216.245 55.902Z" fill="#5A475D"/>
<path d="M239.673 43.7554L232.586 60.1111C231.925 61.7545 231.122 62.912 230.177 63.5835C229.232 64.2549 228.089 64.5903 226.747 64.5896C225.986 64.5886 225.229 64.464 224.508 64.2208C223.838 64.0131 223.219 63.6656 222.693 63.2011L224.111 60.5888C224.461 60.9169 224.87 61.1763 225.316 61.3535C225.761 61.5394 226.237 61.6358 226.719 61.6374C227.341 61.6374 227.855 61.4768 228.263 61.1556C228.671 60.8344 229.044 60.2959 229.383 59.5401L229.638 58.9443L223.033 43.7512H226.719L231.481 54.9476L236.271 43.7512L239.673 43.7554Z" fill="#5A475D"/>
<path d="M60.1557 37.8643L50.6307 32.3723L42.7969 39.9367L49.9561 46.8577L60.1557 40.973C60.4283 40.8152 60.6546 40.5886 60.8119 40.3158C60.9693 40.043 61.0521 39.7336 61.0521 39.4186C61.0521 39.1037 60.9693 38.7943 60.8119 38.5215C60.6546 38.2487 60.4283 38.022 60.1557 37.8643Z" fill="#5A475D"/>
<path d="M49.0149 31.4323L38.5324 25.3818L15.5625 13.6104L41.5074 38.69L49.0149 31.4323Z" fill="#5A475D"/>
<path d="M15.9424 65.8973L38.5714 53.4325L48.3399 47.7934L41.507 41.1875L15.9424 65.8973Z" fill="#5A475D"/>
<path d="M14.0288 14.625L14.0039 65.2755L40.2151 39.9378L14.0288 14.625Z" fill="#5A475D"/>
<path d="M71.8941 17.1553H67.5381V16.0753H77.4381V17.1553H73.0821V28.8193H71.8941V17.1553ZM86.0581 27.2533C85.6381 27.8893 85.1161 28.3453 84.4921 28.6213C83.8801 28.8973 83.2021 29.0353 82.4581 29.0353C81.8221 29.0353 81.2461 28.9273 80.7301 28.7113C80.2141 28.4953 79.7701 28.1953 79.3981 27.8113C79.0261 27.4153 78.7381 26.9533 78.5341 26.4253C78.3421 25.8853 78.2461 25.2913 78.2461 24.6433C78.2461 24.0193 78.3481 23.4433 78.5521 22.9153C78.7561 22.3873 79.0441 21.9313 79.4161 21.5473C79.7881 21.1513 80.2261 20.8453 80.7301 20.6293C81.2341 20.4013 81.7921 20.2873 82.4041 20.2873C83.0401 20.2873 83.5981 20.4013 84.0781 20.6293C84.5701 20.8453 84.9781 21.1393 85.3021 21.5113C85.6381 21.8713 85.8901 22.2853 86.0581 22.7533C86.2261 23.2213 86.3101 23.6953 86.3101 24.1753V24.9313H79.3261C79.3261 25.1593 79.3681 25.4533 79.4521 25.8133C79.5481 26.1613 79.7161 26.5033 79.9561 26.8393C80.1961 27.1753 80.5141 27.4633 80.9101 27.7033C81.3181 27.9433 81.8401 28.0633 82.4761 28.0633C83.0281 28.0633 83.5621 27.9313 84.0781 27.6673C84.5941 27.4033 84.9901 27.0433 85.2661 26.5873L86.0581 27.2533ZM85.2301 23.9593C85.2301 23.5873 85.1521 23.2393 84.9961 22.9153C84.8521 22.5913 84.6481 22.3093 84.3841 22.0693C84.1321 21.8173 83.8261 21.6193 83.4661 21.4753C83.1181 21.3313 82.7461 21.2593 82.3501 21.2593C81.7621 21.2593 81.2701 21.3793 80.8741 21.6193C80.4901 21.8593 80.1841 22.1353 79.9561 22.4473C79.7281 22.7593 79.5661 23.0653 79.4701 23.3653C79.3741 23.6533 79.3261 23.8513 79.3261 23.9593H85.2301ZM83.1061 16.0753H84.5461L82.1341 18.6673H81.2341L83.1061 16.0753ZM90.5161 15.2113H91.5961V28.8193H90.5161V15.2113ZM103.624 27.2533C103.204 27.8893 102.682 28.3453 102.058 28.6213C101.446 28.8973 100.768 29.0353 100.024 29.0353C99.3883 29.0353 98.8123 28.9273 98.2963 28.7113C97.7803 28.4953 97.3363 28.1953 96.9643 27.8113C96.5923 27.4153 96.3043 26.9533 96.1003 26.4253C95.9083 25.8853 95.8123 25.2913 95.8123 24.6433C95.8123 24.0193 95.9143 23.4433 96.1183 22.9153C96.3223 22.3873 96.6103 21.9313 96.9823 21.5473C97.3543 21.1513 97.7923 20.8453 98.2963 20.6293C98.8003 20.4013 99.3583 20.2873 99.9703 20.2873C100.606 20.2873 101.164 20.4013 101.644 20.6293C102.136 20.8453 102.544 21.1393 102.868 21.5113C103.204 21.8713 103.456 22.2853 103.624 22.7533C103.792 23.2213 103.876 23.6953 103.876 24.1753V24.9313H96.8923C96.8923 25.1593 96.9343 25.4533 97.0183 25.8133C97.1143 26.1613 97.2823 26.5033 97.5223 26.8393C97.7623 27.1753 98.0803 27.4633 98.4763 27.7033C98.8843 27.9433 99.4063 28.0633 100.042 28.0633C100.594 28.0633 101.128 27.9313 101.644 27.6673C102.16 27.4033 102.556 27.0433 102.832 26.5873L103.624 27.2533ZM102.796 23.9593C102.796 23.5873 102.718 23.2393 102.562 22.9153C102.418 22.5913 102.214 22.3093 101.95 22.0693C101.698 21.8173 101.392 21.6193 101.032 21.4753C100.684 21.3313 100.312 21.2593 99.9163 21.2593C99.3283 21.2593 98.8363 21.3793 98.4403 21.6193C98.0563 21.8593 97.7503 22.1353 97.5223 22.4473C97.2943 22.7593 97.1323 23.0653 97.0363 23.3653C96.9403 23.6533 96.8923 23.8513 96.8923 23.9593H102.796ZM100.672 16.0753H102.112L99.7003 18.6673H98.8003L100.672 16.0753ZM114.868 27.5953C114.46 28.0873 113.998 28.4533 113.482 28.6933C112.966 28.9213 112.408 29.0353 111.808 29.0353C111.172 29.0353 110.584 28.9273 110.044 28.7113C109.504 28.4953 109.042 28.1953 108.658 27.8113C108.274 27.4153 107.974 26.9533 107.758 26.4253C107.542 25.8853 107.434 25.2973 107.434 24.6613C107.434 24.0253 107.542 23.4433 107.758 22.9153C107.974 22.3753 108.274 21.9133 108.658 21.5293C109.042 21.1333 109.504 20.8273 110.044 20.6113C110.584 20.3953 111.172 20.2873 111.808 20.2873C112.42 20.2873 112.984 20.4133 113.5 20.6653C114.028 20.9173 114.496 21.2713 114.904 21.7273L114.04 22.3753C113.728 22.0273 113.386 21.7573 113.014 21.5653C112.642 21.3613 112.24 21.2593 111.808 21.2593C111.304 21.2593 110.848 21.3493 110.44 21.5293C110.032 21.7093 109.684 21.9553 109.396 22.2673C109.108 22.5673 108.886 22.9273 108.73 23.3473C108.586 23.7553 108.514 24.1933 108.514 24.6613C108.514 25.1293 108.586 25.5733 108.73 25.9933C108.886 26.4013 109.108 26.7613 109.396 27.0733C109.684 27.3733 110.032 27.6133 110.44 27.7933C110.848 27.9733 111.304 28.0633 111.808 28.0633C112.264 28.0633 112.678 27.9613 113.05 27.7573C113.434 27.5413 113.764 27.2593 114.04 26.9113L114.868 27.5953ZM118.188 15.2113H119.268V21.9613H119.304C119.52 21.5053 119.88 21.1153 120.384 20.7913C120.888 20.4553 121.476 20.2873 122.148 20.2873C122.796 20.2873 123.324 20.3893 123.732 20.5933C124.14 20.7973 124.458 21.0673 124.686 21.4033C124.926 21.7273 125.088 22.1053 125.172 22.5373C125.268 22.9693 125.316 23.4133 125.316 23.8693V28.8193H124.236V23.9233C124.236 23.5873 124.206 23.2633 124.146 22.9513C124.086 22.6273 123.978 22.3393 123.822 22.0873C123.678 21.8353 123.468 21.6373 123.192 21.4933C122.928 21.3373 122.58 21.2593 122.148 21.2593C121.752 21.2593 121.374 21.3313 121.014 21.4753C120.666 21.6073 120.36 21.8173 120.096 22.1053C119.844 22.3813 119.64 22.7353 119.484 23.1673C119.34 23.5873 119.268 24.0853 119.268 24.6613V28.8193H118.188V15.2113ZM136.272 25.3273C136.272 25.7353 136.272 26.1013 136.272 26.4253C136.284 26.7493 136.296 27.0493 136.308 27.3253C136.32 27.6013 136.332 27.8593 136.344 28.0993C136.368 28.3393 136.398 28.5793 136.434 28.8193H135.426C135.354 28.4113 135.318 27.9613 135.318 27.4693H135.282C134.97 28.0093 134.58 28.4053 134.112 28.6573C133.656 28.9093 133.074 29.0353 132.366 29.0353C132.006 29.0353 131.652 28.9873 131.304 28.8913C130.956 28.8073 130.644 28.6693 130.368 28.4773C130.092 28.2733 129.864 28.0153 129.684 27.7033C129.516 27.3913 129.432 27.0133 129.432 26.5693C129.432 25.9333 129.594 25.4293 129.918 25.0573C130.242 24.6853 130.638 24.4093 131.106 24.2293C131.586 24.0373 132.09 23.9173 132.618 23.8693C133.158 23.8093 133.632 23.7793 134.04 23.7793H135.3V23.2753C135.3 22.5553 135.078 22.0393 134.634 21.7273C134.19 21.4153 133.632 21.2593 132.96 21.2593C132 21.2593 131.154 21.5713 130.422 22.1953L129.792 21.4573C130.188 21.0733 130.68 20.7853 131.268 20.5933C131.856 20.3893 132.42 20.2873 132.96 20.2873C133.968 20.2873 134.772 20.5273 135.372 21.0073C135.972 21.4753 136.272 22.2373 136.272 23.2933V25.3273ZM134.112 24.6433C133.656 24.6433 133.212 24.6733 132.78 24.7333C132.36 24.7933 131.976 24.8953 131.628 25.0393C131.292 25.1833 131.022 25.3753 130.818 25.6153C130.614 25.8553 130.512 26.1553 130.512 26.5153C130.512 26.7673 130.566 26.9953 130.674 27.1993C130.794 27.3913 130.944 27.5533 131.124 27.6853C131.304 27.8053 131.502 27.9013 131.718 27.9733C131.946 28.0333 132.174 28.0633 132.402 28.0633C132.978 28.0633 133.452 27.9793 133.824 27.8113C134.196 27.6433 134.49 27.4273 134.706 27.1633C134.934 26.8873 135.09 26.5813 135.174 26.2453C135.258 25.8973 135.3 25.5493 135.3 25.2013V24.6433H134.112ZM140.764 22.8433C140.764 22.6873 140.758 22.5013 140.746 22.2853C140.734 22.0573 140.722 21.8293 140.71 21.6013C140.71 21.3733 140.704 21.1633 140.692 20.9713C140.68 20.7673 140.674 20.6113 140.674 20.5033H141.754C141.766 20.8153 141.772 21.1153 141.772 21.4033C141.784 21.6913 141.802 21.8773 141.826 21.9613C142.102 21.4693 142.456 21.0673 142.888 20.7553C143.32 20.4433 143.848 20.2873 144.472 20.2873C144.58 20.2873 144.682 20.2993 144.778 20.3233C144.886 20.3353 144.994 20.3533 145.102 20.3773L144.976 21.4393C144.832 21.3913 144.694 21.3673 144.562 21.3673C144.094 21.3673 143.686 21.4453 143.338 21.6013C143.002 21.7453 142.72 21.9493 142.492 22.2133C142.276 22.4773 142.114 22.7893 142.006 23.1493C141.898 23.4973 141.844 23.8753 141.844 24.2833V28.8193H140.764V22.8433ZM156.414 28.2793C156.414 29.3113 156.264 30.1453 155.964 30.7813C155.664 31.4173 155.286 31.9093 154.83 32.2573C154.386 32.6053 153.906 32.8393 153.39 32.9593C152.874 33.0793 152.406 33.1393 151.986 33.1393C151.566 33.1393 151.152 33.0973 150.744 33.0133C150.348 32.9413 149.97 32.8273 149.61 32.6713C149.25 32.5273 148.92 32.3473 148.62 32.1313C148.332 31.9153 148.08 31.6693 147.864 31.3933L148.71 30.6013C149.094 31.1413 149.574 31.5373 150.15 31.7893C150.726 32.0413 151.338 32.1673 151.986 32.1673C152.538 32.1673 153 32.0953 153.372 31.9513C153.756 31.8073 154.068 31.6153 154.308 31.3753C154.56 31.1473 154.752 30.8893 154.884 30.6013C155.028 30.3253 155.13 30.0433 155.19 29.7553C155.262 29.4793 155.304 29.2153 155.316 28.9633C155.328 28.7113 155.334 28.5073 155.334 28.3513V27.1993H155.298C154.986 27.7033 154.56 28.0993 154.02 28.3873C153.492 28.6753 152.868 28.8193 152.148 28.8193C151.536 28.8193 150.96 28.7113 150.42 28.4953C149.88 28.2673 149.406 27.9613 148.998 27.5773C148.602 27.1813 148.284 26.7253 148.044 26.2093C147.816 25.6933 147.702 25.1413 147.702 24.5533C147.702 23.9653 147.816 23.4133 148.044 22.8973C148.284 22.3813 148.602 21.9313 148.998 21.5473C149.406 21.1633 149.88 20.8573 150.42 20.6293C150.96 20.4013 151.536 20.2873 152.148 20.2873C152.868 20.2873 153.492 20.4313 154.02 20.7193C154.56 21.0073 154.986 21.4033 155.298 21.9073H155.334V20.5033H156.414V28.2793ZM155.37 24.5533C155.37 24.0973 155.28 23.6713 155.1 23.2753C154.932 22.8673 154.698 22.5193 154.398 22.2313C154.11 21.9313 153.762 21.6973 153.354 21.5293C152.958 21.3493 152.532 21.2593 152.076 21.2593C151.62 21.2593 151.188 21.3493 150.78 21.5293C150.384 21.6973 150.036 21.9313 149.736 22.2313C149.448 22.5193 149.214 22.8673 149.034 23.2753C148.866 23.6713 148.782 24.0973 148.782 24.5533C148.782 25.0093 148.866 25.4413 149.034 25.8493C149.214 26.2453 149.448 26.5933 149.736 26.8933C150.036 27.1813 150.384 27.4153 150.78 27.5953C151.188 27.7633 151.62 27.8473 152.076 27.8473C152.532 27.8473 152.958 27.7633 153.354 27.5953C153.762 27.4153 154.11 27.1813 154.398 26.8933C154.698 26.5933 154.932 26.2453 155.1 25.8493C155.28 25.4413 155.37 25.0093 155.37 24.5533ZM168.03 27.2533C167.61 27.8893 167.088 28.3453 166.464 28.6213C165.852 28.8973 165.174 29.0353 164.43 29.0353C163.794 29.0353 163.218 28.9273 162.702 28.7113C162.186 28.4953 161.742 28.1953 161.37 27.8113C160.998 27.4153 160.71 26.9533 160.506 26.4253C160.314 25.8853 160.218 25.2913 160.218 24.6433C160.218 24.0193 160.32 23.4433 160.524 22.9153C160.728 22.3873 161.016 21.9313 161.388 21.5473C161.76 21.1513 162.198 20.8453 162.702 20.6293C163.206 20.4013 163.764 20.2873 164.376 20.2873C165.012 20.2873 165.57 20.4013 166.05 20.6293C166.542 20.8453 166.95 21.1393 167.274 21.5113C167.61 21.8713 167.862 22.2853 168.03 22.7533C168.198 23.2213 168.282 23.6953 168.282 24.1753V24.9313H161.298C161.298 25.1593 161.34 25.4533 161.424 25.8133C161.52 26.1613 161.688 26.5033 161.928 26.8393C162.168 27.1753 162.486 27.4633 162.882 27.7033C163.29 27.9433 163.812 28.0633 164.448 28.0633C165 28.0633 165.534 27.9313 166.05 27.6673C166.566 27.4033 166.962 27.0433 167.238 26.5873L168.03 27.2533ZM167.202 23.9593C167.202 23.5873 167.124 23.2393 166.968 22.9153C166.824 22.5913 166.62 22.3093 166.356 22.0693C166.104 21.8173 165.798 21.6193 165.438 21.4753C165.09 21.3313 164.718 21.2593 164.322 21.2593C163.734 21.2593 163.242 21.3793 162.846 21.6193C162.462 21.8593 162.156 22.1353 161.928 22.4473C161.7 22.7593 161.538 23.0653 161.442 23.3653C161.346 23.6533 161.298 23.8513 161.298 23.9593H167.202ZM172.308 22.8433C172.308 22.6873 172.302 22.5013 172.29 22.2853C172.278 22.0573 172.266 21.8293 172.254 21.6013C172.254 21.3733 172.248 21.1633 172.236 20.9713C172.224 20.7673 172.218 20.6113 172.218 20.5033H173.298C173.31 20.8153 173.316 21.1153 173.316 21.4033C173.328 21.6913 173.346 21.8773 173.37 21.9613C173.646 21.4693 174 21.0673 174.432 20.7553C174.864 20.4433 175.392 20.2873 176.016 20.2873C176.124 20.2873 176.226 20.2993 176.322 20.3233C176.43 20.3353 176.538 20.3533 176.646 20.3773L176.52 21.4393C176.376 21.3913 176.238 21.3673 176.106 21.3673C175.638 21.3673 175.23 21.4453 174.882 21.6013C174.546 21.7453 174.264 21.9493 174.036 22.2133C173.82 22.4773 173.658 22.7893 173.55 23.1493C173.442 23.4973 173.388 23.8753 173.388 24.2833V28.8193H172.308V22.8433ZM186.236 26.6953C186.464 27.1393 186.8 27.4813 187.244 27.7213C187.688 27.9493 188.156 28.0633 188.648 28.0633C188.876 28.0633 189.104 28.0273 189.332 27.9553C189.56 27.8833 189.764 27.7813 189.944 27.6493C190.124 27.5173 190.268 27.3613 190.376 27.1813C190.496 26.9893 190.556 26.7733 190.556 26.5333C190.556 26.1493 190.43 25.8613 190.178 25.6693C189.938 25.4773 189.638 25.3273 189.278 25.2193C188.918 25.1113 188.522 25.0213 188.09 24.9493C187.658 24.8653 187.262 24.7453 186.902 24.5893C186.542 24.4213 186.236 24.1933 185.984 23.9053C185.744 23.6173 185.624 23.2093 185.624 22.6813C185.624 22.2733 185.708 21.9193 185.876 21.6193C186.044 21.3193 186.26 21.0733 186.524 20.8813C186.8 20.6773 187.106 20.5273 187.442 20.4313C187.778 20.3353 188.12 20.2873 188.468 20.2873C189.152 20.2873 189.74 20.4133 190.232 20.6653C190.736 20.9173 191.126 21.3133 191.402 21.8533L190.43 22.4293C190.226 22.0453 189.968 21.7573 189.656 21.5653C189.356 21.3613 188.96 21.2593 188.468 21.2593C188.276 21.2593 188.072 21.2893 187.856 21.3493C187.652 21.4093 187.466 21.4933 187.298 21.6013C187.13 21.7093 186.986 21.8473 186.866 22.0153C186.758 22.1833 186.704 22.3753 186.704 22.5913C186.704 22.9633 186.824 23.2393 187.064 23.4193C187.316 23.5993 187.622 23.7433 187.982 23.8513C188.342 23.9473 188.738 24.0313 189.17 24.1033C189.602 24.1753 189.998 24.2953 190.358 24.4633C190.718 24.6193 191.018 24.8533 191.258 25.1653C191.51 25.4653 191.636 25.8973 191.636 26.4613C191.636 26.8933 191.552 27.2713 191.384 27.5953C191.228 27.9073 191.006 28.1713 190.718 28.3873C190.442 28.6033 190.124 28.7653 189.764 28.8733C189.404 28.9813 189.026 29.0353 188.63 29.0353C187.91 29.0353 187.25 28.8973 186.65 28.6213C186.062 28.3453 185.606 27.9193 185.282 27.3433L186.236 26.6953ZM202.54 26.4793C202.54 26.6353 202.546 26.8273 202.558 27.0553C202.57 27.2713 202.576 27.4933 202.576 27.7213C202.588 27.9493 202.6 28.1653 202.612 28.3693C202.624 28.5613 202.63 28.7113 202.63 28.8193H201.55C201.538 28.5073 201.526 28.2073 201.514 27.9193C201.514 27.6313 201.502 27.4453 201.478 27.3613H201.424C201.208 27.8173 200.848 28.2133 200.344 28.5493C199.84 28.8733 199.252 29.0353 198.58 29.0353C197.932 29.0353 197.398 28.9333 196.978 28.7293C196.57 28.5253 196.246 28.2613 196.006 27.9373C195.778 27.6013 195.622 27.2173 195.538 26.7853C195.454 26.3533 195.412 25.9093 195.412 25.4533V20.5033H196.492V25.3993C196.492 25.7353 196.522 26.0653 196.582 26.3893C196.642 26.7013 196.744 26.9833 196.888 27.2353C197.044 27.4873 197.254 27.6913 197.518 27.8473C197.794 27.9913 198.148 28.0633 198.58 28.0633C198.976 28.0633 199.348 27.9973 199.696 27.8653C200.056 27.7213 200.362 27.5113 200.614 27.2353C200.878 26.9473 201.082 26.5933 201.226 26.1733C201.382 25.7413 201.46 25.2373 201.46 24.6613V20.5033H202.54V26.4793ZM207.124 22.8433C207.124 22.6873 207.118 22.5013 207.106 22.2853C207.094 22.0573 207.082 21.8293 207.07 21.6013C207.07 21.3733 207.064 21.1633 207.052 20.9713C207.04 20.7673 207.034 20.6113 207.034 20.5033H208.114C208.126 20.8153 208.132 21.1153 208.132 21.4033C208.144 21.6913 208.162 21.8773 208.186 21.9613C208.462 21.4693 208.816 21.0673 209.248 20.7553C209.68 20.4433 210.208 20.2873 210.832 20.2873C210.94 20.2873 211.042 20.2993 211.138 20.3233C211.246 20.3353 211.354 20.3533 211.462 20.3773L211.336 21.4393C211.192 21.3913 211.054 21.3673 210.922 21.3673C210.454 21.3673 210.046 21.4453 209.698 21.6013C209.362 21.7453 209.08 21.9493 208.852 22.2133C208.636 22.4773 208.474 22.7893 208.366 23.1493C208.258 23.4973 208.204 23.8753 208.204 24.2833V28.8193H207.124V22.8433Z" fill="#5A475D"/>
</svg>
