<svg width="80" height="75" viewBox="0 0 80 75" fill="none" xmlns="http://www.w3.org/2000/svg">
<path d="M4.80572 15.9272H57.8549C59.5364 20.0663 63.4489 22.8475 68.008 22.8475C74.1012 22.8475 79.0407 18.0131 79.0407 11.9198C79.0407 5.82659 74.1012 0.767059 68.008 0.767059C63.5197 0.767059 59.6602 3.50975 57.937 7.17582H4.80572C2.49031 7.17582 0.613281 9.1141 0.613281 11.5514C0.613399 13.9889 2.49043 15.9272 4.80572 15.9272Z" fill="#9B01A8"/>
<path d="M74.9173 59.3287H21.6204C19.8999 55.1896 16.0465 52.777 11.5654 52.777C5.48198 52.777 0.550293 57.7027 0.550293 63.7942C0.550293 69.8857 5.48186 74.8061 11.5654 74.8061C16.1171 74.8061 20.0235 71.746 21.7023 68.0799H74.9173C77.229 68.0799 79.103 66.141 79.103 63.7043C79.103 61.2679 77.2289 59.3287 74.9173 59.3287ZM11.5804 67.331C9.63374 67.331 8.05556 65.7508 8.05556 63.8015C8.05556 61.8522 9.63374 60.2721 11.5804 60.2721C13.5271 60.2721 15.1053 61.8522 15.1053 63.8015C15.1053 65.7508 13.5271 67.331 11.5804 67.331Z" fill="#9B01A8"/>
<path d="M4.80572 42.2992H29.6112C31.2927 45.9653 35.2052 49.0095 39.7643 49.0095C44.3233 49.0095 48.2358 45.9653 49.9174 42.2992H74.9736C77.289 42.2992 79.1661 40.0652 79.1661 37.6279C79.1661 35.1906 77.289 32.9567 74.9736 32.9567H49.8354C48.1123 29.2906 44.2527 26.4277 39.7644 26.4277C35.2761 26.4277 31.4166 29.2906 29.6933 32.9567H4.80572C2.49031 32.9567 0.613281 35.1906 0.613281 37.6279C0.613399 40.0653 2.49043 42.2992 4.80572 42.2992Z" fill="#9B01A8"/>
</svg>
