<svg width="79" height="96" viewBox="0 0 79 96" fill="none" xmlns="http://www.w3.org/2000/svg">
<rect x="6.37793" y="15.983" width="72" height="80" fill="white"/>
<path d="M62.2671 37.5602H26.9652C25.3404 37.5602 24.0273 36.0393 24.0273 34.4145C24.0273 32.7896 25.3404 31.2687 26.9652 31.2687H62.2671C63.892 31.2687 65.205 32.7896 65.205 34.4145C65.205 36.0298 63.892 37.5602 62.2671 37.5602Z" fill="#116992"/>
<path d="M13.4268 31.5332H19.0947V37.2012H13.4268V31.5332Z" fill="#116992"/>
<path d="M62.2671 56.1983H26.9652C25.3404 56.1983 24.0273 54.6774 24.0273 53.0526C24.0273 51.4278 25.3404 49.9069 26.9652 49.9069H62.2671C63.892 49.9069 65.205 51.4278 65.205 53.0526C65.205 54.6774 63.892 56.1983 62.2671 56.1983Z" fill="#116992"/>
<path d="M13.4268 50.2186H19.0947V55.8866H13.4268V50.2186Z" fill="#116992"/>
<path d="M62.2671 74.8364H26.9652C25.3404 74.8364 24.0273 73.3155 24.0273 71.6907C24.0273 70.0659 25.3404 68.545 26.9652 68.545H62.2671C63.892 68.545 65.205 70.0659 65.205 71.6907C65.205 73.3155 63.892 74.8364 62.2671 74.8364Z" fill="#116992"/>
<path d="M13.4268 68.8567H19.0947V74.5247H13.4268V68.8567Z" fill="#116992"/>
<path d="M66.8197 7.33108H64.8643C64.3731 3.75082 61.2935 0.982971 57.581 0.982971H21.1738C17.4613 0.982971 14.3911 3.75082 13.8999 7.33108H11.9445C5.56803 7.33108 0.381849 12.5173 0.381849 18.8937V81.9875C0.372402 88.3734 5.55858 93.5596 11.935 93.5596H66.8103C73.1867 93.5596 78.3729 88.3734 78.3729 81.9969V18.8937C78.3824 12.5173 73.1962 7.33108 66.8197 7.33108ZM20.078 8.32297C20.078 7.71839 20.5692 7.22717 21.1738 7.22717H57.581C58.1856 7.22717 58.6768 7.71839 58.6768 8.32297V13.2069C58.6768 13.8114 58.1856 14.3027 57.581 14.3027H21.1738C20.5692 14.3027 20.078 13.8114 20.078 13.2069V8.32297ZM72.1382 81.9969C72.1382 84.9254 69.7482 87.3154 66.8197 87.3154H11.935C9.00659 87.3154 6.6166 84.9254 6.6166 81.9969V18.8937C6.6166 15.9653 9.00659 13.5753 11.935 13.5753H13.8338C14.0227 17.4578 17.244 20.5563 21.1644 20.5563H57.5715C61.5013 20.5563 64.7132 17.4578 64.9021 13.5753H66.8008C69.7293 13.5753 72.1193 15.9653 72.1193 18.8937V81.9969H72.1382Z" fill="#116992"/>
</svg>
