<svg width="100" height="84" viewBox="0 0 100 84" fill="none" xmlns="http://www.w3.org/2000/svg">
<path d="M80.536 37.3564C80.5363 37.3564 80.536 37.3564 80.5363 37.3564C85.5412 37.3564 90.244 35.4155 93.7774 31.8911C98.6004 27.0804 100.4 20.0388 98.4737 13.5137C98.3618 13.1342 98.0562 12.8414 97.6709 12.7442C97.2856 12.6459 96.8766 12.7585 96.5956 13.0385L84.8207 24.7822C84.114 24.4976 82.3337 23.5257 79.0389 20.2597C75.7442 16.9934 74.7608 15.2262 74.4716 14.5241L86.2462 2.77987C86.5272 2.49984 86.6384 2.09254 86.5393 1.70971C86.4399 1.32656 86.1448 1.02369 85.7624 0.913704C84.0654 0.424481 82.3068 0.176117 80.5353 0.176117C75.5302 0.176117 70.8338 2.12256 67.2955 5.64079C57.0094 15.8685 63.4017 26.1565 63.4017 26.1565L51.8664 37.6266C49.0512 35.2693 45.997 32.9348 42.6284 30.6375C41.8689 30.1196 40.8799 30.1362 40.144 30.6414C38.3115 28.6147 36.3635 26.5811 34.1696 24.5661L35.4195 23.3233C36.327 22.4209 36.4412 21.029 35.7631 20.0029C35.7841 19.9679 35.8035 19.9314 35.8248 19.8965C36.8 18.2996 37.9104 16.826 39.1724 15.4435C41.7024 12.5754 45.3113 10.5519 49.0492 9.76508C50.6782 9.42142 52.3666 9.30164 54.0281 9.44263C54.5497 9.48636 55.3355 9.78172 55.8209 9.55164C56.548 9.20699 56.5358 8.14108 55.8035 7.81113C53.0904 6.04222 49.7047 5.14602 46.4995 4.90418C39.3658 4.366 32.4355 7.07452 26.7322 11.2079C25.7597 10.7876 24.5866 10.97 23.7913 11.7611L14.2165 21.2812C13.3513 22.1415 13.2098 23.446 13.7858 24.4548C12.8455 25.4812 11.8598 26.4643 10.8318 27.4035C10.3847 27.2867 9.92125 27.2208 9.4463 27.2208C7.99914 27.2208 6.63863 27.7811 5.6152 28.7981L1.72338 32.6678C0.70029 33.6854 0.136719 35.0379 0.136719 36.4768C0.136719 37.9158 0.70029 39.2686 1.72338 40.2862L6.73184 45.2659C7.75494 46.2832 9.11545 46.8435 10.5623 46.8435C12.0091 46.8435 13.3696 46.2832 14.3924 45.2659L18.2846 41.3962C19.3076 40.3786 19.8712 39.0258 19.8712 37.5871C19.8712 37.2409 19.8371 36.8998 19.7731 36.5666C20.7807 35.4674 21.8396 34.4162 22.9474 33.4172C23.9107 33.8124 25.0605 33.6218 25.8434 32.8434L27.0936 31.6C29.1201 33.7814 31.1653 35.7184 33.2036 37.5405C32.6955 38.2719 32.6787 39.2555 33.1996 40.0107C35.5104 43.3602 37.8582 46.3967 40.229 49.1963L18.6105 70.6918C15.9098 73.3778 15.9098 77.7471 18.6102 80.4318C19.9182 81.7327 21.6574 82.4494 23.5073 82.4494C25.3576 82.4494 27.0972 81.7327 28.4052 80.4312L49.7273 59.2304C53.696 63.0235 57.6741 66.4372 61.5971 69.8021C66.3555 73.8836 71.2756 78.1039 76.0107 82.8793C76.421 83.2928 76.9799 83.5261 77.5639 83.5284H77.5714C78.1527 83.5284 78.71 83.299 79.1213 82.89L85.7509 76.2984C86.1638 75.8875 86.3949 75.3301 86.3929 74.7495C86.3909 74.1692 86.1559 73.6134 85.7401 73.2054C80.9377 68.4976 76.6937 63.6054 72.5892 58.8744C69.2052 54.9733 65.7719 51.0174 61.9569 47.071L73.1508 35.8509C75.4543 36.8352 77.9548 37.3564 80.536 37.3564Z" fill="#528426"/>
</svg>
