<svg width="205" height="198" viewBox="0 0 205 198" fill="none" xmlns="http://www.w3.org/2000/svg">
<g clip-path="url(#clip0_277_2)">
<path d="M58.184 108.663C58.184 108.663 28.5284 134.131 44.9852 142.551C52.1485 142.551 66.6004 114.387 66.6004 114.387L58.184 108.663V108.663Z" fill="#9FC0D2"/>
<path d="M37.738 38.6933C54.843 38.6933 68.7094 30.0315 68.7094 19.3466C68.7094 8.66178 54.843 0 37.738 0C20.633 0 6.7666 8.66178 6.7666 19.3466C6.7666 30.0315 20.633 38.6933 37.738 38.6933Z" fill="#B2CEDB"/>
<path d="M38.1794 56.6153C52.9928 48.0594 60.6722 33.6221 55.332 24.3687C49.9917 15.1154 33.6539 14.55 18.8406 23.106C4.02717 31.6619 -3.6523 46.0992 1.68797 55.3526C7.02824 64.6059 23.366 65.1713 38.1794 56.6153Z" fill="#B2CEDB"/>
<path d="M59.4142 68.119C73.1926 57.9789 79.2314 42.7815 72.9024 34.1747C66.5734 25.5679 50.2731 26.8109 36.4948 36.951C22.7164 47.0911 16.6776 62.2885 23.0066 70.8953C29.3356 79.5021 45.6359 78.2591 59.4142 68.119Z" fill="#B2CEDB"/>
<path d="M42.5616 37.753C49.805 37.753 55.6769 34.5539 55.6769 30.6077C55.6769 26.6615 49.805 23.4624 42.5616 23.4624C35.3182 23.4624 29.4463 26.6615 29.4463 30.6077C29.4463 34.5539 35.3182 37.753 42.5616 37.753Z" fill="#98BCCE"/>
<path d="M43.5224 57.5802C51.6885 57.5802 58.3085 52.1643 58.3085 45.4833C58.3085 38.8024 51.6885 33.3865 43.5224 33.3865C35.3563 33.3865 28.7363 38.8024 28.7363 45.4833C28.7363 52.1643 35.3563 57.5802 43.5224 57.5802Z" fill="#98BCCE"/>
<path d="M167.304 39.0902C184.386 39.0902 198.233 30.4285 198.233 19.7436C198.233 9.05875 184.386 0.396973 167.304 0.396973C150.222 0.396973 136.374 9.05875 136.374 19.7436C136.374 30.4285 150.222 39.0902 167.304 39.0902Z" fill="#B2CEDB"/>
<path d="M203.311 55.7704C208.661 46.5227 201.005 32.082 186.21 23.5163C171.416 14.9507 155.086 15.5036 149.736 24.7513C144.386 33.9991 152.042 48.4397 166.837 57.0054C181.631 65.5711 197.961 65.0182 203.311 55.7704Z" fill="#B2CEDB"/>
<path d="M182.006 71.3174C188.346 62.7183 182.333 47.5191 168.576 37.369C154.819 27.2189 138.528 25.9616 132.189 34.5606C125.849 43.1597 131.862 58.3589 145.619 68.509C159.375 78.6591 175.666 79.9164 182.006 71.3174Z" fill="#B2CEDB"/>
<path d="M162.543 41.451C169.659 41.451 175.428 38.2519 175.428 34.3057C175.428 30.3595 169.659 27.1604 162.543 27.1604C155.426 27.1604 149.657 30.3595 149.657 34.3057C149.657 38.2519 155.426 41.451 162.543 41.451Z" fill="#98BCCE"/>
<path d="M161.603 61.2782C169.631 61.2782 176.138 55.8623 176.138 49.1813C176.138 42.5004 169.631 37.0845 161.603 37.0845C153.575 37.0845 147.067 42.5004 147.067 49.1813C147.067 55.8623 153.575 61.2782 161.603 61.2782Z" fill="#98BCCE"/>
<path d="M99.7431 193.592C129.812 193.592 154.188 173.359 154.188 148.401C154.188 123.443 129.812 103.21 99.7431 103.21C69.6738 103.21 45.2979 123.443 45.2979 148.401C45.2979 173.359 69.6738 193.592 99.7431 193.592Z" fill="#B2CEDB"/>
<path d="M55.8656 154.606C55.8656 154.606 52.5868 151.409 47.491 151.012C42.3953 150.615 28.9249 160.122 39.2209 182.498C39.2209 182.498 54.905 212.897 73.492 186.697" fill="#B2CEDB"/>
<path d="M55.4541 194.055C60.3246 191.754 60.7113 182.344 56.3177 173.037C51.9242 163.73 44.4141 158.051 39.5435 160.352C34.673 162.653 34.2863 172.063 38.6799 181.37C43.0735 190.677 50.5835 196.356 55.4541 194.055Z" fill="#9FC0D2"/>
<path d="M100.642 182.79C119.281 182.79 134.391 168.563 134.391 151.012C134.391 133.462 119.281 119.235 100.642 119.235C82.0025 119.235 66.8926 133.462 66.8926 151.012C66.8926 168.563 82.0025 182.79 100.642 182.79Z" fill="#D6E4EB"/>
<path d="M100.641 124.708C134.309 124.708 161.602 99.2657 161.602 67.8804C161.602 36.4951 134.309 11.0522 100.641 11.0522C66.9729 11.0522 39.6797 36.4951 39.6797 67.8804C39.6797 99.2657 66.9729 124.708 100.641 124.708Z" fill="#B2CEDB"/>
<path d="M102.375 96.6496C111.533 96.6496 118.957 84.9104 118.957 70.4293C118.957 55.9482 111.533 44.209 102.375 44.209C93.217 44.209 85.793 55.9482 85.793 70.4293C85.793 84.9104 93.217 96.6496 102.375 96.6496Z" fill="#59455C"/>
<path d="M69.5111 67.4376C73.4112 67.1593 76.2023 61.7367 75.7452 55.326C75.2881 48.9152 71.7559 43.9438 67.8558 44.2222C63.9556 44.5005 61.1645 49.923 61.6216 56.3338C62.0787 62.7446 65.6109 67.7159 69.5111 67.4376Z" fill="#59455C"/>
<path d="M135.361 62.7416C139.261 62.4633 142.052 57.0407 141.595 50.6299C141.138 44.2191 137.606 39.2478 133.705 39.5261C129.805 39.8044 127.014 45.227 127.471 51.6378C127.928 58.0485 131.461 63.0199 135.361 62.7416Z" fill="#59455C"/>
<path d="M143.83 154.606C143.83 154.606 147.171 151.409 152.35 151.012C157.53 150.615 171.251 160.122 160.788 182.498C160.788 182.498 144.811 212.897 125.869 186.697" fill="#B2CEDB"/>
<path d="M161.258 181.586C165.783 172.304 165.468 162.836 160.554 160.438C155.641 158.04 147.989 163.621 143.463 172.903C138.938 182.185 139.253 191.653 144.167 194.051C149.081 196.449 156.733 190.868 161.258 181.586Z" fill="#9FC0D2"/>
<path d="M115.556 194.713C118.892 193.632 120.299 188.751 118.7 183.811C117.1 178.872 113.099 175.744 109.763 176.825C106.428 177.906 105.02 182.787 106.62 187.726C108.22 192.666 112.22 195.794 115.556 194.713Z" fill="#9FC0D2"/>
<path d="M124.276 166.351C125.165 162.448 120.681 158.096 114.26 156.632C107.838 155.168 101.912 157.145 101.023 161.049C100.133 164.953 104.618 169.305 111.039 170.769C117.46 172.233 123.387 170.255 124.276 166.351Z" fill="#9FC0D2"/>
<path d="M141.508 197.832C158.229 196.263 170.746 183.936 169.467 170.299C168.188 156.663 153.597 146.881 136.877 148.45C120.157 150.019 107.639 162.346 108.918 175.983C110.197 189.619 124.788 199.402 141.508 197.832Z" fill="#BAD2E1"/>
<path d="M99.8915 138.841C107.712 137.718 113.483 132.845 112.782 127.956C112.08 123.068 105.172 120.016 97.351 121.139C89.5303 122.262 83.7591 127.135 84.4607 132.024C85.1622 136.912 92.0708 139.965 99.8915 138.841Z" fill="#98BCCE"/>
<path d="M106.334 126.563C108.175 121.981 103.724 115.877 96.3924 112.93C89.0612 109.984 81.6261 111.31 79.7856 115.892C77.9451 120.475 82.3962 126.578 89.7274 129.525C97.0586 132.472 104.494 131.146 106.334 126.563Z" fill="#98BCCE"/>
<path d="M113.711 120.932C116.047 116.581 112.298 110.022 105.337 106.282C98.3767 102.542 90.8406 103.037 88.5048 107.388C86.1689 111.739 89.9179 118.298 96.8784 122.038C103.839 125.777 111.375 125.282 113.711 120.932Z" fill="#98BCCE"/>
<path d="M161.673 112.595C167.88 107.704 170.434 100.594 167.38 96.7144C164.325 92.835 156.817 93.6552 150.611 98.5464C144.404 103.438 141.849 110.547 144.904 114.427C147.959 118.306 155.467 117.486 161.673 112.595Z" fill="#98BCCE"/>
<path d="M166.619 119.23C174.44 118.107 180.211 113.234 179.509 108.345C178.808 103.457 171.899 100.404 164.078 101.528C156.258 102.651 150.487 107.524 151.188 112.413C151.89 117.301 158.798 120.354 166.619 119.23Z" fill="#98BCCE"/>
<path d="M162.207 129.485C170.104 129.234 176.379 125.029 176.222 120.093C176.065 115.157 169.536 111.359 161.639 111.61C153.742 111.861 147.468 116.066 147.625 121.002C147.781 125.938 154.31 129.736 162.207 129.485Z" fill="#98BCCE"/>
<path d="M170.729 125.607C170.729 125.607 176.66 149.299 163.942 157.99C151.223 166.682 154.711 151.367 154.711 151.367C154.711 151.367 161.645 127.8 162.668 126.463C163.691 125.126 170.729 125.607 170.729 125.607V125.607Z" fill="#9FC0D2"/>
<path d="M134.145 161.074C151.589 159.437 164.493 144.922 162.968 128.655C161.442 112.388 146.064 100.528 128.621 102.165C111.177 103.802 98.2729 118.317 99.7986 134.584C101.324 150.851 116.702 162.711 134.145 161.074Z" fill="#BAD2E1"/>
<path d="M128.581 149.87C132.618 149.185 134.98 143.254 133.856 136.621C132.732 129.989 128.549 125.167 124.512 125.852C120.475 126.536 118.113 132.468 119.237 139.1C120.361 145.733 124.544 150.554 128.581 149.87Z" fill="#59455C"/>
<path d="M109.593 136.082C111.094 135.827 111.973 133.629 111.557 131.172C111.141 128.714 109.586 126.929 108.085 127.183C106.584 127.438 105.705 129.636 106.121 132.093C106.537 134.551 108.092 136.336 109.593 136.082Z" fill="#59455C"/>
<path d="M141.773 131.662C143.275 131.408 144.154 129.21 143.738 126.752C143.321 124.295 141.767 122.509 140.266 122.764C138.765 123.018 137.885 125.217 138.302 127.674C138.718 130.131 140.272 131.917 141.773 131.662Z" fill="#59455C"/>
</g>
<defs>
<clipPath id="clip0_277_2">
<rect width="205" height="198" fill="white"/>
</clipPath>
</defs>
</svg>
