<svg width="1440" height="803" viewBox="0 0 1440 803" fill="none" xmlns="http://www.w3.org/2000/svg">
<mask id="mask0_107_487" style="mask-type:alpha" maskUnits="userSpaceOnUse" x="0" y="0" width="1440" height="803">
<rect width="1440" height="803" fill="#C4C4C4"/>
</mask>
<g mask="url(#mask0_107_487)">
<path opacity="0.4" d="M332.492 127.437C222.602 87.4476 1.09509 176.868 -42.9975 258.403L-42.9976 731.764C-265 794.712 -6.00006 843.712 370.5 751.141C1031 632.712 872.167 809.704 1465.04 731.764C2297.58 622.316 1561.04 258.403 1561.04 258.403C1494.84 224.839 1366.15 124.381 1227.83 150.885C999.741 194.588 959.989 14.5985 848.192 24.0535C736.395 33.5085 621.077 -32.5571 539.037 24.0536C456.998 80.6642 469.855 177.423 332.492 127.437Z" fill="#BFD6E1"/>
</g>
</svg>
