<svg width="1440" height="419" viewBox="0 0 1440 419" fill="none" xmlns="http://www.w3.org/2000/svg">
<mask id="mask0_236_11" style="mask-type:alpha" maskUnits="userSpaceOnUse" x="0" y="0" width="1440" height="419">
<rect width="1440" height="419" fill="#C4C4C4"/>
</mask>
<g mask="url(#mask0_236_11)">
<path d="M103.5 91.8191C60.7 79.0191 11.3333 82.1525 -8 85.3191L-89.5 409.819C131.7 433.019 291 405.819 343 389.319C497.8 360.919 651.5 354.152 709 354.319C855.8 362.719 964.5 374.486 1000.5 379.319C1110.9 386.919 1306.5 362.819 1390.5 349.819C1531.3 333.019 1505.83 264.152 1475.5 231.819C1265.1 171.819 978.5 71.3191 910.5 94.3191C772.9 118.719 631.833 67.8191 578.5 39.3191C541.7 18.1191 503.167 13.4858 488.5 13.8191C458.5 19.0191 400.333 11.6524 375 7.31911C317.4 -1.48089 277.333 -0.347558 264.5 1.31911C214.5 0.119106 193 50.1524 188.5 75.3191C169.7 104.119 124 98.3191 103.5 91.8191Z" fill="#E5EFF3"/>
<path d="M279.04 365.179C284.024 360.502 279.552 357.743 276.693 356.949L276.154 351.757L273.462 351.795C273.077 350.872 272.562 348.595 273.577 346.872C274.592 345.149 283.051 347.076 287.154 348.255M279.04 365.179C293.694 363.947 295.732 357.139 294.578 354.37C293.654 352.155 289.244 349.37 287.154 348.255M279.04 365.179C278.232 365.938 277.063 366.683 275.634 367.404M287.154 348.255L285.153 338.256L281.499 342.487L278.614 335.564L276.153 338.757L272.96 336.295L270.768 338.834L266.845 337.219L264.692 342.45L262.807 340.527L257.769 345.336L254.538 340.182L251.654 346.259C250.179 344.888 246.784 342.114 244.999 341.991C243.676 342.976 243.68 349.222 243.847 352.222L237.039 350.184L238.078 357.876L234.386 359.415L238.233 368.645L235.849 370.723C237.016 372.222 239.926 375.307 242.234 375.645C244.744 376.013 266.044 372.242 275.634 367.404M273.263 347.545L271.692 344.949L266.423 346.604L264.499 341.989M271.424 358.603L272.77 355.334L267.963 356.796L265.462 350.796L263.578 355.373L258.5 350.989L257.155 354.259L250.924 353.606L252.847 358.221M263.233 363.643L261.501 359.489L259.232 363.143L252.694 360.451L253.963 364.797L246.694 362.952L248.425 367.106L243.425 368.106L246.541 371.683M282.644 364.727C283.464 365.83 285.164 368.694 284.579 369.371C283.849 370.217 276.689 369.935 275.634 367.404" stroke="#005B85" stroke-width="1.5"/>
<path d="M279.195 369.448C279.515 370.218 279.48 372.472 277.849 372.718C276.218 372.964 272.374 370.847 270.656 369.757" stroke="#005B85" stroke-width="1.5"/>
<path d="M288.462 348.794C290.628 346.627 295.53 343.139 297.808 346.523C300.654 350.754 299.116 353.562 298.654 353.754C298.193 353.946 295.809 356.024 294.77 354.831" stroke="#005B85" stroke-width="1.5"/>
<ellipse rx="2" ry="2.5" transform="matrix(-0.923034 0.384718 0.384718 0.923034 282.462 351.294)" fill="#005B85"/>
<path d="M297.461 348.293L296.038 346.177L297.885 351.908L294.192 346.947L296.231 353.139L292.077 348.37" stroke="#4F2D14" stroke-width="1.5" stroke-linecap="round" stroke-linejoin="round"/>
<path d="M277.578 360.372L275.579 363.372L273.771 360.334L273.463 364.795L269.963 360.296L270.618 367.065L265.847 358.219L266.81 367.027L264.194 365.95L262.464 368.296L260.848 365.72L259.964 368.797L258.156 365.759L257.925 369.105L253.733 368.144L253.118 370.567L249.579 369.875L249.574 372.044" stroke="#ECDC15" stroke-width="1.5" stroke-linecap="round" stroke-linejoin="round"/>
<path d="M246.462 353.298L249.232 358.644L243.808 356.029L246.078 358.875L241.424 358.107L243.155 362.26L239.347 362.222" stroke="#ECDC15" stroke-width="1.5" stroke-linecap="round" stroke-linejoin="round"/>
<path d="M257.154 347.759L254.73 347.144L255.423 350.105L252.346 349.221L253.115 351.067L246.461 346.798L250.231 350.644" stroke="#ECDC15" stroke-width="1.5" stroke-linecap="round" stroke-linejoin="round"/>
<path d="M264.115 347.566L262.23 345.643L263.308 349.527L261.884 347.412M270.923 349.603L269.231 348.142L271.539 353.68L268.423 350.104L268.923 352.603L269.5 353.988" stroke="#ECDC15" stroke-width="1.5" stroke-linecap="round" stroke-linejoin="round"/>
<path d="M284.214 342.502L280.884 344.91L278.659 341.249L277.954 343.582L276.392 341.174L275.21 343.706L273.466 340.864L272.58 342.763L271.38 341.224L269.836 342.887L268.636 341.348L267.273 343.445L266.73 342.142" stroke="#ECDC15" stroke-width="1.5" stroke-linecap="round" stroke-linejoin="round"/>
<path d="M254.926 373.605C256.528 375.284 259.365 378.797 257.888 379.412C256.042 380.182 250.542 378.682 249.195 375.452M252.965 379.298C252.824 380.259 251.796 381.952 248.811 381.029C245.826 380.106 245.157 376.593 245.195 374.952" stroke="#005B85" stroke-width="1.5"/>
<path d="M922.642 187.262L919.488 186.736L918.226 184.271L915.816 185.537L915.652 182.849L913.898 183.594L913.444 181.354L911.248 181.799M923.941 184.277L921.947 181.961L923.259 180.917L923.322 179.349L920.395 179.943L922.212 177.631L919.789 176.957L920.066 174.568M927.903 185.028L926.855 181.742L929.417 181.223L930.211 179.506L927.347 178.533L930.337 176.371L927.839 175.323L930.248 174.057L931.194 173.088L928.923 173.16M929.317 188.24L930.691 185.628L932.382 186.452L932.218 183.764L934.426 185.259L934.842 181.677L937.05 183.172L937.769 181.083M930.074 191.973L933.367 191.305L934.187 193.471L935.865 192.353L936.32 194.593L938.73 193.327L938.957 194.447M927.816 193.986L929.431 194.436L928.636 196.152L931.273 196.006L928.801 198.84L931.804 198.619L930.353 200.857L933.141 201.457L931.249 203.396L933.748 204.444M925.545 194.058L923.943 195.55L924.612 196.969L923.527 199.132L925.294 200.329L922.96 201.969L924.802 203.538L923.276 205.403M922.971 192.637L920.637 194.277L920.726 196.591L918.455 196.663L919.351 199.202L915.907 199.124L918.052 202.187L915.049 202.408M911.616 192.998L912.625 190.461L914.038 193.672L914.82 190.015L916.89 192.705L917.609 190.615L920.397 191.216L921.343 190.246" stroke="white" stroke-width="1.5" stroke-linecap="round" stroke-linejoin="round"/>
<path d="M925.198 214.682L926.968 214.323L927.823 214.905L928.884 214.69L929.165 214.255M931.642 213.752L931.274 211.937L932.616 211.287L932.748 210.126L933.029 209.692M928.087 221.654L929.856 221.295L930.003 222.021L931.419 221.734L931.92 222.388M934.53 220.724L934.162 218.91L935.224 218.694L935.563 216.736M930.769 229.424L932.405 230.226L933.32 229.284L934.529 229.795L935.59 229.579M937.566 228.423L937.125 226.245L937.832 226.101L938.526 224.071L939.44 223.13L939.426 221.243L939.706 220.808" stroke="#87BE46" stroke-width="1.5" stroke-linecap="round" stroke-linejoin="round"/>
<path d="M937.731 231.186C933.973 225.17 927.112 207.734 926.814 201.769" stroke="#005B85" stroke-width="1.5"/>
<path d="M929.875 212.477C930.269 210.631 932.005 207.579 934.129 207.451C936.254 207.323 933.019 212.83 931.347 215.945M932.896 219.793C933.24 217.705 935.177 214.126 937.006 214.058C938.835 213.99 935.625 219.996 934.445 223.642M936.165 227.669C936.608 224.173 939.204 217.321 940.915 218.185C942.627 219.048 939.411 226.671 938.059 230.099M937.592 230.194C935.232 230.547 930.942 230.729 929.703 229.164C928.154 227.208 935.551 227.202 936.436 227.779M934.645 223.241C931.547 223.113 925.292 222.566 926.531 221.103C928.08 219.275 931.621 219.692 932.359 219.542M930.81 215.694C928.277 215.829 923.138 215.737 924.319 213.983C925.794 211.792 928.691 212.321 929.872 212.459" stroke="#005B85" stroke-width="1.5"/>
<path d="M925.972 192.536C927.188 196.659 928.311 205.557 923.073 208.162C921.145 206.591 920.732 203.741 921.101 200.851M925.093 191.943C923.544 192.924 921.602 196.925 921.101 200.851M921.101 200.851C919.447 203.114 915.609 206.9 913.491 203.937C911.931 201.756 914.031 198.164 917.048 195.292M923.775 191.054C921.708 191.632 919.155 193.287 917.048 195.292M917.048 195.292C914.339 195.655 909.064 195.581 909.629 192.382C910.334 188.383 915.766 188.437 917.194 188.533C918.336 188.61 922.1 189.209 923.839 189.499M916.051 188.51C913.636 187.2 908.905 183.583 909.711 181.569C910.516 179.555 912.518 179.2 913.418 179.274C916.051 180.411 921.877 183.573 924.116 187.129M920.116 183.137C918.347 180.025 915.938 173.365 918.561 172.833C921.839 172.167 924.274 176.686 924.575 178.167C924.815 179.352 925.342 184.438 925.575 186.833M924.844 180.041C924.49 177.67 925.33 172.539 929.642 171.355C933.955 170.172 932.549 177.578 931.307 181.428C930.296 183.304 928.014 187.264 926.968 188.093M930.585 182.732C932.228 180.856 936.902 177.594 940.127 180.024C944.158 183.062 930.121 190.538 927.859 190.611M932.318 188.84C936.166 189.73 944.039 192.572 941.022 195.652C937.25 199.502 929.478 192.981 927.28 191.499M932.551 195.04C934.053 198.077 936.523 204.893 934.08 206.314C931.637 207.736 928.226 202.875 926.971 200.431" stroke="#005B85" stroke-width="1.5"/>
<ellipse cx="925.734" cy="189.193" rx="2.76156" ry="3.74233" transform="rotate(4.65573 925.734 189.193)" fill="#EADD2E"/>
</g>
</svg>
