<svg width="94" height="116" viewBox="0 0 94 116" fill="none" xmlns="http://www.w3.org/2000/svg">
<path d="M40.6772 46.1789C42.6037 51.2872 49.0556 60.6182 59.7419 59.0548C73.0997 57.1005 80.4364 51.9846 84.3704 44.3345C85.3233 54.3016 86.7104 67.237 78.3119 72.003C69.9133 76.7689 54.7937 80.4969 42.8239 74.6683C30.8541 68.8396 31.8563 51.512 31.8444 47.9765" stroke="#005B85" stroke-width="2"/>
<path d="M14.2273 30.3412C12.0447 29.3973 7.46656 28.6771 3.65913 28.8552C5.43181 30.4908 7.84696 31.2747 8.81472 32.649L4.58702 37.8152C7.51716 36.8812 13.7202 34.7357 15.0912 33.6256" stroke="#005B85" stroke-width="2"/>
<path d="M48.6282 76.3457L50.0877 89.7759L45.6589 97.4984M45.6589 97.4984L34.4972 100.647M45.6589 97.4984L41.4473 106.705M59.9466 77.7218L64.9655 98.2111M64.9655 98.2111L58.3407 104.739M64.9655 98.2111L65.9183 108.178" stroke="#005B85" stroke-width="2"/>
<path d="M70.5397 67.768C65.4575 69.6274 60.3754 71.4869 55.2933 73.3464C54.9962 73.4551 53.2363 73.9956 53.991 73.6575C57.0821 72.2726 60.4095 70.9891 63.5788 69.6532C65.5813 68.8092 67.8541 67.9567 69.7661 67.077C70.9662 66.5248 72.3917 66.1405 73.6241 65.5643C73.9974 65.3897 71.3244 66.2586 71.0009 66.3587C66.6282 67.7113 62.2969 68.9418 57.9533 70.2046C56.7918 70.5422 55.6214 70.9163 54.4624 71.2521C52.9548 71.6889 54.5056 71.1585 55.0372 70.9545C58.5133 69.6205 61.9517 68.0722 65.3874 66.6759C68.327 65.4812 77.2258 62.0136 74.2247 63.1117C67.5723 65.5457 60.5905 67.436 54.0278 69.3069C53.9125 69.3398 52.3432 69.8714 52.3699 69.8032C52.4221 69.6705 58.4273 67.5694 58.8243 67.4233C62.5 66.0702 66.2263 64.6586 69.854 63.2223C71.0787 62.7374 72.3851 62.1904 73.5066 61.6377C73.9985 61.3953 74.904 61.0437 73.9107 61.4072C70.4165 62.6856 67.2208 63.6996 63.7279 64.7194C63.2236 64.8667 56.6838 66.9061 56.5146 66.7155C56.4959 66.6944 57.7299 66.2483 57.7562 66.2382C59.6205 65.5245 61.5224 64.7867 63.3434 64.0239C67.6647 62.2139 71.7153 60.2825 75.9034 58.3993C77.5992 57.6367 79.3186 56.8913 80.9551 56.1006C81.5198 55.8279 81.2196 55.9212 80.8423 56.0592" stroke="#C9C7D5" stroke-width="1.5" stroke-linecap="round"/>
<path d="M45.4314 68.3271C42.0455 64.1055 38.6596 59.884 35.2737 55.6625C35.0757 55.4157 34.0012 53.9208 34.5628 54.5279C36.8628 57.0145 39.1422 59.7573 41.4207 62.3336C42.8604 63.9614 44.3945 65.8426 45.839 67.3733C46.7457 68.334 47.5653 69.562 48.5051 70.5456C48.7898 70.8436 47.1124 68.5884 46.9142 68.3138C44.2353 64.6026 41.6852 60.8916 39.1007 57.1791C38.4097 56.1864 37.6812 55.1969 36.9926 54.206C36.097 52.917 37.0952 54.217 37.4583 54.6555C39.8332 57.5232 42.3989 60.2866 44.8199 63.096C46.8912 65.4997 53.0206 72.824 51.0211 70.331C46.589 64.8052 42.5668 58.7934 38.697 53.1726C38.629 53.0738 37.6238 51.7567 37.697 51.7602C37.8395 51.7672 41.7492 56.7862 42.0146 57.1158C44.4712 60.1664 46.9995 63.2463 49.5197 66.2249C50.3705 67.2304 51.3063 68.2936 52.1883 69.1797C52.5751 69.5683 53.1977 70.314 52.5359 69.4888C50.2079 66.5864 48.226 63.8822 46.1435 60.8983C45.8429 60.4675 41.8206 54.9222 41.9472 54.701C41.9612 54.6765 42.7782 55.7032 42.7962 55.725C44.0682 57.2635 45.375 58.8299 46.6797 60.3117C49.7757 63.8281 52.9001 67.0492 56.0228 70.4159C57.2873 71.7792 58.5431 73.1703 59.8152 74.4684C60.2541 74.9163 60.0698 74.6617 59.8184 74.3482" stroke="#C9C7D5" stroke-width="1.5" stroke-linecap="round"/>
<path d="M17.4744 22.2861L18.8735 38.7571L21.1427 19.7281L23.6156 40.0846L23.894 17.8097L25.1117 43.403L28.6966 16.0964L29.9143 41.6897L33.8006 19.8976L33.7393 43.6567L35.9243 20.5975L39.2418 39.8197L38.2532 19.2462L43.7549 36.1275L41.294 19.3066L46.5785 34.7038L47.2299 39.1564L46.0361 20.6341L47.2308 18.4381L49.185 31.7959" stroke="#C9C7D5" stroke-width="2" stroke-linecap="round" stroke-linejoin="round"/>
<path d="M56.2068 59.0667L63.0121 64.1349C60.6148 66.17 54.4302 69.0288 48.8701 64.1826" stroke="#005B85" stroke-width="2"/>
<path d="M51.7794 25.3524C53.3418 36.0317 46.1624 45.8818 35.8024 47.3975C25.4424 48.9131 15.7421 41.5326 14.1797 30.8533C12.6173 20.174 19.7968 10.3239 30.1568 8.80826C40.5167 7.29259 50.2171 14.6731 51.7794 25.3524Z" stroke="#005B85" stroke-width="2"/>
<ellipse cx="30.2889" cy="26.9805" rx="1.5" ry="2" transform="rotate(-8.32337 30.2889 26.9805)" fill="#005B85"/>
</svg>
