<svg width="362" height="301" viewBox="0 0 362 301" fill="none" xmlns="http://www.w3.org/2000/svg">
<circle cx="321.005" cy="37.0399" r="6.89776" transform="rotate(45 321.005 37.0399)" stroke="#005B85" stroke-width="1.72444"/>
<path d="M322.224 30.3336C325.882 27.4884 332.833 20.9445 331.369 17.5303C329.54 13.2625 325.272 10.2141 322.224 11.4335C319.176 12.6529 315.822 17.8351 319.176 18.7496C321.858 19.4813 322.529 18.0383 322.529 17.2254M327.711 35.211C330.353 31.3497 337.161 24.6635 343.258 28.8093C349.355 32.9552 348.237 37.04 346.916 38.5643C345.595 40.2917 342.526 43.0759 340.819 40.3933C339.112 37.7107 341.124 36.2271 342.344 35.8207" stroke="#005B85" stroke-width="1.72444"/>
<path d="M305.658 56.3508C300.765 60.822 295.996 64.464 292.253 66.7407C290.375 67.8828 288.793 68.6575 287.605 69.0324C287.008 69.2206 286.559 69.2922 286.247 69.2845C285.935 69.2768 285.861 69.196 285.855 69.1902C285.85 69.1843 285.776 69.1029 285.796 68.7918C285.817 68.4797 285.929 68.039 286.17 67.4616C286.65 66.3119 287.564 64.8066 288.87 63.0389C291.474 59.5154 295.531 55.0934 300.424 50.6222C305.33 46.1388 308.807 43.6337 311.232 42.4799C312.443 41.9032 313.327 41.6962 313.956 41.7026C314.55 41.7087 314.919 41.9022 315.186 42.1942C315.675 42.7295 315.969 43.8418 314.633 46.2312C313.315 48.5865 310.56 51.8721 305.658 56.3508Z" stroke="#005B85" stroke-width="1.72444"/>
<path d="M313.993 34.9062C311.351 30.8417 304.969 22.5906 300.58 22.1029C295.092 21.4932 286.557 24.5416 287.471 31.5529C288.203 37.162 289.402 39.9869 289.91 40.6981C286.862 38.8691 279.546 36.4304 274.668 41.3078C269.791 46.1853 271.62 52.8918 273.144 55.6353C274.567 57.6676 278.936 61.5493 289.91 60.8176M294.483 65.9999C292.552 71.7919 291.556 82.9491 300.58 86.1194C309.603 89.2898 315.11 81.1404 316.736 76.6694L316.431 70.2677C319.378 72.1984 326.186 75.8768 329.844 75.1452C334.417 74.2306 343.562 68.1339 337.77 58.6838C331.978 49.2337 321.918 43.4417 316.126 43.7465" stroke="#005B85" stroke-width="1.72444"/>
<path d="M298.454 38.9133C300.123 39.7557 301.574 38.9326 302.091 38.4158C302.435 38.0712 302.915 37.1728 302.078 36.3356C301.241 35.4984 299.989 34.936 299.468 34.7594C299.122 34.7573 298.221 34.9597 297.394 35.7866C296.568 36.6136 296.369 38.2071 296.374 38.9005C296.376 39.2472 296.589 40.1499 297.427 40.9871C298.473 42.0336 300.553 42.0465 301.593 42.0529C302.633 42.0593 303.15 41.5425 304.184 40.5088C305.011 39.6819 305.902 38.0927 306.245 37.4014C306.243 37.0547 305.924 36.0474 304.669 34.7916C303.099 33.2218 301.012 32.1688 299.972 32.1624C298.932 32.156 297.375 32.6664 295.825 34.2169C294.274 35.7674 293.247 37.8411 294.293 38.8876C295.34 39.9341 296.393 42.0207 296.916 42.544C297.439 43.0673 298.486 44.1138 299.526 44.1202C300.566 44.1266 301.606 44.1331 302.123 43.6162C302.64 43.0994 302.627 41.0192 303.667 41.0257C304.707 41.0321 304.197 42.589 306.264 40.5217C308.325 37.4143 311.426 34.3133 306.736 32.7243C302.046 31.1352 300.98 26.9684 297.349 28.506C293.719 30.0437 291.122 30.5476 293.221 33.6807C295.321 36.8139 288.576 39.3722 292.743 40.4381" stroke="#9CC379" stroke-width="1.72444" stroke-linecap="round" stroke-linejoin="round"/>
<path d="M284.689 52.4107C286.469 53.5384 287.73 53.0043 288.138 52.5963C288.41 52.3242 288.712 51.5379 287.743 50.5685C286.773 49.5991 285.451 48.8209 284.911 48.553C284.573 48.487 283.734 48.5183 283.081 49.1712C282.428 49.824 282.529 51.3391 282.661 52.015C282.727 52.353 283.101 53.2713 284.07 54.2407C285.282 55.4524 287.31 55.8481 288.324 56.046C289.338 56.2438 289.746 55.8358 290.562 55.0198C291.215 54.3669 291.79 52.9838 291.996 52.3738C291.93 52.0358 291.435 50.9964 289.981 49.5423C288.163 47.7246 285.937 46.315 284.923 46.1171C283.91 45.9193 282.488 46.1295 281.264 47.3535C280.039 48.5776 279.421 50.4075 280.633 51.6193C281.845 52.831 283.254 55.0567 283.86 55.6626C284.466 56.2685 285.678 57.4802 286.692 57.6781C287.706 57.8759 288.72 58.0738 289.128 57.6658C289.536 57.2577 289.14 55.2299 290.154 55.4278C291.168 55.6257 290.958 57.0476 292.59 55.4155C294.024 52.7695 296.472 50.3214 291.613 47.9102C286.753 45.499 284.948 41.2455 281.696 42.0738C278.444 42.9022 276.009 42.9145 278.63 46.3519C281.251 49.7893 275.156 51.038 279.409 52.8433" stroke="#4FB2CF" stroke-width="1.72444" stroke-linecap="round" stroke-linejoin="round"/>
<path d="M303.558 72.987C303.685 75.4628 304.86 76.2385 305.431 76.3168C305.812 76.3691 306.63 76.0714 306.85 74.4626C307.071 72.8539 306.929 71.0588 306.83 70.3624C306.685 70.0011 306.167 69.2472 305.253 69.1219C304.338 68.9965 303.163 70.2013 302.69 70.8194C302.454 71.1284 301.926 72.1487 301.705 73.7574C301.43 75.7683 302.297 77.936 302.731 79.0198C303.165 80.1036 303.737 80.182 304.88 80.3387C305.795 80.4641 307.259 79.9818 307.876 79.725C308.113 79.416 308.669 78.1946 308.999 75.7815C309.413 72.7651 309.254 69.6704 308.821 68.5865C308.387 67.5027 307.381 66.3405 305.666 66.1055C303.951 65.8704 302.098 66.6408 301.823 68.6517C301.547 70.6626 300.562 73.6007 300.424 74.6061C300.286 75.6116 300.011 77.6225 300.444 78.7064C300.878 79.7902 301.312 80.874 301.884 80.9524C302.456 81.0307 303.875 79.1765 304.308 80.2603C304.742 81.3442 303.461 82.1929 305.748 82.5064C308.744 81.8927 312.174 82.3628 311.286 76.095C310.398 69.8271 312.802 65.0348 310.219 62.6321C307.636 60.2294 306.197 57.9834 304.936 62.9323C303.675 67.8813 299.082 63.1542 300.108 68.4166" stroke="#4FB2CF" stroke-width="1.72444" stroke-linecap="round" stroke-linejoin="round"/>
<path d="M327.504 60.9148C328.103 59.0308 326.683 57.061 325.898 56.3117C325.374 55.8121 324.124 55.027 323.306 55.8833C322.488 56.7397 322.126 58.167 322.047 58.7736C322.138 59.2018 322.635 60.358 323.89 61.557C325.146 62.756 327.188 63.3413 328.052 63.484C328.484 63.5554 329.552 63.4841 330.37 62.6277C331.392 61.5573 330.844 58.9881 330.57 57.7035C330.296 56.4189 329.512 55.6695 327.942 54.1708C326.686 52.9718 324.462 51.5301 323.506 50.9591C323.074 50.8877 321.904 51.0661 320.677 52.3506C319.144 53.9563 318.396 56.3113 318.67 57.5959C318.944 58.8805 320.003 60.9145 322.357 63.1626C324.712 65.4108 327.578 67.1237 328.6 66.0532C329.622 64.9828 331.94 64.1265 332.451 63.5913C332.962 63.056 333.984 61.9856 333.71 60.701C333.436 59.4164 333.162 58.1318 332.377 57.3824C331.592 56.633 329.001 56.2047 328.727 54.9201C328.453 53.6355 330.534 54.5991 327.394 51.6016C322.959 48.3899 318.249 43.8936 317.538 49.3531C316.826 54.8126 311.917 55.2406 314.819 60.0579C317.721 64.8752 319.054 68.1938 322.394 66.2671C325.734 64.3403 330.754 73.2255 330.954 68.3013" stroke="#9CC379" stroke-width="1.72444" stroke-linecap="round" stroke-linejoin="round"/>
<path d="M2.5 299C23 270 74.6591 213.534 101 193.5C136.5 166.5 176 136 160.5 96C142.458 49.4409 87.2398 73.9232 77.5 96C70 113 73.5 155.929 113 155C152.5 154.071 250.5 111.5 276 82" stroke="#005B85" stroke-opacity="0.3" stroke-width="4" stroke-dasharray="15 15"/>
</svg>
