<svg width="405" height="413" viewBox="0 0 405 413" fill="none" xmlns="http://www.w3.org/2000/svg">
<g filter="url(#filter0_d_219_3)">
<rect x="32.2412" y="38.6478" width="340.325" height="314.353" fill="#F2FFE7"/>
</g>
<path d="M355.586 5.82961L355.552 51.332L313.417 56.6069L313.805 5.86478L355.586 5.82961Z" fill="#FFDFE0" fill-opacity="0.5"/>
<path d="M113.359 5.95827L113.36 56.5591L77.7663 62.3322L78.9088 0.352749L113.359 5.95827Z" fill="#FFD8D9" fill-opacity="0.5"/>
<path d="M140.35 82.1794C135.366 77.5019 139.838 74.7434 142.697 73.9489L143.236 68.7566L145.929 68.7954C146.313 67.8724 146.829 65.5955 145.814 63.8723C144.799 62.1491 136.339 64.0763 132.237 65.2554M140.35 82.1794C125.697 80.947 123.659 74.139 124.813 71.3699C125.736 69.1547 130.147 66.3705 132.237 65.2554M140.35 82.1794C141.158 82.9378 142.327 83.6826 143.757 84.4037M132.237 65.2554L134.238 55.2556L137.891 59.4868L140.777 52.564L143.238 55.7566L146.43 53.2954L148.622 55.8341L152.546 54.2192L154.699 59.4502L156.584 57.5273L161.622 62.3356L164.853 57.1821L167.737 63.2593C169.211 61.8877 172.607 59.1137 174.391 58.9909C175.714 59.9756 175.711 66.2218 175.544 69.2218L182.352 67.1841L181.313 74.8762L185.005 76.4151L181.158 85.6455L183.542 87.7227C182.375 89.2225 179.464 92.3068 177.157 92.645C174.646 93.0129 153.346 89.2421 143.757 84.4037M146.127 64.5447L147.699 61.9495L152.968 63.6039L154.891 58.9887M147.966 75.6033L146.621 72.3339L151.428 73.796L153.929 67.7963L155.813 72.3734L160.89 67.9894L162.236 71.2587L168.467 70.6056L166.543 75.2208M156.158 80.6427L157.889 76.489L160.158 80.1431L166.697 77.4515L165.427 81.7976L172.697 79.9522L170.965 84.1059L175.965 85.1064L172.849 88.683M136.747 81.7274C135.926 82.8298 134.227 85.6941 134.811 86.3711C135.542 87.2173 142.702 86.9351 143.757 84.4037" stroke="#005B85" stroke-width="1.5"/>
<path d="M140.196 86.4485C139.876 87.2177 139.911 89.4716 141.542 89.7179C143.173 89.9643 147.017 87.8467 148.735 86.7572" stroke="#005B85" stroke-width="1.5"/>
<path d="M130.929 65.7936C128.763 63.6267 123.86 60.139 121.583 63.5234C118.736 67.7538 120.275 70.5617 120.736 70.754C121.198 70.9464 123.582 73.0236 124.621 71.8314" stroke="#005B85" stroke-width="1.5"/>
<ellipse cx="136.929" cy="68.2943" rx="2" ry="2.5" transform="rotate(22.6263 136.929 68.2943)" fill="#005B85"/>
<path d="M121.93 65.2927L123.353 63.1775L121.506 68.908L125.199 63.9469L123.16 70.139L127.314 65.3702" stroke="#4F2D14" stroke-width="1.5" stroke-linecap="round" stroke-linejoin="round"/>
<path d="M141.813 77.3718L143.812 80.372L145.621 77.3338L145.928 81.7953L149.428 77.2957L148.774 84.0649L153.544 75.2193L152.581 84.0268L155.197 82.9502L156.927 85.2966L158.543 82.7198L159.427 85.7968L161.235 82.7586L161.466 86.1048L165.658 85.1437L166.273 87.5668L169.812 86.8749L169.817 89.044" stroke="#ECDC15" stroke-width="1.5" stroke-linecap="round" stroke-linejoin="round"/>
<path d="M172.929 70.2983L170.159 75.6442L175.583 73.0294L173.313 75.8753L177.967 75.1066L176.236 79.2602L180.044 79.2222" stroke="#ECDC15" stroke-width="1.5" stroke-linecap="round" stroke-linejoin="round"/>
<path d="M162.238 64.7587L164.661 64.1436L163.968 67.1051L167.045 66.2208L166.276 68.0669L172.93 63.7984L169.16 67.6441" stroke="#ECDC15" stroke-width="1.5" stroke-linecap="round" stroke-linejoin="round"/>
<path d="M155.276 64.5656L157.161 62.6428L156.083 66.5273L157.507 64.412M148.468 66.6033L150.161 65.142L147.852 70.6802L150.968 67.1036L150.468 69.6036L149.891 70.9881" stroke="#ECDC15" stroke-width="1.5" stroke-linecap="round" stroke-linejoin="round"/>
<path d="M135.177 59.5024L138.507 61.91L140.732 58.2488L141.437 60.582L143 58.1744L144.181 60.7061L145.925 57.8641L146.811 59.7629L148.011 58.224L149.555 59.887L150.756 58.3481L152.118 60.4454L152.661 59.1423" stroke="#ECDC15" stroke-width="1.5" stroke-linecap="round" stroke-linejoin="round"/>
<path d="M164.465 90.6051C162.863 92.2844 160.026 95.7969 161.503 96.4125C163.349 97.1819 168.85 95.6825 170.196 92.4519M166.426 96.2977C166.567 97.2592 167.595 98.9516 170.58 98.0289C173.565 97.1061 174.234 93.5934 174.196 91.9524" stroke="#005B85" stroke-width="1.5"/>
<defs>
<filter id="filter0_d_219_3" x="-0.000106812" y="33.2743" width="404.808" height="378.835" filterUnits="userSpaceOnUse" color-interpolation-filters="sRGB">
<feFlood flood-opacity="0" result="BackgroundImageFix"/>
<feColorMatrix in="SourceAlpha" type="matrix" values="0 0 0 0 0 0 0 0 0 0 0 0 0 0 0 0 0 0 127 0" result="hardAlpha"/>
<feOffset dy="26.8678"/>
<feGaussianBlur stdDeviation="16.1207"/>
<feComposite in2="hardAlpha" operator="out"/>
<feColorMatrix type="matrix" values="0 0 0 0 0 0 0 0 0 0 0 0 0 0 0 0 0 0 0.08 0"/>
<feBlend mode="normal" in2="BackgroundImageFix" result="effect1_dropShadow_219_3"/>
<feBlend mode="normal" in="SourceGraphic" in2="effect1_dropShadow_219_3" result="shape"/>
</filter>
</defs>
</svg>
