<svg width="420" height="393" viewBox="0 0 420 393" fill="none" xmlns="http://www.w3.org/2000/svg">
<g filter="url(#filter0_d_196_257)">
<path d="M34 6.44331H385.932V331.517H96.9773H34V6.44331Z" fill="#FDE3FF"/>
</g>
<line x1="43.7238" y1="6.44318" x2="43.7238" y2="331.517" stroke="#F3CDF5" stroke-width="0.926136"/>
<line x1="54.8376" y1="6.44318" x2="54.8376" y2="331.517" stroke="#F3CDF5" stroke-width="0.926136"/>
<line x1="65.9509" y1="6.44318" x2="65.9508" y2="331.517" stroke="#F3CDF5" stroke-width="0.926136"/>
<line x1="77.0651" y1="6.44183" x2="78.0074" y2="331.516" stroke="#F3CDF5" stroke-width="0.926136"/>
<line x1="89.1208" y1="6.44318" x2="89.1208" y2="331.517" stroke="#F3CDF5" stroke-width="0.926136"/>
<line x1="100.235" y1="6.44186" x2="101.158" y2="331.516" stroke="#F3CDF5" stroke-width="0.926136"/>
<line x1="112.271" y1="6.44318" x2="112.271" y2="331.517" stroke="#F3CDF5" stroke-width="0.926136"/>
<line y1="-0.463068" x2="325.075" y2="-0.463068" transform="matrix(0.00289974 0.999996 -0.999995 0.00310992 122.922 6.44318)" stroke="#F3CDF5" stroke-width="0.926136"/>
<line x1="135.442" y1="6.44318" x2="135.442" y2="331.517" stroke="#F3CDF5" stroke-width="0.926136"/>
<line x1="146.554" y1="6.44186" x2="147.478" y2="331.516" stroke="#F3CDF5" stroke-width="0.926136"/>
<line x1="158.592" y1="6.44318" x2="158.592" y2="331.517" stroke="#F3CDF5" stroke-width="0.926136"/>
<line y1="-0.463068" x2="325.075" y2="-0.463068" transform="matrix(0.00289974 0.999996 -0.999995 0.00310992 169.243 6.44318)" stroke="#F3CDF5" stroke-width="0.926136"/>
<line x1="181.761" y1="6.44318" x2="181.761" y2="331.517" stroke="#F3CDF5" stroke-width="0.926136"/>
<line x1="192.876" y1="6.44186" x2="193.799" y2="331.516" stroke="#F3CDF5" stroke-width="0.926136"/>
<line x1="204.912" y1="6.44318" x2="204.912" y2="331.517" stroke="#F3CDF5" stroke-width="0.926136"/>
<line y1="-0.463068" x2="325.075" y2="-0.463068" transform="matrix(0.00289974 0.999996 -0.999995 0.00310992 215.563 6.44318)" stroke="#F3CDF5" stroke-width="0.926136"/>
<line x1="228.081" y1="6.44318" x2="228.081" y2="331.517" stroke="#F3CDF5" stroke-width="0.926136"/>
<line x1="239.196" y1="6.44186" x2="240.119" y2="331.516" stroke="#F3CDF5" stroke-width="0.926136"/>
<line x1="251.233" y1="6.44318" x2="251.233" y2="331.517" stroke="#F3CDF5" stroke-width="0.926136"/>
<line y1="-0.463068" x2="325.075" y2="-0.463068" transform="matrix(0.00289974 0.999996 -0.999995 0.00310992 261.884 6.44318)" stroke="#F3CDF5" stroke-width="0.926136"/>
<line x1="274.402" y1="6.44318" x2="274.402" y2="331.517" stroke="#F3CDF5" stroke-width="0.926136"/>
<line x1="285.516" y1="6.44186" x2="286.44" y2="331.516" stroke="#F3CDF5" stroke-width="0.926136"/>
<line x1="297.553" y1="6.44318" x2="297.553" y2="331.517" stroke="#F3CDF5" stroke-width="0.926136"/>
<line y1="-0.463068" x2="325.075" y2="-0.463068" transform="matrix(0.00289974 0.999996 -0.999995 0.00310992 308.204 6.44318)" stroke="#F3CDF5" stroke-width="0.926136"/>
<line x1="320.723" y1="6.44318" x2="320.723" y2="331.517" stroke="#F3CDF5" stroke-width="0.926136"/>
<line x1="331.837" y1="6.44186" x2="332.761" y2="331.516" stroke="#F3CDF5" stroke-width="0.926136"/>
<line x1="343.874" y1="6.44318" x2="343.874" y2="331.517" stroke="#F3CDF5" stroke-width="0.926136"/>
<line y1="-0.463068" x2="325.075" y2="-0.463068" transform="matrix(0.00289974 0.999996 -0.999995 0.00310992 354.525 6.44318)" stroke="#F3CDF5" stroke-width="0.926136"/>
<line x1="366.946" y1="6.44186" x2="367.869" y2="331.516" stroke="#F3CDF5" stroke-width="0.926136"/>
<line x1="378.983" y1="6.44318" x2="378.983" y2="331.517" stroke="#F3CDF5" stroke-width="0.926136"/>
<line x1="34" y1="325.033" x2="385.932" y2="325.033" stroke="#F3CDF5" stroke-width="0.926136"/>
<line x1="34" y1="313.919" x2="385.932" y2="313.919" stroke="#F3CDF5" stroke-width="0.926136"/>
<line y1="-0.463068" x2="351.933" y2="-0.463068" transform="matrix(0.999996 -0.00267738 0.00313806 0.999995 34 303.268)" stroke="#F3CDF5" stroke-width="0.926136"/>
<line x1="34" y1="290.749" x2="385.932" y2="290.749" stroke="#F3CDF5" stroke-width="0.926136"/>
<line y1="-0.463068" x2="351.933" y2="-0.463068" transform="matrix(0.999997 -0.00262414 0.00307566 0.999995 34 280.099)" stroke="#F3CDF5" stroke-width="0.926136"/>
<line x1="34" y1="267.599" x2="385.932" y2="267.599" stroke="#F3CDF5" stroke-width="0.926136"/>
<line y1="-0.463068" x2="351.933" y2="-0.463068" transform="matrix(0.999996 -0.00267849 0.00336691 0.999994 34 256.948)" stroke="#F3CDF5" stroke-width="0.926136"/>
<line x1="34" y1="244.429" x2="385.932" y2="244.429" stroke="#F3CDF5" stroke-width="0.926136"/>
<line y1="-0.463068" x2="351.933" y2="-0.463068" transform="matrix(0.999997 -0.00262414 0.00307566 0.999995 34 233.778)" stroke="#F3CDF5" stroke-width="0.926136"/>
<line x1="34" y1="221.278" x2="385.932" y2="221.278" stroke="#F3CDF5" stroke-width="0.926136"/>
<line y1="-0.463068" x2="351.933" y2="-0.463068" transform="matrix(0.999996 -0.00267849 0.00336691 0.999994 34 210.628)" stroke="#F3CDF5" stroke-width="0.926136"/>
<line x1="34" y1="198.109" x2="385.932" y2="198.109" stroke="#F3CDF5" stroke-width="0.926136"/>
<line y1="-0.463068" x2="351.933" y2="-0.463068" transform="matrix(0.999997 -0.00262414 0.00307566 0.999995 34 187.458)" stroke="#F3CDF5" stroke-width="0.926136"/>
<line x1="34" y1="174.958" x2="385.932" y2="174.958" stroke="#F3CDF5" stroke-width="0.926136"/>
<line y1="-0.463068" x2="351.933" y2="-0.463068" transform="matrix(0.999996 -0.00267849 0.00336691 0.999994 34 164.307)" stroke="#F3CDF5" stroke-width="0.926136"/>
<line x1="34" y1="151.788" x2="385.932" y2="151.788" stroke="#F3CDF5" stroke-width="0.926136"/>
<line y1="-0.463068" x2="351.933" y2="-0.463068" transform="matrix(0.999997 -0.00262414 0.00307566 0.999995 34 141.138)" stroke="#F3CDF5" stroke-width="0.926136"/>
<line x1="34" y1="128.638" x2="385.932" y2="128.638" stroke="#F3CDF5" stroke-width="0.926136"/>
<line y1="-0.463068" x2="351.933" y2="-0.463068" transform="matrix(0.999996 -0.00267849 0.00336691 0.999994 34 117.987)" stroke="#F3CDF5" stroke-width="0.926136"/>
<line x1="34" y1="105.468" x2="385.932" y2="105.468" stroke="#F3CDF5" stroke-width="0.926136"/>
<line y1="-0.463068" x2="351.933" y2="-0.463068" transform="matrix(0.999997 -0.00262414 0.00307566 0.999995 34 94.8172)" stroke="#F3CDF5" stroke-width="0.926136"/>
<line x1="34" y1="82.3171" x2="385.932" y2="82.3171" stroke="#F3CDF5" stroke-width="0.926136"/>
<line y1="-0.463068" x2="351.933" y2="-0.463068" transform="matrix(0.999996 -0.00267849 0.00336691 0.999994 34 71.6666)" stroke="#F3CDF5" stroke-width="0.926136"/>
<line x1="34" y1="59.1474" x2="385.932" y2="59.1474" stroke="#F3CDF5" stroke-width="0.926136"/>
<line y1="-0.463068" x2="351.933" y2="-0.463068" transform="matrix(0.999997 -0.00262414 0.00307566 0.999995 34 48.4969)" stroke="#F3CDF5" stroke-width="0.926136"/>
<line x1="34" y1="35.9968" x2="385.932" y2="35.9968" stroke="#F3CDF5" stroke-width="0.926136"/>
<line y1="-0.463068" x2="351.933" y2="-0.463068" transform="matrix(0.999996 -0.00267849 0.00336691 0.999994 34 25.3462)" stroke="#F3CDF5" stroke-width="0.926136"/>
<line y1="-0.463068" x2="351.933" y2="-0.463068" transform="matrix(0.999997 -0.00262414 0.00307566 0.999995 34 13.3878)" stroke="#F3CDF5" stroke-width="0.926136"/>
<defs>
<filter id="filter0_d_196_257" x="0.659092" y="0.886497" width="418.613" height="391.756" filterUnits="userSpaceOnUse" color-interpolation-filters="sRGB">
<feFlood flood-opacity="0" result="BackgroundImageFix"/>
<feColorMatrix in="SourceAlpha" type="matrix" values="0 0 0 0 0 0 0 0 0 0 0 0 0 0 0 0 0 0 127 0" result="hardAlpha"/>
<feOffset dy="27.7841"/>
<feGaussianBlur stdDeviation="16.6705"/>
<feComposite in2="hardAlpha" operator="out"/>
<feColorMatrix type="matrix" values="0 0 0 0 0 0 0 0 0 0 0 0 0 0 0 0 0 0 0.08 0"/>
<feBlend mode="normal" in2="BackgroundImageFix" result="effect1_dropShadow_196_257"/>
<feBlend mode="normal" in="SourceGraphic" in2="effect1_dropShadow_196_257" result="shape"/>
</filter>
</defs>
</svg>
