<svg width="408" height="392" viewBox="0 0 408 392" fill="none" xmlns="http://www.w3.org/2000/svg">
<g filter="url(#filter0_d_219_2)">
<path d="M34.9277 18.1532H375.253V332.506H95.828L34.9277 280.562V18.1532Z" fill="#E5EFF3"/>
</g>
<circle cx="68.9602" cy="43.2299" r="2.68678" fill="#F4FCFF"/>
<circle cx="68.9602" cy="43.2299" r="2.68678" fill="#F4FCFF"/>
<circle cx="68.9602" cy="43.2299" r="2.68678" fill="#F4FCFF"/>
<circle cx="102.993" cy="43.2299" r="2.68678" fill="#F4FCFF"/>
<circle cx="102.993" cy="43.2299" r="2.68678" fill="#F4FCFF"/>
<circle cx="102.993" cy="43.2299" r="2.68678" fill="#F4FCFF"/>
<circle cx="137.025" cy="43.2299" r="2.68678" fill="#F4FCFF"/>
<circle cx="137.025" cy="43.2299" r="2.68678" fill="#F4FCFF"/>
<circle cx="137.025" cy="43.2299" r="2.68678" fill="#F4FCFF"/>
<circle cx="171.058" cy="43.2299" r="2.68678" fill="#F4FCFF"/>
<circle cx="171.058" cy="43.2299" r="2.68678" fill="#F4FCFF"/>
<circle cx="171.058" cy="43.2299" r="2.68678" fill="#F4FCFF"/>
<circle cx="205.091" cy="43.2299" r="2.68678" fill="#F4FCFF"/>
<circle cx="205.091" cy="43.2299" r="2.68678" fill="#F4FCFF"/>
<circle cx="205.091" cy="43.2299" r="2.68678" fill="#F4FCFF"/>
<circle cx="239.122" cy="43.2299" r="2.68678" fill="#F4FCFF"/>
<circle cx="239.122" cy="43.2299" r="2.68678" fill="#F4FCFF"/>
<circle cx="239.122" cy="43.2299" r="2.68678" fill="#F4FCFF"/>
<circle cx="273.155" cy="43.2299" r="2.68678" fill="#F4FCFF"/>
<circle cx="273.155" cy="43.2299" r="2.68678" fill="#F4FCFF"/>
<circle cx="273.155" cy="43.2299" r="2.68678" fill="#F4FCFF"/>
<circle cx="307.187" cy="43.2299" r="2.68678" fill="#F4FCFF"/>
<circle cx="307.187" cy="43.2299" r="2.68678" fill="#F4FCFF"/>
<circle cx="307.187" cy="43.2299" r="2.68678" fill="#F4FCFF"/>
<circle cx="341.219" cy="43.2299" r="2.68678" fill="#F4FCFF"/>
<circle cx="341.219" cy="43.2299" r="2.68678" fill="#F4FCFF"/>
<circle cx="341.219" cy="43.2299" r="2.68678" fill="#F4FCFF"/>
<circle cx="68.9602" cy="75.4711" r="2.68678" fill="#F4FCFF"/>
<circle cx="68.9602" cy="75.4711" r="2.68678" fill="#F4FCFF"/>
<circle cx="68.9602" cy="75.4711" r="2.68678" fill="#F4FCFF"/>
<circle cx="102.993" cy="75.4711" r="2.68678" fill="#F4FCFF"/>
<circle cx="102.993" cy="75.4711" r="2.68678" fill="#F4FCFF"/>
<circle cx="102.993" cy="75.4711" r="2.68678" fill="#F4FCFF"/>
<circle cx="137.025" cy="75.4711" r="2.68678" fill="#F4FCFF"/>
<circle cx="137.025" cy="75.4711" r="2.68678" fill="#F4FCFF"/>
<circle cx="137.025" cy="75.4711" r="2.68678" fill="#F4FCFF"/>
<circle cx="171.058" cy="75.4711" r="2.68678" fill="#F4FCFF"/>
<circle cx="171.058" cy="75.4711" r="2.68678" fill="#F4FCFF"/>
<circle cx="171.058" cy="75.4711" r="2.68678" fill="#F4FCFF"/>
<circle cx="205.091" cy="75.4711" r="2.68678" fill="#F4FCFF"/>
<circle cx="205.091" cy="75.4711" r="2.68678" fill="#F4FCFF"/>
<circle cx="205.091" cy="75.4711" r="2.68678" fill="#F4FCFF"/>
<circle cx="239.122" cy="75.4711" r="2.68678" fill="#F4FCFF"/>
<circle cx="239.122" cy="75.4711" r="2.68678" fill="#F4FCFF"/>
<circle cx="239.122" cy="75.4711" r="2.68678" fill="#F4FCFF"/>
<circle cx="273.155" cy="75.4711" r="2.68678" fill="#F4FCFF"/>
<circle cx="273.155" cy="75.4711" r="2.68678" fill="#F4FCFF"/>
<circle cx="273.155" cy="75.4711" r="2.68678" fill="#F4FCFF"/>
<circle cx="307.187" cy="75.4711" r="2.68678" fill="#F4FCFF"/>
<circle cx="307.187" cy="75.4711" r="2.68678" fill="#F4FCFF"/>
<circle cx="307.187" cy="75.4711" r="2.68678" fill="#F4FCFF"/>
<circle cx="341.219" cy="75.4711" r="2.68678" fill="#F4FCFF"/>
<circle cx="341.219" cy="75.4711" r="2.68678" fill="#F4FCFF"/>
<circle cx="341.219" cy="75.4711" r="2.68678" fill="#F4FCFF"/>
<circle cx="68.9602" cy="107.713" r="2.68678" fill="#F4FCFF"/>
<circle cx="68.9602" cy="107.713" r="2.68678" fill="#F4FCFF"/>
<circle cx="68.9602" cy="107.713" r="2.68678" fill="#F4FCFF"/>
<circle cx="102.993" cy="107.713" r="2.68678" fill="#F4FCFF"/>
<circle cx="102.993" cy="107.713" r="2.68678" fill="#F4FCFF"/>
<circle cx="102.993" cy="107.713" r="2.68678" fill="#F4FCFF"/>
<circle cx="137.025" cy="107.713" r="2.68678" fill="#F4FCFF"/>
<circle cx="137.025" cy="107.713" r="2.68678" fill="#F4FCFF"/>
<circle cx="137.025" cy="107.713" r="2.68678" fill="#F4FCFF"/>
<circle cx="171.058" cy="107.713" r="2.68678" fill="#F4FCFF"/>
<circle cx="171.058" cy="107.713" r="2.68678" fill="#F4FCFF"/>
<circle cx="171.058" cy="107.713" r="2.68678" fill="#F4FCFF"/>
<circle cx="205.091" cy="107.713" r="2.68678" fill="#F4FCFF"/>
<circle cx="205.091" cy="107.713" r="2.68678" fill="#F4FCFF"/>
<circle cx="205.091" cy="107.713" r="2.68678" fill="#F4FCFF"/>
<circle cx="239.122" cy="107.713" r="2.68678" fill="#F4FCFF"/>
<circle cx="239.122" cy="107.713" r="2.68678" fill="#F4FCFF"/>
<circle cx="239.122" cy="107.713" r="2.68678" fill="#F4FCFF"/>
<circle cx="273.155" cy="107.713" r="2.68678" fill="#F4FCFF"/>
<circle cx="273.155" cy="107.713" r="2.68678" fill="#F4FCFF"/>
<circle cx="273.155" cy="107.713" r="2.68678" fill="#F4FCFF"/>
<circle cx="307.187" cy="107.713" r="2.68678" fill="#F4FCFF"/>
<circle cx="307.187" cy="107.713" r="2.68678" fill="#F4FCFF"/>
<circle cx="307.187" cy="107.713" r="2.68678" fill="#F4FCFF"/>
<circle cx="341.219" cy="107.713" r="2.68678" fill="#F4FCFF"/>
<circle cx="341.219" cy="107.713" r="2.68678" fill="#F4FCFF"/>
<circle cx="341.219" cy="107.713" r="2.68678" fill="#F4FCFF"/>
<circle cx="68.9602" cy="139.954" r="2.68678" fill="#F4FCFF"/>
<circle cx="68.9602" cy="139.954" r="2.68678" fill="#F4FCFF"/>
<circle cx="68.9602" cy="139.954" r="2.68678" fill="#F4FCFF"/>
<circle cx="102.993" cy="139.954" r="2.68678" fill="#F4FCFF"/>
<circle cx="102.993" cy="139.954" r="2.68678" fill="#F4FCFF"/>
<circle cx="102.993" cy="139.954" r="2.68678" fill="#F4FCFF"/>
<circle cx="137.025" cy="139.954" r="2.68678" fill="#F4FCFF"/>
<circle cx="137.025" cy="139.954" r="2.68678" fill="#F4FCFF"/>
<circle cx="137.025" cy="139.954" r="2.68678" fill="#F4FCFF"/>
<circle cx="171.058" cy="139.954" r="2.68678" fill="#F4FCFF"/>
<circle cx="171.058" cy="139.954" r="2.68678" fill="#F4FCFF"/>
<circle cx="171.058" cy="139.954" r="2.68678" fill="#F4FCFF"/>
<circle cx="205.091" cy="139.954" r="2.68678" fill="#F4FCFF"/>
<circle cx="205.091" cy="139.954" r="2.68678" fill="#F4FCFF"/>
<circle cx="205.091" cy="139.954" r="2.68678" fill="#F4FCFF"/>
<circle cx="239.122" cy="139.954" r="2.68678" fill="#F4FCFF"/>
<circle cx="239.122" cy="139.954" r="2.68678" fill="#F4FCFF"/>
<circle cx="239.122" cy="139.954" r="2.68678" fill="#F4FCFF"/>
<circle cx="273.155" cy="139.954" r="2.68678" fill="#F4FCFF"/>
<circle cx="273.155" cy="139.954" r="2.68678" fill="#F4FCFF"/>
<circle cx="273.155" cy="139.954" r="2.68678" fill="#F4FCFF"/>
<circle cx="307.187" cy="139.954" r="2.68678" fill="#F4FCFF"/>
<circle cx="307.187" cy="139.954" r="2.68678" fill="#F4FCFF"/>
<circle cx="307.187" cy="139.954" r="2.68678" fill="#F4FCFF"/>
<circle cx="341.219" cy="139.954" r="2.68678" fill="#F4FCFF"/>
<circle cx="341.219" cy="139.954" r="2.68678" fill="#F4FCFF"/>
<circle cx="341.219" cy="139.954" r="2.68678" fill="#F4FCFF"/>
<circle cx="68.9602" cy="172.195" r="2.68678" fill="#F4FCFF"/>
<circle cx="68.9602" cy="172.195" r="2.68678" fill="#F4FCFF"/>
<circle cx="68.9602" cy="172.195" r="2.68678" fill="#F4FCFF"/>
<circle cx="102.993" cy="172.195" r="2.68678" fill="#F4FCFF"/>
<circle cx="102.993" cy="172.195" r="2.68678" fill="#F4FCFF"/>
<circle cx="102.993" cy="172.195" r="2.68678" fill="#F4FCFF"/>
<circle cx="137.025" cy="172.195" r="2.68678" fill="#F4FCFF"/>
<circle cx="137.025" cy="172.195" r="2.68678" fill="#F4FCFF"/>
<circle cx="137.025" cy="172.195" r="2.68678" fill="#F4FCFF"/>
<circle cx="171.058" cy="172.195" r="2.68678" fill="#F4FCFF"/>
<circle cx="171.058" cy="172.195" r="2.68678" fill="#F4FCFF"/>
<circle cx="171.058" cy="172.195" r="2.68678" fill="#F4FCFF"/>
<circle cx="205.091" cy="172.195" r="2.68678" fill="#F4FCFF"/>
<circle cx="205.091" cy="172.195" r="2.68678" fill="#F4FCFF"/>
<circle cx="205.091" cy="172.195" r="2.68678" fill="#F4FCFF"/>
<circle cx="239.122" cy="172.195" r="2.68678" fill="#F4FCFF"/>
<circle cx="239.122" cy="172.195" r="2.68678" fill="#F4FCFF"/>
<circle cx="239.122" cy="172.195" r="2.68678" fill="#F4FCFF"/>
<circle cx="273.155" cy="172.195" r="2.68678" fill="#F4FCFF"/>
<circle cx="273.155" cy="172.195" r="2.68678" fill="#F4FCFF"/>
<circle cx="273.155" cy="172.195" r="2.68678" fill="#F4FCFF"/>
<circle cx="307.187" cy="172.195" r="2.68678" fill="#F4FCFF"/>
<circle cx="307.187" cy="172.195" r="2.68678" fill="#F4FCFF"/>
<circle cx="307.187" cy="172.195" r="2.68678" fill="#F4FCFF"/>
<circle cx="341.219" cy="172.195" r="2.68678" fill="#F4FCFF"/>
<circle cx="341.219" cy="172.195" r="2.68678" fill="#F4FCFF"/>
<circle cx="341.219" cy="172.195" r="2.68678" fill="#F4FCFF"/>
<circle cx="68.9602" cy="204.436" r="2.68678" fill="#F4FCFF"/>
<circle cx="68.9602" cy="204.436" r="2.68678" fill="#F4FCFF"/>
<circle cx="68.9602" cy="204.436" r="2.68678" fill="#F4FCFF"/>
<circle cx="102.993" cy="204.436" r="2.68678" fill="#F4FCFF"/>
<circle cx="102.993" cy="204.436" r="2.68678" fill="#F4FCFF"/>
<circle cx="102.993" cy="204.436" r="2.68678" fill="#F4FCFF"/>
<circle cx="137.025" cy="204.436" r="2.68678" fill="#F4FCFF"/>
<circle cx="137.025" cy="204.436" r="2.68678" fill="#F4FCFF"/>
<circle cx="137.025" cy="204.436" r="2.68678" fill="#F4FCFF"/>
<circle cx="171.058" cy="204.436" r="2.68678" fill="#F4FCFF"/>
<circle cx="171.058" cy="204.436" r="2.68678" fill="#F4FCFF"/>
<circle cx="171.058" cy="204.436" r="2.68678" fill="#F4FCFF"/>
<circle cx="205.091" cy="204.436" r="2.68678" fill="#F4FCFF"/>
<circle cx="205.091" cy="204.436" r="2.68678" fill="#F4FCFF"/>
<circle cx="205.091" cy="204.436" r="2.68678" fill="#F4FCFF"/>
<circle cx="239.122" cy="204.436" r="2.68678" fill="#F4FCFF"/>
<circle cx="239.122" cy="204.436" r="2.68678" fill="#F4FCFF"/>
<circle cx="239.122" cy="204.436" r="2.68678" fill="#F4FCFF"/>
<circle cx="273.155" cy="204.436" r="2.68678" fill="#F4FCFF"/>
<circle cx="273.155" cy="204.436" r="2.68678" fill="#F4FCFF"/>
<circle cx="273.155" cy="204.436" r="2.68678" fill="#F4FCFF"/>
<circle cx="307.187" cy="204.436" r="2.68678" fill="#F4FCFF"/>
<circle cx="307.187" cy="204.436" r="2.68678" fill="#F4FCFF"/>
<circle cx="307.187" cy="204.436" r="2.68678" fill="#F4FCFF"/>
<circle cx="341.219" cy="204.436" r="2.68678" fill="#F4FCFF"/>
<circle cx="341.219" cy="204.436" r="2.68678" fill="#F4FCFF"/>
<circle cx="341.219" cy="204.436" r="2.68678" fill="#F4FCFF"/>
<circle cx="68.9602" cy="236.678" r="2.68678" fill="#F4FCFF"/>
<circle cx="68.9602" cy="236.678" r="2.68678" fill="#F4FCFF"/>
<circle cx="68.9602" cy="236.678" r="2.68678" fill="#F4FCFF"/>
<circle cx="102.993" cy="236.678" r="2.68678" fill="#F4FCFF"/>
<circle cx="102.993" cy="236.678" r="2.68678" fill="#F4FCFF"/>
<circle cx="102.993" cy="236.678" r="2.68678" fill="#F4FCFF"/>
<circle cx="137.025" cy="236.678" r="2.68678" fill="#F4FCFF"/>
<circle cx="137.025" cy="236.678" r="2.68678" fill="#F4FCFF"/>
<circle cx="137.025" cy="236.678" r="2.68678" fill="#F4FCFF"/>
<circle cx="171.058" cy="236.678" r="2.68678" fill="#F4FCFF"/>
<circle cx="171.058" cy="236.678" r="2.68678" fill="#F4FCFF"/>
<circle cx="171.058" cy="236.678" r="2.68678" fill="#F4FCFF"/>
<circle cx="205.091" cy="236.678" r="2.68678" fill="#F4FCFF"/>
<circle cx="205.091" cy="236.678" r="2.68678" fill="#F4FCFF"/>
<circle cx="205.091" cy="236.678" r="2.68678" fill="#F4FCFF"/>
<circle cx="239.122" cy="236.678" r="2.68678" fill="#F4FCFF"/>
<circle cx="239.122" cy="236.678" r="2.68678" fill="#F4FCFF"/>
<circle cx="239.122" cy="236.678" r="2.68678" fill="#F4FCFF"/>
<circle cx="273.155" cy="236.678" r="2.68678" fill="#F4FCFF"/>
<circle cx="273.155" cy="236.678" r="2.68678" fill="#F4FCFF"/>
<circle cx="273.155" cy="236.678" r="2.68678" fill="#F4FCFF"/>
<circle cx="307.187" cy="236.678" r="2.68678" fill="#F4FCFF"/>
<circle cx="307.187" cy="236.678" r="2.68678" fill="#F4FCFF"/>
<circle cx="307.187" cy="236.678" r="2.68678" fill="#F4FCFF"/>
<circle cx="341.219" cy="236.678" r="2.68678" fill="#F4FCFF"/>
<circle cx="341.219" cy="236.678" r="2.68678" fill="#F4FCFF"/>
<circle cx="341.219" cy="236.678" r="2.68678" fill="#F4FCFF"/>
<circle cx="68.9602" cy="268.919" r="2.68678" fill="#F4FCFF"/>
<circle cx="68.9602" cy="268.919" r="2.68678" fill="#F4FCFF"/>
<circle cx="68.9602" cy="268.919" r="2.68678" fill="#F4FCFF"/>
<circle cx="102.993" cy="268.919" r="2.68678" fill="#F4FCFF"/>
<circle cx="102.993" cy="268.919" r="2.68678" fill="#F4FCFF"/>
<circle cx="102.993" cy="268.919" r="2.68678" fill="#F4FCFF"/>
<circle cx="137.025" cy="268.919" r="2.68678" fill="#F4FCFF"/>
<circle cx="137.025" cy="268.919" r="2.68678" fill="#F4FCFF"/>
<circle cx="137.025" cy="268.919" r="2.68678" fill="#F4FCFF"/>
<circle cx="171.058" cy="268.919" r="2.68678" fill="#F4FCFF"/>
<circle cx="171.058" cy="268.919" r="2.68678" fill="#F4FCFF"/>
<circle cx="171.058" cy="268.919" r="2.68678" fill="#F4FCFF"/>
<circle cx="205.091" cy="268.919" r="2.68678" fill="#F4FCFF"/>
<circle cx="205.091" cy="268.919" r="2.68678" fill="#F4FCFF"/>
<circle cx="205.091" cy="268.919" r="2.68678" fill="#F4FCFF"/>
<circle cx="239.122" cy="268.919" r="2.68678" fill="#F4FCFF"/>
<circle cx="239.122" cy="268.919" r="2.68678" fill="#F4FCFF"/>
<circle cx="239.122" cy="268.919" r="2.68678" fill="#F4FCFF"/>
<circle cx="273.155" cy="268.919" r="2.68678" fill="#F4FCFF"/>
<circle cx="273.155" cy="268.919" r="2.68678" fill="#F4FCFF"/>
<circle cx="273.155" cy="268.919" r="2.68678" fill="#F4FCFF"/>
<circle cx="307.187" cy="268.919" r="2.68678" fill="#F4FCFF"/>
<circle cx="307.187" cy="268.919" r="2.68678" fill="#F4FCFF"/>
<circle cx="307.187" cy="268.919" r="2.68678" fill="#F4FCFF"/>
<circle cx="341.219" cy="268.919" r="2.68678" fill="#F4FCFF"/>
<circle cx="341.219" cy="268.919" r="2.68678" fill="#F4FCFF"/>
<circle cx="341.219" cy="268.919" r="2.68678" fill="#F4FCFF"/>
<circle cx="68.9602" cy="301.16" r="2.68678" fill="#F4FCFF"/>
<circle cx="68.9602" cy="301.16" r="2.68678" fill="#F4FCFF"/>
<circle cx="68.9602" cy="301.16" r="2.68678" fill="#F4FCFF"/>
<circle cx="102.993" cy="301.16" r="2.68678" fill="#F4FCFF"/>
<circle cx="102.993" cy="301.16" r="2.68678" fill="#F4FCFF"/>
<circle cx="102.993" cy="301.16" r="2.68678" fill="#F4FCFF"/>
<circle cx="137.025" cy="301.16" r="2.68678" fill="#F4FCFF"/>
<circle cx="137.025" cy="301.16" r="2.68678" fill="#F4FCFF"/>
<circle cx="137.025" cy="301.16" r="2.68678" fill="#F4FCFF"/>
<circle cx="171.058" cy="301.16" r="2.68678" fill="#F4FCFF"/>
<circle cx="171.058" cy="301.16" r="2.68678" fill="#F4FCFF"/>
<circle cx="171.058" cy="301.16" r="2.68678" fill="#F4FCFF"/>
<circle cx="205.091" cy="301.16" r="2.68678" fill="#F4FCFF"/>
<circle cx="205.091" cy="301.16" r="2.68678" fill="#F4FCFF"/>
<circle cx="205.091" cy="301.16" r="2.68678" fill="#F4FCFF"/>
<circle cx="239.122" cy="301.16" r="2.68678" fill="#F4FCFF"/>
<circle cx="239.122" cy="301.16" r="2.68678" fill="#F4FCFF"/>
<circle cx="239.122" cy="301.16" r="2.68678" fill="#F4FCFF"/>
<circle cx="273.155" cy="301.16" r="2.68678" fill="#F4FCFF"/>
<circle cx="273.155" cy="301.16" r="2.68678" fill="#F4FCFF"/>
<circle cx="273.155" cy="301.16" r="2.68678" fill="#F4FCFF"/>
<circle cx="307.187" cy="301.16" r="2.68678" fill="#F4FCFF"/>
<circle cx="307.187" cy="301.16" r="2.68678" fill="#F4FCFF"/>
<circle cx="307.187" cy="301.16" r="2.68678" fill="#F4FCFF"/>
<circle cx="341.219" cy="301.16" r="2.68678" fill="#F4FCFF"/>
<circle cx="341.219" cy="301.16" r="2.68678" fill="#F4FCFF"/>
<circle cx="341.219" cy="301.16" r="2.68678" fill="#F4FCFF"/>
<path d="M91.1359 276.692L95.7565 332.96L34.8224 280.716L91.1359 276.692Z" fill="#B6D2DD"/>
<path d="M107.096 26.4294L25.0679 74.607L0.000118667 52.666L86.2853 3.60816L107.096 26.4294Z" fill="#FFFCD0" fill-opacity="0.5"/>
<path d="M390.979 310.769L340.214 340.987L320.621 320.281L374.201 289.817L390.979 310.769Z" fill="#FFFCD0" fill-opacity="0.5"/>
<defs>
<filter id="filter0_d_219_2" x="2.68642" y="12.7796" width="404.808" height="378.835" filterUnits="userSpaceOnUse" color-interpolation-filters="sRGB">
<feFlood flood-opacity="0" result="BackgroundImageFix"/>
<feColorMatrix in="SourceAlpha" type="matrix" values="0 0 0 0 0 0 0 0 0 0 0 0 0 0 0 0 0 0 127 0" result="hardAlpha"/>
<feOffset dy="26.8678"/>
<feGaussianBlur stdDeviation="16.1207"/>
<feComposite in2="hardAlpha" operator="out"/>
<feColorMatrix type="matrix" values="0 0 0 0 0 0 0 0 0 0 0 0 0 0 0 0 0 0 0.08 0"/>
<feBlend mode="normal" in2="BackgroundImageFix" result="effect1_dropShadow_219_2"/>
<feBlend mode="normal" in="SourceGraphic" in2="effect1_dropShadow_219_2" result="shape"/>
</filter>
</defs>
</svg>
