<svg width="1440" height="118" viewBox="0 0 1440 118" fill="none" xmlns="http://www.w3.org/2000/svg">
<mask id="mask0_338_1024" style="mask-type:alpha" maskUnits="userSpaceOnUse" x="0" y="0" width="1440" height="118">
<rect width="1440" height="118" fill="#C4C4C4"/>
</mask>
<g mask="url(#mask0_338_1024)">
<path d="M55.2918 83.6741C55.4277 83.7134 55.4987 83.7317 55.6629 83.7244C56.9191 83.6686 58.1934 83.4655 59.4464 83.3092C63.6092 82.7903 67.7776 82.3241 71.9389 81.7967C72.9926 81.6631 74.0291 81.4049 75.0792 81.2457C75.2363 81.2219 77.1619 81.0595 76.4123 81.1977C74.674 81.5184 73.0022 82.0869 71.2744 82.4452C68.8997 82.9376 66.451 83.4025 64.1425 84.1226C63.0071 84.4768 61.8225 85.0087 60.6515 85.2247C59.6715 85.4054 58.7753 85.8761 57.826 86.0512C57.5079 86.1099 57.2804 86.1574 57.0046 86.2989C56.8447 86.3809 57.3702 86.2371 57.5525 86.2035C59.3617 85.8697 61.1756 85.5554 62.9993 85.3232C67.2198 84.7858 71.5159 84.6458 75.7068 83.8727C77.4469 83.5518 79.1871 83.2308 80.9273 82.9098C80.9753 82.9009 81.2788 82.8449 81.1533 82.8681C80.3807 83.0106 79.6046 83.1427 78.8387 83.3176C75.6825 84.0386 72.61 85.0431 69.4213 85.6429C66.91 86.1153 64.3952 86.57 61.8822 87.0336C60.673 87.2566 59.4609 87.4577 58.288 87.821C58.2314 87.8385 57.1406 88.2711 57.5208 88.2396C60.0583 88.0292 62.6518 87.2487 65.1896 86.8985C67.3241 86.604 69.5001 86.5715 71.6404 86.3929C73.2947 86.2549 74.9248 85.856 76.5729 85.7489C77.3407 85.699 78.1572 85.762 78.9168 85.6219C79.1002 85.5881 79.2464 85.5939 79.4267 85.607C79.6049 85.62 78.834 85.7552 78.7494 85.7772C75.0828 86.7334 71.481 87.8501 67.8192 88.8113C66.4412 89.173 65.0352 89.444 63.6608 89.8102C62.9022 90.0124 64.265 89.7497 64.3188 89.7398C67.2195 89.2047 70.1003 88.6627 73.0334 88.3868C74.476 88.2511 75.9827 88.199 77.4133 87.9352C77.649 87.8917 78.003 87.8909 78.0805 87.7103" stroke="#C2C695" stroke-width="2" stroke-linecap="round" stroke-linejoin="round"/>
<path d="M72.5479 80.465C74.5472 77.5854 76.5466 74.7057 78.5459 71.8261C78.6628 71.6577 79.406 70.7239 79.1396 71.1894C78.0484 73.0964 76.7718 75.0223 75.6117 76.926C74.8787 78.1289 73.9948 79.4295 73.3312 80.6232C72.9147 81.3725 72.2863 82.0961 71.8632 82.8711C71.735 83.106 72.8402 81.6582 72.9765 81.4861C74.8183 79.1599 76.6965 76.9226 78.5659 74.6614C79.0658 74.0568 79.5529 73.4267 80.0522 72.8241C80.7018 72.0402 80.0735 72.8962 79.869 73.2032C78.532 75.211 77.3221 77.337 76.0389 79.369C74.9411 81.1076 71.5443 86.2795 72.725 84.579C75.3421 80.8096 78.4154 77.2604 81.258 73.8666C81.3079 73.807 81.9463 72.9438 81.9644 72.9947C81.9998 73.0939 79.5901 76.4377 79.4343 76.6632C77.9923 78.751 76.55 80.8919 75.1764 83.0142C74.7128 83.7306 74.2327 84.5132 73.8615 85.2358C73.6987 85.5527 73.3524 86.0782 73.7432 85.5154C75.1178 83.5355 76.4515 81.8199 77.9525 79.9988C78.1692 79.7359 80.9159 76.2467 81.1066 76.3055C81.1277 76.312 80.6396 77.0079 80.6295 77.0231C79.9116 78.0988 79.184 79.2022 78.515 80.2931C76.9276 82.8818 75.555 85.4522 74.0799 88.0401C73.4826 89.0881 72.8634 90.1336 72.314 91.1783C72.1244 91.5388 72.2506 91.3789 72.399 91.1651" stroke="#C2C695" stroke-width="1.5" stroke-linecap="round" stroke-linejoin="round"/>
<path d="M90.6119 52.8713C91.9104 52.7313 94.7995 52.4512 95.9681 52.4512C97.4289 52.4512 91.5857 59.1734 88.1772 61.2741" stroke="#005B85" stroke-width="2"/>
<path d="M90.4009 54.0553C90.4009 61.062 84.8954 66.6908 78.1665 66.6908C71.4376 66.6908 65.9321 61.062 65.9321 54.0553C65.9321 47.0486 71.4376 41.4199 78.1665 41.4199C84.8954 41.4199 90.4009 47.0486 90.4009 54.0553Z" stroke="#005B85" stroke-width="2"/>
<path d="M69.7446 92.6108C47.8995 96.1016 50.9086 82.5781 54.9053 75.3105C55.8413 77.8505 58.7561 81.1658 64.5311 80.5241C70.3061 79.8824 72.8195 77.3158 73.755 75.3105L74.9574 67.2897C75.5991 67.2897 80.0373 67.0224 82.1762 66.8887C84.8498 72.3696 86.7677 88.4436 77.3644 90.9512C76.5371 91.1718 75.735 91.3745 74.9574 91.5599M69.7446 92.6108L72.1508 111.805M69.7446 92.6108C71.3456 92.3549 73.0801 92.0077 74.9574 91.5599M72.1508 111.805L80.5727 113.008M72.1508 111.805L76.5623 117.42M74.9574 91.5599L80.5727 108.597M80.5727 108.597L84.9842 105.79M80.5727 108.597L85.3852 112.607" stroke="#005B85" stroke-width="2"/>
<path d="M79.5753 56.1003C81.2275 55.5564 81.6405 54.0605 81.6405 53.3806C81.6405 52.9273 81.3652 52.0207 80.2637 52.0207C79.1623 52.0207 77.9691 52.474 77.5102 52.7007C77.2807 52.9273 76.8218 53.6526 76.8218 54.7404C76.8218 55.8283 77.7396 57.0069 78.1986 57.4602C78.428 57.6868 79.1623 58.1401 80.2637 58.1401C81.6405 58.1401 83.0173 56.7802 83.7057 56.1003C84.3941 55.4204 84.3941 54.7404 84.3941 53.3806C84.3941 52.2927 83.9351 50.6609 83.7057 49.981C83.4762 49.7543 82.6043 49.301 80.9521 49.301C78.887 49.301 76.8218 49.981 76.1334 50.6609C75.445 51.3408 74.7566 52.7007 74.7566 54.7404C74.7566 56.7802 75.445 58.82 76.8218 58.82C78.1986 58.82 80.2637 59.4999 80.9521 59.4999C81.6405 59.4999 83.0173 59.4999 83.7057 58.82C84.3941 58.1401 85.0824 57.4602 85.0824 56.7802C85.0824 56.1003 83.7057 54.7404 84.3941 54.0605C85.0824 53.3806 85.7708 54.7404 85.7708 52.0207C85.0824 48.6211 85.0824 44.5415 80.9521 46.5813C76.8218 48.6211 73.3799 46.5813 72.0031 49.981C70.6263 53.3806 69.2495 55.4204 72.6915 56.1003C76.1334 56.7802 73.3799 62.8995 76.8218 60.8598" stroke="#C2C695" stroke-width="2"/>
<circle cx="80.9583" cy="51.6491" r="0.802083" fill="#005B85"/>
<path d="M1023.93 66.9392L1024.53 63.9972M1032.57 25.7899L1025.75 58.1132M1025.75 58.1132C1032.11 50.8144 1046.32 36.0857 1052.24 35.5609C1058.17 35.0362 1036.24 54.2998 1024.53 63.9972M1025.75 58.1132L1024.53 63.9972" stroke="#005B85" stroke-width="1.5"/>
<path d="M1030.87 0.54857C1024.59 18.3392 1029.3 25.1114 1032.44 26.2738C1044.55 29.0104 1051.03 15.0944 1052.75 7.79425L1046.17 11.2475L1041.65 2.83577L1035.78 7.50865C1035.54 7.10209 1034.23 5.1409 1030.87 0.54857Z" stroke="#005B85" stroke-width="1.5"/>
<path d="M1028.38 57.7655L1046.25 40.7177L1038.16 49.9774" stroke="#87BE46" stroke-width="1.5"/>
<path d="M1031.43 5.34257L1030.48 20.0788L1033 10.4013L1032.81 22.2343L1038.75 8.28118L1035.35 21.3458L1041.41 6.90879L1037.13 23.3605L1042.19 12.7945L1042.05 19.9911L1044.52 14.95L1046.05 17.9325L1049.06 13.0322" stroke="#E05457" stroke-width="1.5"/>
</g>
</svg>
