<svg width="202" height="196" viewBox="0 0 202 196" fill="none" xmlns="http://www.w3.org/2000/svg">
<path d="M71.5504 60.5389L61.369 85.7498L78.801 55.6727L64.4579 83.1596L82.2452 55.0507L64.397 96.889L91.3274 51.8861L72.0919 94.483L92.0383 55.8224L75.0853 96.9909L97.5808 58.378L76.7738 106.34L104.599 60.6671L85.5828 107.289L114.392 61.4388L89.9157 111.588L114.83 69.4892L96.4899 111.416L118.801 77.4095L105.839 109.728L123.489 83.676L112.864 106.427L130.378 82.4319" stroke="#D7D32D" stroke-width="2"/>
<path d="M135.81 64.6838C144.58 60.7288 164.233 51.0146 172.685 43.7975M139.092 88.4795C143.445 88.2014 153.547 87.4947 159.129 86.893C166.106 86.1409 172.81 89.5029 176.836 89.284C180.861 89.0651 183.184 90.6778 187.168 87.4178" stroke="#005B85" stroke-width="2" stroke-linecap="round" stroke-linejoin="round"/>
<path d="M125.022 111.852C138.248 121.319 165.711 140.781 169.752 142.897M110.651 125.118C117.253 139.168 130.929 169.317 132.816 177.512M91.4005 142.313C91.5283 147.709 92.0068 159.174 92.8981 161.858M75.5792 133.484C73.0829 139.355 68.071 152.115 67.9947 156.194C67.9183 160.272 63.9224 171.156 61.934 176.088M49.6705 108.186C39.9576 115.36 20.298 130.665 19.3633 134.492M16.0603 90.8844C19.7734 89.875 28.0674 87.598 31.539 86.5646C35.8785 85.2727 43.3068 81.3907 48.9858 81.8893" stroke="#005B85" stroke-width="2" stroke-linecap="round" stroke-linejoin="round"/>
<path d="M44.582 23.7463C50.8239 27.3612 63.7697 37.1495 65.6181 47.3839" stroke="#005B85" stroke-width="2" stroke-linecap="round" stroke-linejoin="round"/>
<path d="M100.894 17.6406C101.042 18.4607 101.319 21.1205 101.242 25.199C101.166 29.2775 99.1427 36.0787 98.1406 38.9695" stroke="#005B85" stroke-width="2" stroke-linejoin="round"/>
<path d="M132.353 76.4862C136.185 97.706 122.519 117.893 101.89 121.619C81.2602 125.345 61.3955 111.214 57.563 89.9938C53.7306 68.774 67.3972 48.5867 88.0265 44.8609C108.656 41.1351 128.521 55.2664 132.353 76.4862Z" stroke="#005B85" stroke-width="2"/>
<ellipse cx="74.7976" cy="75.7032" rx="1" ry="1.5" transform="rotate(-10.2376 74.7976 75.7032)" fill="#005B85"/>
<ellipse cx="108.074" cy="69.9669" rx="1" ry="1.5" transform="rotate(-55.0111 108.074 69.9669)" fill="#005B85"/>
<path d="M91.3984 105.731C95.4055 108.225 104.469 110.585 108.668 100.071" stroke="#005B85"/>
</svg>
