<svg width="21" height="20" viewBox="0 0 21 20" fill="none" xmlns="http://www.w3.org/2000/svg">
<g clip-path="url(#clip0_196_472)">
<path d="M18.9196 5.9275C19.7329 5.35 20.4171 4.62917 20.9746 3.79917V3.79833C20.2304 4.12417 19.4388 4.34083 18.6121 4.44583C19.4621 3.93833 20.1113 3.14083 20.4163 2.18C19.6238 2.6525 18.7488 2.98583 17.8163 3.1725C17.0638 2.37083 15.9913 1.875 14.8213 1.875C12.5513 1.875 10.7238 3.7175 10.7238 5.97583C10.7238 6.30083 10.7513 6.61333 10.8188 6.91083C7.41044 6.74417 4.39378 5.11083 2.36711 2.62167C2.01378 3.23583 1.80544 3.93833 1.80544 4.69417C1.80544 6.11417 2.53628 7.3725 3.62711 8.10167C2.96794 8.08917 2.32211 7.8975 1.77461 7.59667V7.64167C1.77461 9.63417 3.19544 11.2892 5.05961 11.6708C4.72544 11.7625 4.36211 11.8058 3.98461 11.8058C3.72211 11.8058 3.45711 11.7908 3.20878 11.7358C3.73961 13.3592 5.24794 14.5533 7.03961 14.5925C5.64461 15.6833 3.87294 16.3408 1.95544 16.3408C1.61961 16.3408 1.29711 16.3258 0.974609 16.285C2.79128 17.4558 4.94294 18.125 7.26461 18.125C14.5004 18.125 19.2163 12.0883 18.9196 5.9275Z" fill="#58445B"/>
</g>
<defs>
<clipPath id="clip0_196_472">
<rect width="20" height="20" fill="white" transform="translate(0.974609)"/>
</clipPath>
</defs>
</svg>
