<svg width="300" height="300" viewBox="0 0 300 300" fill="none" xmlns="http://www.w3.org/2000/svg">
<g clip-path="url(#clip0_281_86)">
<path d="M93.5099 162.201C93.5099 162.201 56.0425 194.358 76.8343 204.989C85.8845 204.989 104.143 169.429 104.143 169.429L93.5099 162.201V162.201Z" fill="#9FC0D2"/>
<path d="M67.6785 73.8551C89.2892 73.8551 106.808 62.9185 106.808 49.4276C106.808 35.9366 89.2892 25 67.6785 25C46.0678 25 28.5488 35.9366 28.5488 49.4276C28.5488 62.9185 46.0678 73.8551 67.6785 73.8551Z" fill="#B2CEDB"/>
<path d="M68.2358 96.4841C86.9512 85.6811 96.6536 67.4522 89.9066 55.7687C83.1596 44.0852 62.5183 43.3714 43.8028 54.1743C25.0874 64.9773 15.385 83.2062 22.132 94.8898C28.879 106.573 49.5204 107.287 68.2358 96.4841Z" fill="#B2CEDB"/>
<path d="M95.0647 111.009C112.472 98.2056 120.102 79.017 112.106 68.1498C104.11 57.2826 83.5157 58.8521 66.1079 71.6552C48.7002 84.4584 41.0706 103.647 49.0668 114.514C57.0629 125.381 77.6569 123.812 95.0647 111.009Z" fill="#B2CEDB"/>
<path d="M73.7737 72.668C82.9251 72.668 90.3438 68.6287 90.3438 63.6461C90.3438 58.6635 82.9251 54.6243 73.7737 54.6243C64.6223 54.6243 57.2036 58.6635 57.2036 63.6461C57.2036 68.6287 64.6223 72.668 73.7737 72.668Z" fill="#98BCCE"/>
<path d="M74.9876 97.7022C85.3048 97.7022 93.6685 90.8639 93.6685 82.4284C93.6685 73.9929 85.3048 67.1545 74.9876 67.1545C64.6704 67.1545 56.3066 73.9929 56.3066 82.4284C56.3066 90.8639 64.6704 97.7022 74.9876 97.7022Z" fill="#98BCCE"/>
<path d="M231.374 74.3563C252.955 74.3563 270.451 63.4198 270.451 49.9288C270.451 36.4378 252.955 25.5012 231.374 25.5012C209.792 25.5012 192.297 36.4378 192.297 49.9288C192.297 63.4198 209.792 74.3563 231.374 74.3563Z" fill="#B2CEDB"/>
<path d="M276.867 95.4173C283.626 83.7408 273.953 65.5077 255.262 54.6924C236.57 43.8771 215.938 44.5753 209.179 56.2517C202.42 67.9282 212.093 86.1613 230.784 96.9766C249.476 107.792 270.108 107.094 276.867 95.4173Z" fill="#B2CEDB"/>
<path d="M249.949 115.047C257.959 104.19 250.362 84.999 232.982 72.1832C215.601 59.3675 195.019 57.7799 187.009 68.6373C179 79.4947 186.596 98.6856 203.977 111.501C221.357 124.317 241.94 125.905 249.949 115.047Z" fill="#B2CEDB"/>
<path d="M225.358 77.3371C234.349 77.3371 241.638 73.2979 241.638 68.3153C241.638 63.3327 234.349 59.2935 225.358 59.2935C216.367 59.2935 209.078 63.3327 209.078 68.3153C209.078 73.2979 216.367 77.3371 225.358 77.3371Z" fill="#98BCCE"/>
<path d="M224.171 102.371C234.313 102.371 242.535 95.533 242.535 87.0976C242.535 78.6621 234.313 71.8237 224.171 71.8237C214.029 71.8237 205.807 78.6621 205.807 87.0976C205.807 95.533 214.029 102.371 224.171 102.371Z" fill="#98BCCE"/>
<path d="M146.017 269.434C184.007 269.434 214.804 243.888 214.804 212.375C214.804 180.862 184.007 155.315 146.017 155.315C108.027 155.315 77.2305 180.862 77.2305 212.375C77.2305 243.888 108.027 269.434 146.017 269.434Z" fill="#B2CEDB"/>
<path d="M90.5813 220.21C90.5813 220.21 86.4388 216.173 80.0007 215.672C73.5627 215.171 56.544 227.174 69.5521 255.426C69.5521 255.426 89.3676 293.809 112.851 260.729" fill="#B2CEDB"/>
<path d="M90.0619 270.019C96.2155 267.113 96.704 255.232 91.1531 243.481C85.6022 231.73 76.1139 224.559 69.9603 227.464C63.8068 230.37 63.3183 242.251 68.8692 254.003C74.4201 265.754 83.9084 272.924 90.0619 270.019Z" fill="#9FC0D2"/>
<path d="M147.152 255.796C170.701 255.796 189.791 237.832 189.791 215.672C189.791 193.512 170.701 175.549 147.152 175.549C123.603 175.549 104.513 193.512 104.513 215.672C104.513 237.832 123.603 255.796 147.152 255.796Z" fill="#D6E4EB"/>
<path d="M147.152 182.46C189.688 182.46 224.171 150.335 224.171 110.708C224.171 71.0796 189.688 38.9548 147.152 38.9548C104.615 38.9548 70.1323 71.0796 70.1323 110.708C70.1323 150.335 104.615 182.46 147.152 182.46Z" fill="#B2CEDB"/>
<path d="M149.342 147.032C160.912 147.032 170.292 132.21 170.292 113.926C170.292 95.6416 160.912 80.8193 149.342 80.8193C137.771 80.8193 128.392 95.6416 128.392 113.926C128.392 132.21 137.771 147.032 149.342 147.032Z" fill="#59455C"/>
<path d="M107.822 110.148C112.749 109.797 116.276 102.95 115.698 94.8559C115.121 86.7615 110.658 80.4845 105.731 80.8359C100.803 81.1873 97.2768 88.034 97.8543 96.1284C98.4318 104.223 102.894 110.5 107.822 110.148Z" fill="#59455C"/>
<path d="M191.017 104.219C195.945 103.868 199.471 97.0211 198.894 88.9267C198.316 80.8323 193.853 74.5553 188.926 74.9067C183.998 75.2581 180.472 82.1048 181.05 90.1992C181.627 98.2936 186.09 104.571 191.017 104.219Z" fill="#59455C"/>
<path d="M201.717 220.21C201.717 220.21 205.939 216.173 212.482 215.672C219.026 215.171 236.361 227.174 223.142 255.426C223.142 255.426 202.957 293.809 179.025 260.729" fill="#B2CEDB"/>
<path d="M223.736 254.275C229.454 242.555 229.056 230.6 222.848 227.573C216.639 224.546 206.972 231.592 201.254 243.312C195.537 255.032 195.935 266.987 202.143 270.014C208.352 273.041 218.019 265.995 223.736 254.275Z" fill="#9FC0D2"/>
<path d="M165.995 270.849C170.21 269.485 171.988 263.322 169.967 257.085C167.946 250.848 162.891 246.898 158.677 248.263C154.462 249.628 152.684 255.791 154.705 262.028C156.726 268.265 161.781 272.214 165.995 270.849Z" fill="#9FC0D2"/>
<path d="M177.012 235.04C178.136 230.111 172.47 224.616 164.357 222.767C156.245 220.919 148.757 223.416 147.633 228.345C146.51 233.274 152.175 238.768 160.288 240.617C168.401 242.466 175.888 239.969 177.012 235.04Z" fill="#9FC0D2"/>
<path d="M198.784 274.788C219.909 272.807 235.724 257.243 234.108 240.025C232.492 222.807 214.057 210.455 192.933 212.437C171.808 214.418 155.993 229.983 157.609 247.2C159.225 264.418 177.66 276.77 198.784 274.788Z" fill="#BAD2E1"/>
<path d="M146.205 200.305C156.086 198.887 163.377 192.734 162.491 186.561C161.604 180.389 152.876 176.535 142.995 177.953C133.114 179.372 125.823 185.525 126.709 191.697C127.596 197.869 136.324 201.723 146.205 200.305Z" fill="#98BCCE"/>
<path d="M154.345 184.803C156.67 179.017 151.047 171.31 141.784 167.589C132.522 163.868 123.128 165.543 120.803 171.329C118.478 177.115 124.101 184.821 133.364 188.542C142.626 192.263 152.02 190.589 154.345 184.803Z" fill="#98BCCE"/>
<path d="M163.665 177.692C166.616 172.198 161.879 163.917 153.085 159.195C144.291 154.473 134.77 155.098 131.819 160.591C128.868 166.085 133.604 174.366 142.398 179.088C151.192 183.81 160.713 183.185 163.665 177.692Z" fill="#98BCCE"/>
<path d="M224.26 167.166C232.102 160.99 235.329 152.013 231.47 147.114C227.61 142.216 218.125 143.252 210.284 149.428C202.442 155.603 199.215 164.58 203.074 169.479C206.934 174.377 216.419 173.341 224.26 167.166Z" fill="#98BCCE"/>
<path d="M230.51 175.544C240.39 174.125 247.682 167.972 246.795 161.8C245.909 155.627 237.181 151.774 227.3 153.192C217.419 154.61 210.128 160.763 211.014 166.936C211.9 173.108 220.629 176.962 230.51 175.544Z" fill="#98BCCE"/>
<path d="M224.935 188.492C234.912 188.175 242.839 182.866 242.641 176.633C242.443 170.401 234.194 165.605 224.217 165.922C214.24 166.239 206.313 171.548 206.511 177.781C206.709 184.013 214.958 188.809 224.935 188.492Z" fill="#98BCCE"/>
<path d="M235.702 183.594C235.702 183.594 243.195 213.509 227.126 224.483C211.058 235.457 215.464 216.12 215.464 216.12C215.464 216.12 224.224 186.364 225.517 184.676C226.81 182.988 235.702 183.594 235.702 183.594V183.594Z" fill="#9FC0D2"/>
<path d="M189.481 228.377C211.52 226.309 227.823 207.983 225.895 187.443C223.968 166.904 204.54 151.929 182.501 153.996C160.462 156.063 144.159 174.39 146.087 194.93C148.014 215.469 167.443 230.444 189.481 228.377Z" fill="#BAD2E1"/>
<path d="M182.451 214.23C187.551 213.365 190.535 205.876 189.115 197.502C187.695 189.127 182.41 183.039 177.309 183.904C172.209 184.768 169.225 192.257 170.645 200.632C172.065 209.006 177.35 215.094 182.451 214.23Z" fill="#59455C"/>
<path d="M158.461 196.821C160.357 196.499 161.468 193.723 160.942 190.621C160.416 187.518 158.452 185.263 156.556 185.585C154.659 185.906 153.548 188.682 154.074 191.785C154.6 194.887 156.564 197.142 158.461 196.821Z" fill="#59455C"/>
<path d="M199.118 191.24C201.015 190.919 202.126 188.143 201.6 185.04C201.074 181.938 199.11 179.683 197.213 180.005C195.317 180.326 194.206 183.102 194.732 186.204C195.258 189.307 197.222 191.562 199.118 191.24Z" fill="#59455C"/>
</g>
<defs>
<clipPath id="clip0_281_86">
<rect width="259" height="250" fill="white" transform="translate(20 25)"/>
</clipPath>
</defs>
</svg>
